<?xml version="1.0" encoding="UTF-8"?>
<svg width="69px" height="120px" viewBox="0 0 69 120" version="1.1" xmlns="http://www.w3.org/2000/svg" xmlns:xlink="http://www.w3.org/1999/xlink">
    <!-- Generator: Sketch 59.1 (86144) - https://sketch.com -->
    <title>Fill 3</title>
    <desc>Created with Sketch.</desc>
    <g id="2018---snacks" stroke="none" stroke-width="1" fill="none" fill-rule="evenodd">
        <g id="20.00-links-web" transform="translate(-267.000000, -334.000000)" fill="#3B3B3C">
            <path d="M319.158634,441.085739 C313.976794,436.171299 310.194509,430.835655 308.507923,426.06085 C308.154685,425.060393 307.825941,423.655994 307.529726,421.879875 C309.153548,419.405201 310.636917,416.715705 311.842824,413.837089 L311.850861,413.817908 C312.029202,413.391717 312.201803,412.961305 312.367514,412.526674 C312.384353,412.482942 312.400044,412.439978 312.416501,412.39663 C312.574176,411.978878 312.727258,411.55844 312.872686,411.133016 L313.109964,410.439447 C313.159716,410.293675 313.210999,410.143299 313.264195,409.989088 C313.266491,409.981799 313.26917,409.974127 313.271466,409.966838 C313.318922,409.828738 313.367143,409.687953 313.416129,409.543716 C313.441005,409.471597 313.466264,409.397176 313.49114,409.323906 C313.522521,409.23184 313.553521,409.141308 313.585285,409.047707 C313.608248,408.980958 313.63121,408.912292 313.654172,408.84516 C313.687085,408.748107 313.719615,408.651437 313.752911,408.553232 C313.781231,408.469605 313.809551,408.384827 313.838254,408.300433 C313.866574,408.215655 313.895277,408.131644 313.923597,408.046482 C313.953066,407.959019 313.982534,407.871172 314.012003,407.782941 C314.041088,407.695862 314.070174,407.608782 314.09926,407.521319 C314.127197,407.438075 314.154752,407.354064 314.182689,407.270437 C314.212923,407.178754 314.243157,407.087071 314.273391,406.995005 C314.301328,406.91061 314.328883,406.826216 314.356821,406.741438 C314.386289,406.651289 314.415375,406.561524 314.444843,406.471759 C314.473163,406.384296 314.501101,406.2976 314.529421,406.21052 C314.557359,406.124208 314.584914,406.038279 314.612468,405.952734 C314.640406,405.864503 314.668344,405.77704 314.696281,405.689577 C314.723071,405.604415 314.74986,405.519637 314.776649,405.435243 C314.803439,405.350465 314.829463,405.26607 314.85587,405.18206 C314.882276,405.097282 314.908683,405.012887 314.934324,404.92926 C314.959966,404.846016 314.984842,404.763924 315.009717,404.682215 C315.034593,404.600889 315.059086,404.519947 315.083197,404.439772 C315.107307,404.359214 315.131035,404.279807 315.15438,404.200783 C315.177725,404.121375 315.200688,404.043119 315.223267,403.965246 C315.245464,403.888907 315.267279,403.812952 315.28871,403.738532 C315.310142,403.66296 315.330808,403.588923 315.351091,403.515654 C315.371757,403.442384 315.392041,403.369498 315.411176,403.298146 C315.430311,403.227946 315.448681,403.159663 315.466669,403.091764 C315.472792,403.068363 315.479681,403.044196 315.485421,403.021179 C315.552777,403.047265 315.627022,403.062993 315.712366,403.062993 C315.712366,403.062993 315.628936,405.403787 317.046862,405.403787 C317.046862,405.403787 316.975296,407.556995 318.743016,407.727702 C318.737658,408.339561 318.721967,409.015483 318.701301,409.773498 C318.549366,415.293276 318.320125,423.634895 322.895377,435.550233 C324.023977,438.489844 326.125417,441.892089 327.829224,444.412413 C324.352722,443.631381 320.596461,442.449476 319.158634,441.085739 L319.158634,441.085739 Z M290.203472,444.113196 C288.824582,445.722444 287.439568,447.092702 286.380238,448.07628 C285.942805,446.8142 285.409313,445.105597 284.938201,443.114273 C287.570071,441.681103 289.5456,440.20727 289.934812,439.910739 C289.939788,439.906902 289.947824,439.901148 289.952034,439.897696 C289.952417,439.897696 289.953182,439.896929 289.953565,439.896545 C290.368036,439.615358 292.47866,438.151883 295.311068,435.68373 C294.511212,438.24088 292.783294,441.102618 290.203472,444.113196 L290.203472,444.113196 Z M278.964159,441.834547 C278.569206,441.950781 278.132156,442.106527 277.627749,442.285674 C273.190654,443.863465 271.408009,443.813596 270.600116,442.005254 C270.709953,434.669079 274.357525,430.402175 278.216351,425.888609 C278.92474,425.059626 279.649585,424.200721 280.362184,423.322636 L280.365246,423.364066 L280.560809,423.07981 C280.648448,422.970865 280.738384,422.866139 280.825259,422.756042 L280.917491,422.6283 C281.715816,421.41609 282.556238,420.18163 283.406229,418.948704 C284.10084,417.941342 284.803489,416.932062 285.50652,415.923932 C285.508816,415.920863 285.511112,415.917794 285.513026,415.914342 C290.531834,408.716267 295.284279,401.900652 296.788314,395.971178 C299.312643,394.418321 300.954835,393.602381 301.992734,393.174271 L301.993882,393.173504 C302.465376,392.979397 302.812108,392.864697 303.060102,392.797565 C303.899376,394.816126 305.907052,395.712624 307.559577,396.450692 C308.692387,396.956674 309.762434,397.43427 310.497995,398.171187 C310.932749,398.607352 311.417638,399.02779 311.886835,399.434417 C312.062115,399.586327 312.240073,399.740922 312.41918,399.899354 C312.327713,400.614021 312.221321,401.226647 312.101534,401.726876 C311.659125,403.570126 310.437145,407.136941 309.706941,409.268283 L309.468133,409.965688 C309.331124,410.367712 309.184165,410.769736 309.031465,411.172144 C309.011182,411.225466 308.991664,411.279171 308.970998,411.332493 C308.823656,411.714953 308.66866,412.09703 308.50754,412.479873 C308.478455,412.548156 308.450135,412.616439 308.420666,412.684722 C308.262226,413.054906 308.097279,413.425091 307.925827,413.794892 C307.887939,413.876984 307.849286,413.959077 307.810633,414.040786 C307.645304,414.392174 307.474234,414.743945 307.297041,415.095333 C307.241166,415.206196 307.18376,415.315909 307.127119,415.426005 C306.973654,415.724838 306.815979,416.022904 306.654095,416.320969 C306.555356,416.502417 306.455087,416.681947 306.354436,416.861477 C306.258759,417.032184 306.160786,417.202891 306.062431,417.373598 C305.874905,417.698133 305.6847,418.019982 305.491051,418.337996 C305.47115,418.370603 305.450867,418.403593 305.430966,418.4362 C298.826606,429.220653 288.86668,436.266819 287.965024,436.890954 C287.962728,436.892488 287.959283,436.89479 287.956987,436.896324 C287.956604,436.896708 287.956604,436.896708 287.956222,436.897091 C287.923309,436.919724 287.903791,436.932767 287.899199,436.93622 L287.808114,437.001817 L287.800843,437.006804 C287.800078,437.007955 287.793954,437.011791 287.788979,437.016011 C287.785918,437.018312 287.782856,437.020614 287.777881,437.02445 C287.774054,437.027135 287.768696,437.031355 287.764486,437.034808 C287.44263,437.278401 285.041915,439.070631 282.085127,440.534874 L281.833307,440.659547 C280.91175,441.104919 279.940825,441.514616 278.964159,441.834547 L278.964159,441.834547 Z M288.942073,392.320737 C289.205757,392.320737 291.444971,391.759514 293.566311,391.147271 C293.299947,391.828947 293.042386,392.423161 292.82654,392.919937 C292.560176,393.53218 292.351219,394.012077 292.226457,394.4352 C290.909565,395.631299 289.283447,396.201345 287.616761,396.619864 C286.637416,395.963506 288.942073,392.320737 288.942073,392.320737 L288.942073,392.320737 Z M285.18122,410.071564 C285.125345,410.153273 285.069087,410.235366 285.013212,410.317075 C284.879647,410.511182 284.746083,410.705673 284.611753,410.900164 C284.553199,410.985325 284.494645,411.070103 284.436091,411.155649 C284.26196,411.407297 284.087446,411.65933 283.912932,411.910978 C283.855526,411.993455 283.79812,412.075931 283.741097,412.158407 C283.613273,412.342157 283.485449,412.525907 283.358008,412.709273 C283.327009,412.753772 283.296009,412.797887 283.26501,412.842386 C283.121113,410.371164 283.011659,408.199159 282.93971,406.769441 C282.894168,405.871792 282.869292,405.383072 282.85207,405.096898 C283.796206,405.311336 284.718911,405.501991 284.718911,405.501991 C285.550148,405.195102 285.322438,403.903868 285.322438,403.903868 C286.453335,404.225718 286.999839,403.420135 287.200377,403.133961 C287.441099,402.791013 287.468654,401.565376 287.468654,401.565376 C287.64202,402.101664 288.619069,402.331447 289.31368,401.718437 C289.723941,401.356308 289.588081,400.566069 289.408591,399.869048 C290.224138,399.631593 291.057289,399.339282 291.877046,398.947231 C291.858676,398.987511 291.839541,399.028173 291.820788,399.068452 C291.733148,399.256422 291.643213,399.445542 291.550215,399.635813 C291.51845,399.70141 291.486686,399.766624 291.454156,399.832222 C291.334369,400.074664 291.21152,400.31864 291.084079,400.564535 C291.07719,400.577961 291.069536,400.591388 291.062647,400.604814 C290.941329,400.838433 290.815419,401.07397 290.687595,401.310658 C290.649325,401.381243 290.610671,401.451827 290.572018,401.522411 C290.462564,401.722273 290.351197,401.923285 290.237533,402.124681 C290.206151,402.180304 290.175535,402.235544 290.144153,402.291551 C290.001403,402.542433 289.855592,402.795232 289.70672,403.048799 C289.673807,403.105574 289.639746,403.162732 289.606068,403.219506 C289.485515,403.423971 289.363432,403.629203 289.239053,403.835202 C289.194659,403.908471 289.150265,403.982125 289.105871,404.055778 C288.960443,404.294767 288.813483,404.534524 288.663845,404.775432 C288.652364,404.794613 288.6405,404.813793 288.628636,404.832974 C288.467517,405.091911 288.303336,405.352383 288.137624,405.613238 C288.089786,405.68881 288.041565,405.763997 287.993344,405.839569 C287.864372,406.041348 287.734635,406.243511 287.603367,406.446057 C287.559356,406.51434 287.515344,406.582239 287.47095,406.650522 C287.301794,406.910994 287.130725,407.171849 286.958124,407.433088 C286.923681,407.485643 286.888472,407.538581 286.853645,407.591136 C286.710513,407.807109 286.566616,408.023466 286.42157,408.240206 C286.366843,408.321915 286.312499,408.40324 286.257772,408.484566 C286.112726,408.700922 285.966915,408.917279 285.819956,409.133635 C285.784747,409.185423 285.750304,409.23721 285.715095,409.288614 C285.538284,409.54947 285.359943,409.810709 285.18122,410.071564 L285.18122,410.071564 Z M296.489037,364.573776 C296.682687,363.747478 297.0608,362.54716 297.461494,361.27664 C298.585502,357.709826 299.85953,353.666951 299.567525,350.883854 C299.394542,349.238546 298.900469,347.494651 298.422851,345.808298 C297.875582,343.876817 297.309942,341.879738 297.363904,340.402836 L297.370792,340.169217 L297.322571,339.947107 C297.172933,339.257758 297.1626,338.360492 297.290424,338.009872 C298.171796,337.735973 299.159561,337.619739 299.823173,337.60708 C299.883258,338.447955 299.905838,339.791361 299.870629,341.051139 L299.864888,341.257522 L299.905838,341.459301 C299.967071,341.762353 301.468809,348.927822 306.919693,352.696032 C311.406539,355.797909 312.736443,361.443127 312.753665,362.086443 C312.753665,362.69907 312.912871,363.837627 313.19416,365.797111 C313.526348,368.111436 313.940054,370.991203 313.940054,372.536771 C313.940054,375.272301 313.605951,383.679517 313.602507,383.764295 L313.600976,383.836414 C313.600976,384.626269 313.611309,391.612591 313.966843,393.661073 C314.129111,394.596317 314.470484,395.53156 314.832524,396.522043 C314.951546,396.848113 315.071716,397.176867 315.187293,397.510609 C315.088172,397.423913 314.992113,397.352177 314.903325,397.28658 C314.677146,397.085184 314.453645,396.890693 314.233972,396.700806 C313.796539,396.321415 313.383216,395.963506 313.041843,395.621325 C311.83517,394.4118 310.341468,393.7447 309.023811,393.156625 C307.258388,392.368304 306.467717,391.941345 306.305449,391.159163 C306.261821,390.950862 306.195613,390.753302 306.108738,390.568786 C305.847733,390.015235 305.399584,389.579069 304.822846,389.332408 C304.821698,389.332024 304.82055,389.33164 304.819402,389.330873 C304.758934,389.305555 304.69617,389.281771 304.631876,389.259138 C304.619246,389.254918 304.607,389.250315 304.59437,389.246095 C304.529693,389.224613 304.462337,389.204665 304.392684,389.186636 C304.379672,389.183567 304.36666,389.180498 304.353648,389.177429 C304.279786,389.159783 304.203627,389.143671 304.123642,389.131396 C304.121728,389.131012 304.119815,389.130628 304.117901,389.130628 C304.038298,389.118353 303.954486,389.10953 303.867611,389.103008 C303.854982,389.102241 303.842353,389.10109 303.829341,389.099939 C303.742467,389.094953 303.651765,389.093034 303.557237,389.094185 C303.541163,389.094185 303.525089,389.094953 303.509016,389.095336 C303.410278,389.097638 303.308095,389.103008 303.200172,389.113366 C303.195579,389.114133 303.190604,389.114517 303.186012,389.1149 C303.079237,389.125641 302.966721,389.140986 302.850379,389.160166 C302.835836,389.162468 302.821676,389.164386 302.80675,389.166688 C302.689259,389.186636 302.566028,389.211954 302.437821,389.241108 C302.41639,389.246095 302.394958,389.251082 302.373144,389.256453 C302.24111,389.287909 302.104484,389.323201 301.960587,389.365015 C301.950254,389.3677 301.939155,389.371152 301.928822,389.374605 C301.786838,389.416035 301.637966,389.463603 301.483352,389.516157 C301.466513,389.521911 301.45044,389.526898 301.4336,389.532653 C301.276691,389.586742 301.112127,389.647736 300.941823,389.713333 C300.911972,389.724842 300.881738,389.736734 300.851504,389.748625 C300.678521,389.816908 300.499415,389.889794 300.311889,389.970736 C300.291605,389.979176 300.270557,389.98915 300.24989,389.997973 C300.065043,390.078147 299.872925,390.164843 299.673535,390.258061 C299.654017,390.267267 299.635264,390.275323 299.615364,390.284914 C299.410616,390.3812 299.195918,390.485926 298.975096,390.596406 C298.934147,390.617121 298.892815,390.637452 298.8511,390.658551 C298.62913,390.770949 298.399506,390.889484 298.160315,391.016843 C298.12702,391.034489 298.092959,391.053286 298.059663,391.070932 C297.821237,391.198675 297.57554,391.332939 297.319892,391.475642 C297.304967,391.484081 297.291572,391.490986 297.276647,391.499426 C297.924951,389.680726 298.577847,387.347605 298.853013,384.600184 C299.044366,382.684814 298.408691,378.929263 297.672365,374.58065 C297.047788,370.890697 296.19244,365.836623 296.489037,364.573776 L296.489037,364.573776 Z M324.30297,393.365309 C325.470607,394.535322 331.058881,396.374737 331.392601,396.374737 C331.725938,396.374737 326.096331,399.760487 325.804326,400.053182 C325.512704,400.345877 323.886203,397.796015 323.302194,397.796015 C322.718567,397.796015 320.022019,397.609964 319.348839,397.609964 C319.231349,397.609964 319.117302,397.629528 319.005935,397.655614 C318.757558,396.7852 318.469381,395.989975 318.210671,395.281829 C317.893025,394.4118 317.618242,393.659922 317.511085,393.043076 C317.466308,392.784522 317.427272,392.387485 317.393211,391.895696 C319.395147,392.059881 323.432696,392.492978 324.30297,393.365309 L324.30297,393.365309 Z M333.312638,445.890082 C333.260972,445.82295 328.120464,439.118582 326.252858,434.254779 C321.936315,423.012678 322.145273,415.418333 322.297973,409.872854 C322.333564,408.563206 322.365329,407.331048 322.316725,406.185202 C323.851377,406.430713 325.489742,406.706146 325.971186,405.821539 C326.471383,404.902024 326.805103,403.982508 326.805103,403.229864 C326.805103,402.477603 334.186738,397.336066 334.72865,396.792873 C335.270945,396.249296 335.145417,394.284824 333.561014,394.033943 C332.250245,393.826409 321.045758,389.177429 317.209512,385.82582 C317.202623,385.128416 317.198796,384.462851 317.198796,383.87209 C317.225969,383.186577 317.537874,375.279973 317.537874,372.536771 C317.537874,370.733033 317.103885,367.71133 316.75524,365.283456 C316.5658,363.964986 316.351485,362.470437 316.351485,362.086443 C316.351485,360.487553 314.581852,353.612094 308.962195,349.727267 C305.136665,347.083037 303.7218,341.940733 303.473424,340.921095 C303.599717,335.813699 303.047089,335.260149 302.602002,334.813625 C300.896281,333.103872 296.062703,334.617217 296.014482,334.633328 C293.641704,335.425868 293.31449,338.238504 293.763022,340.504877 C293.742738,342.48968 294.362339,344.676262 294.96204,346.793411 C295.398325,348.332841 295.849153,349.924826 295.989223,351.261327 C296.203539,353.29715 294.947497,357.281333 294.030533,360.190254 C293.591187,361.585063 293.211542,362.789602 292.986511,363.747862 C292.554436,365.588043 293.128878,369.296026 294.125444,375.18407 C294.730503,378.757789 295.416312,382.808721 295.27318,384.240356 C295.149566,385.474433 294.940226,386.609921 294.687257,387.641834 C291.546388,388.708273 287.558973,390.180955 286.926742,390.536179 C285.999445,391.057122 285.047273,396.603752 285.047273,396.603752 C285.047273,396.28267 283.410056,396.443019 283.410056,396.443019 C282.109238,396.443019 281.980648,397.758421 281.982562,398.299696 C281.876552,398.357621 281.771691,398.417848 281.668743,398.481144 C281.120325,398.442016 280.467046,398.639575 279.863135,399.172795 C279.393938,399.587094 279.454405,400.366592 279.556588,400.869122 C279.462059,401.093918 279.381308,401.333291 279.314718,401.586858 C278.423395,402.32224 278.809545,403.371416 279.044527,403.748889 C279.062897,403.778427 279.085094,403.806431 279.110352,403.833667 C279.130253,404.248351 279.173882,404.686818 279.251188,405.157508 C279.266497,405.36696 279.303619,406.105027 279.346482,406.951657 C279.460911,409.22225 279.669869,413.357192 279.961108,417.605682 C279.280274,418.598467 278.607094,419.592403 277.95879,420.575598 C277.158169,421.583344 276.307413,422.578814 275.484212,423.542061 C271.313098,428.421208 267,433.467226 267,442.346284 L267,442.66353 L267.107923,442.96198 C268.242647,446.091094 270.546538,446.993347 272.906304,446.993347 C275.149727,446.993347 277.443667,446.17779 278.830594,445.68485 C279.294434,445.519897 279.69551,445.377194 279.998231,445.28858 L280.051427,445.272468 C280.580327,445.100227 281.104251,444.905736 281.620522,444.696668 C282.676791,448.901811 283.917907,451.730174 283.978757,451.867123 L284.923276,454 L286.744191,452.545347 C287.250512,452.140638 299.149228,442.526581 299.414826,432.942063 C299.424776,432.582619 299.425541,432.205146 299.421332,431.820001 C301.143127,430.074571 302.944524,428.07404 304.685072,425.842959 C304.822846,426.361218 304.965978,426.838046 305.116764,427.264238 C306.989345,432.566891 311.098078,438.406217 316.686353,443.705418 C320.29221,447.125309 330.492094,448.61909 331.643274,448.777905 L336,449.380174 L333.312638,445.890082 Z" id="Fill-3"></path>
        </g>
    </g>
</svg>