<?xml version="1.0" encoding="UTF-8"?>
<svg width="46px" height="30px" viewBox="0 0 46 30" version="1.1" xmlns="http://www.w3.org/2000/svg" xmlns:xlink="http://www.w3.org/1999/xlink">
    <!-- Generator: Sketch 59.1 (86144) - https://sketch.com -->
    <title>Combined Shape</title>
    <desc>Created with Sketch.</desc>
    <g id="2018---snacks" stroke="none" stroke-width="1" fill="none" fill-rule="evenodd">
        <g id="20.00-links-web" transform="translate(-163.000000, -244.000000)" fill="#404042">
            <path d="M177.462003,268.156621 L169.540902,268.156621 L169.540902,260.305528 L177.844615,260.305528 C177.844615,260.305528 180.852199,260.265012 180.852199,264.339853 C180.852199,267.737657 178.652321,268.122564 177.462003,268.156621 L177.462003,268.156621 Z M169.540902,249.221339 L176.776323,249.221339 L177.844615,249.221339 C177.844615,249.221339 179.862881,249.221339 179.862881,252.27769 C179.862881,255.334041 178.675699,255.777079 177.330284,255.777079 L169.540902,255.777079 L169.540902,249.221339 Z M198.993153,251.474201 C210.539947,251.474201 208.922541,264.226612 208.922541,264.226612 L208.922541,264.226612 L194.140363,264.226612 C194.140363,269.684297 199.160795,269.338439 199.160795,269.338439 C203.902109,269.338439 203.734751,266.179623 203.734751,266.179623 L203.734751,266.179623 L208.755183,266.179623 C208.755183,274.565944 198.993438,273.991667 198.993438,273.991667 C187.279572,273.991667 188.032537,262.76156 188.032537,262.76156 L188.032938,262.7231 C188.044618,262.005085 188.396556,251.474201 198.993153,251.474201 Z M177.844615,244 C182.356133,244 185.917678,246.565456 185.917678,251.82232 C185.917678,257.079185 181.564679,257.412124 181.564679,257.412124 C187.302438,257.412124 186.906995,264.706849 186.906995,264.706849 C186.906995,273.672145 177.844615,273.37796 177.844615,273.37796 L177.844615,273.37796 L163,273.37796 L163,244 Z M199.104915,255.777167 C203.511798,255.777167 203.455633,260.305616 203.455633,260.305616 L194.084483,260.305616 L194.088061,260.281714 C194.143568,259.928416 194.885558,255.777167 199.104915,255.777167 Z M204.625765,245.677352 L204.625765,248.63799 L192.856018,248.63799 L192.856018,245.677352 L204.625765,245.677352 Z" id="Combined-Shape"></path>
        </g>
    </g>
</svg>