<?xml version="1.0" encoding="UTF-8"?>
<svg width="180px" height="111px" viewBox="0 0 180 111" version="1.1" xmlns="http://www.w3.org/2000/svg" xmlns:xlink="http://www.w3.org/1999/xlink">
    <!-- Generator: Sketch 59.1 (86144) - https://sketch.com -->
    <title>bottomteeth</title>
    <desc>Created with Sketch.</desc>
    <g id="2018---snacks" stroke="none" stroke-width="1" fill="none" fill-rule="evenodd">
        <g id="10.00-landing-web" transform="translate(-206.000000, -317.000000)">
            <g id="Group" transform="translate(206.000000, 248.000000)">
                <g id="bottomteeth" transform="translate(-16.000000, 69.000000)">
                    <path d="M1.87335435,19.5666381 C3.51830628,10.2002905 5.90311101,4.70220542 9.02776855,3.07238293 C13.7147549,0.627649201 13.7413855,-0.376107974 18.0237915,0.125770614 C22.3061974,0.627649201 24.3321719,2.83837819 27.6548518,4.55543929 C30.9775318,6.27250039 28.921854,7.27467367 30.8433545,9.78331905 C32.764855,12.2919644 35.650363,13.3849128 35.650363,15.1122372 C35.650363,16.8395617 40.7673516,14.4257182 42.995104,16.1397003 C44.4802723,17.282355 46.0252075,20.4226028 47.6299096,25.5604437 C51.3479142,23.6774582 54.2339018,23.1417105 56.2878725,23.9532006 C59.3688285,25.1704358 64.8883573,23.7457106 67.1500862,25.5604437 C68.5179296,26.657954 67.6660902,29.046018 68.8197535,29.2092387 C69.5736722,29.3159033 69.1282401,27.1679395 71.9760637,26.8407028 C79.1816906,26.0127212 85.3140489,25.5604437 88.360338,25.5604437 C90.3911975,25.5604437 91.7713005,26.7767087 92.5006473,29.2092387 C92.6467764,27.9865308 93.1143601,27.0692709 93.9033982,26.457459 C95.0869555,25.5397411 101.743048,25.5604437 107.41962,25.5604437 C110.711014,25.5604437 113.184235,25.1635295 114.482538,25.5604437 C115.423381,25.848076 115.488701,26.8989215 116.045937,27.1522918 C117.372124,27.7552968 117.248863,25.0308517 118.730132,25.0308517 C120.211401,25.0308517 125.386312,24.6882305 128.240855,24.6882305 C131.095398,24.6882305 138.337211,24.6882305 139.542138,24.6882305 C140.747066,24.6882305 140.96929,27.5980619 141.637779,27.3751768 C142.306268,27.1522918 142.866793,24.6882305 144.481522,24.6882305 C146.096251,24.6882305 153.965698,23.9532006 156.851366,23.9532006 C158.775145,23.9532006 160.92403,24.7879534 163.298022,26.457459 C163.625306,24.0574737 164.544281,22.5935766 166.054946,22.0657677 C168.320943,21.2740543 174.307644,19.4165193 175.96732,19.4165193 C177.626996,19.4165193 179.358069,20.651514 179.358069,21.3586408 C179.358069,22.0657677 179.533664,16.0784817 181.222742,14.2406827 C182.91182,12.4028836 184.121615,10.7933604 185.747191,10.7933604 C187.372766,10.7933604 188.331512,11.8034017 189.722235,10.7933604 C191.112958,9.78331905 191.11343,3.90357641 193.17004,3.90357641 C195.226651,3.90357641 197.552068,3.25171353 200.17789,3.90357641 C202.803711,4.55543929 206.023737,5.60714684 206.773568,7.20764838 C207.523398,8.80814992 208.540838,22.3459576 207.657203,23.9532006 C206.773568,25.5604437 206.363208,36.1335437 203.839557,40.0183334 C201.315906,43.9031232 166.063602,73.6091095 152.320871,77.1685123 C138.57814,80.727915 63.8259374,82.2985721 50.7228782,79.7335422 C37.619819,77.1685123 0,34.7930554 0,28.4294115 C0,24.1869823 0.62445145,21.2327245 1.87335435,19.5666381 Z" id="Path-5" fill="#38383F"></path>
                    <path d="M8.45405774,33.1907528 C15.5559782,31.1977434 19.1069385,29.2506778 19.1069385,27.349556 C19.1069385,24.4978733 18.6653621,40.0310985 21.2370359,40.0310985 C22.9514852,40.0310985 24.9802634,39.17326 27.3233706,37.4575831 C25.1493947,47.6214556 25.1493947,52.7033919 27.3233706,52.7033919 C30.5843344,52.7033919 39.5463007,52.4657516 41.8870145,48.432997 C43.4474904,45.7444939 44.3294465,42.943861 44.5328828,40.0310985 C47.3340801,53.4119131 49.185749,60.6096822 50.0878898,61.624406 C51.4411009,63.1464917 53.2056861,65.7876099 56.5085339,65.7876099 C58.7104324,65.7876099 62.9956128,58.9571219 69.3640752,45.296146 C73.6174652,54.6894836 76.3909798,60.1322369 77.6846189,61.624406 C79.6250775,63.8626597 80.2423472,67.4363462 83.37397,67.4363462 C86.5055927,67.4363462 95.6420585,52.2968022 95.6420585,48.7964741 C95.6420585,45.296146 100.741606,59.4713855 104.762226,61.624406 C108.782845,63.7774265 112.818501,64.6638245 114.516158,61.624406 C115.64793,59.598127 117.590148,55.2009907 120.342812,48.432997 C121.200436,54.9482999 122.567448,59.3454362 124.443848,61.624406 C127.258449,65.0428607 134.803541,64.6685773 134.803541,63.1464917 C134.803541,62.1317679 136.989484,58.6507346 141.36137,52.7033919 C142.984871,57.6360109 144.54056,60.6096822 146.028437,61.624406 C148.260253,63.1464917 156.116066,62.8954016 159.032071,61.624406 C160.976074,60.7770756 162.977572,54.450949 165.036564,42.6460262 C170.291055,49.3509367 173.807037,52.7033919 175.584512,52.7033919 C179.706791,52.7033919 183.715077,50.0442763 185.499289,45.296146 C186.836383,41.7378796 187.821844,39.1250253 188.455671,37.4575831 C190.865792,42.6832917 193.238816,45.296146 195.574744,45.296146 C199.078634,45.296146 201.777157,32.5610062 203.391483,29.9552811 C204.467701,28.218131 207.003873,28.218131 211,29.9552811 C213.234496,79.3416037 210.567829,106.35651 203,111 L15.6085167,111 C4.83756316,98.8288597 0.968057595,75.1725592 4,40.0310985 L8.45405774,33.1907528 Z" id="Path-6" fill="#474750"></path>
                    <path d="M151,29.3524243 C151,28.2081858 157.299596,28 160.102349,28 C162.905101,28 158.022291,40.5707141 156.102916,40.5707141 C154.18354,40.5707141 151,30.4966627 151,29.3524243 Z" id="Path-8" fill="#474750"></path>
                    <path d="M168.517276,27 C168.517276,25.0327047 174.291138,23.5321092 175.322286,23.5321092 C176.353434,23.5321092 177.949145,24.9964464 177.949145,25.7487779 C177.949145,26.5011095 178.688167,35.2670424 178.688167,36.5341603 C178.688167,37.8012783 175.333469,40.5 174.51419,40.5 C173.694911,40.5 168.517276,28.9672953 168.517276,27 Z" id="Path-9" fill="#474750"></path>
                    <path d="M38.6303864,15.6162044 C40.211335,15.3273861 41.4633671,15.3804594 42.3864828,15.7754242 C43.3095984,16.170389 44.0313974,16.9228497 44.5518799,18.0328064 C42.1317656,23.4885964 40.4501633,26.477661 39.5070731,27 C38.0924378,27.7835085 35.6658146,28.0114269 35.6658146,28.0114269 C35.6658146,28.0114269 36.6540052,23.8796861 38.6303864,15.6162044 Z" id="Path-13" fill="#474750"></path>
                </g>
            </g>
        </g>
    </g>
</svg>