<?xml version="1.0" encoding="UTF-8"?>
<svg width="48px" height="118px" viewBox="0 0 48 118" version="1.1" xmlns="http://www.w3.org/2000/svg" xmlns:xlink="http://www.w3.org/1999/xlink">
    <!-- Generator: Sketch 59.1 (86144) - https://sketch.com -->
    <title>Combined Shape</title>
    <desc>Created with Sketch.</desc>
    <g id="2018---snacks" stroke="none" stroke-width="1" fill="none" fill-rule="evenodd">
        <g id="20.00-links-web" transform="translate(-649.000000, -332.000000)" fill="#38383F">
            <path d="M683.200309,332 C691.619661,332 696.015469,337.123053 696.387731,347.369158 L696.400619,347.787347 L696,435 C696,443.284271 689.284271,450 681,450 C672.715729,450 666,443.284271 666,435 C666,434.660294 666.011293,434.323226 666.033523,433.98915 C660.287981,422.845459 654.609855,395.820785 649,352.916597 C655.510061,381.66634 662.020122,406.248023 668.530184,426.661643 C671.220952,422.644309 675.80167,420 681,420 C685.171151,420 688.944654,421.702537 691.663494,424.450595 C692.658851,410.377749 692.551239,389.351846 691.340846,361.373636 L681,358.721652 L681,353.122109 L691,346.058 L691,345 C691,340.581722 687.418278,337 683,337 C678.665086,337 675.135457,340.447838 675.003807,344.750821 L675,345 L675,363.443 L670,366.549778 L670,347.787347 C670.267079,337.262449 674.667182,332 683.200309,332 Z M681,424 C674.924868,424 670,428.924868 670,435 C670,441.075132 674.924868,446 681,446 C687.075132,446 692,441.075132 692,435 C692,428.924868 687.075132,424 681,424 Z" id="Combined-Shape"></path>
        </g>
    </g>
</svg>