<?xml version="1.0" encoding="UTF-8" standalone="no"?>
<svg width="200px" height="200px" viewBox="0 0 200 200" version="1.1" xmlns="http://www.w3.org/2000/svg" xmlns:xlink="http://www.w3.org/1999/xlink">
    <!-- Generator: Sketch 40.1 (33804) - http://www.bohemiancoding.com/sketch -->
    <title>Artboard</title>
    <desc>Created with Sketch.</desc>
    <defs>
        <polygon id="path-1" points="0 200 200 200 200 0"></polygon>
        <polygon id="path-3" points="0 200 200 200 200 0 0 0"></polygon>
        <mask id="mask-4" maskContentUnits="userSpaceOnUse" maskUnits="objectBoundingBox" x="0" y="0" width="200" height="200" fill="white">
            <use xlink:href="#path-3"></use>
        </mask>
    </defs>
    <g id="Page-1" stroke="none" stroke-width="1" fill="none" fill-rule="evenodd">
        <g id="Artboard">
            <g id="Group-2">
                <mask id="mask-2" fill="white">
                    <use xlink:href="#path-1"></use>
                </mask>
                <g id="Stroke-1"></g>
                <path d="M60,200 L160,0" id="Line" stroke="#3B3B3C" stroke-width="2" stroke-linecap="square" mask="url(#mask-2)"></path>
                <path d="M120,200 L220,0" id="Line" stroke="#3B3B3C" stroke-width="2" stroke-linecap="square" mask="url(#mask-2)"></path>
                <path d="M20,200 L120,0" id="Line" stroke="#3B3B3C" stroke-width="2" stroke-linecap="square" mask="url(#mask-2)"></path>
                <path d="M80,200 L180,0" id="Line" stroke="#3B3B3C" stroke-width="2" stroke-linecap="square" mask="url(#mask-2)"></path>
                <path d="M140,200 L240,0" id="Line" stroke="#3B3B3C" stroke-width="2" stroke-linecap="square" mask="url(#mask-2)"></path>
                <path d="M40,200 L140,0" id="Line" stroke="#3B3B3C" stroke-width="2" stroke-linecap="square" mask="url(#mask-2)"></path>
                <path d="M100,200 L200,0" id="Line" stroke="#3B3B3C" stroke-width="2" stroke-linecap="square" mask="url(#mask-2)"></path>
                <path d="M160,200 L260,0" id="Line" stroke="#3B3B3C" stroke-width="2" stroke-linecap="square" mask="url(#mask-2)"></path>
                <path d="M180,200 L280,0" id="Line" stroke="#3B3B3C" stroke-width="2" stroke-linecap="square" mask="url(#mask-2)"></path>
            </g>
            <use id="Stroke-1" stroke="#3B3B3C" mask="url(#mask-4)" stroke-width="12" xlink:href="#path-3"></use>
            <path d="M130.529,60.668 L119.376,60.673 C110.631,60.673 108.938,64.828 108.938,70.926 L108.938,84.374 L129.794,84.374 L127.079,105.436 L108.938,105.436 L108.938,159.48 L87.188,159.48 L87.188,105.436 L69,105.436 L69,84.374 L87.188,84.374 L87.188,68.841 C87.188,50.815 98.197,41 114.277,41 C121.98,41 128.599,41.573 130.529,41.83 L130.529,60.668 Z" id="Fill-1" fill="#3B3B3C"></path>
        </g>
    </g>
</svg>