<?xml version="1.0" encoding="UTF-8"?>
<svg width="170px" height="170px" viewBox="0 0 170 170" version="1.1" xmlns="http://www.w3.org/2000/svg" xmlns:xlink="http://www.w3.org/1999/xlink">
    <!-- Generator: Sketch 50.2 (55047) - http://www.bohemiancoding.com/sketch -->
    <title>hands / fist</title>
    <desc>Created with Sketch.</desc>
    <defs></defs>
    <g id="hands-/-fist" stroke="none" stroke-width="1" fill="none" fill-rule="evenodd">
        <path d="M24,95.9726179 L24,45.8418819 C24,34.9461494 32.4379857,26 43,26 C53.5579766,26 62,34.9540322 62,45.8418819 L62,71.3784121 L52,71.3784121 L52,45.8418819 C52,40.3495232 47.8991909,36 43,36 C38.0958155,36 34,40.3424793 34,45.8418819 L34,95.9726179 C34,96.2481659 34.0103174,96.5219068 34.0308084,96.7934858 C35.1023137,127.327379 56.5449557,148 85,148 C113.455528,148 134.898444,127.326498 135.95813,96.9933483 C135.989683,96.5203968 136,96.2460828 136,95.9699066 L136,48.5331418 C136,43.0323462 131.903215,38.6885486 127,38.6885486 C122.096032,38.6885486 118,43.0320512 118,48.5331418 L118,71.3784121 L108,71.3784121 L108,48.5331418 C108,37.6361023 116.437769,28.6885486 127,28.6885486 C137.561204,28.6885486 146,37.6361559 146,48.5331418 L146,95.9699066 C146,96.4611868 145.982834,96.9507301 145.948643,97.4378203 C144.658103,133.107241 118.808814,158 85,158 C51.1918674,158 25.3429303,133.108412 24.0514355,97.4399889 C24.0171932,96.9530469 24,96.4636834 24,95.9726179 Z M90,56.4184621 L80,56.4184621 L80,41.9985105 C80,31.5053105 88.5055021,23 99,23 C109.494539,23 118,31.5027526 118,41.9985105 L118,71.0014895 C118,81.4946895 109.494498,90 99,90 C92.7552661,90 87.0130626,86.9615281 83.4778141,81.961765 L91.6428707,76.1883907 C93.3229308,78.5644337 96.0359108,80 99,80 C103.971701,80 108,75.9717916 108,71.0014895 L108,41.9985105 C108,37.0263132 103.972404,33 99,33 C94.0282991,33 90,37.0282084 90,41.9985105 L90,56.4184621 Z M118,49.0060827 L118,67.9939173 C118,72.9714464 122.027838,77 127,77 C131.971095,77 136,72.9690068 136,67.9939173 L136,49.0060827 C136,44.0285536 131.972162,40 127,40 C122.028905,40 118,44.0309932 118,49.0060827 Z M108,49.0060827 C108,38.5093055 116.504897,30 127,30 C137.495407,30 146,38.5061036 146,49.0060827 L146,67.9939173 C146,78.4906945 137.495103,87 127,87 C116.504593,87 108,78.4938964 108,67.9939173 L108,49.0060827 Z M39.5980445,82.3369377 L35.8174023,91.5947314 C28.7289954,88.7000104 24,81.7909654 24,74.0014895 L24,44.9985105 C24,34.5053105 32.5055021,26 43,26 C53.4945388,26 62,34.5027526 62,44.9985105 L62,67.5958002 L52,67.5958002 L52,44.9985105 C52,40.0263132 47.9724041,36 43,36 C38.0282991,36 34,40.0282084 34,44.9985105 L34,74.0014895 C34,77.693408 36.2395818,80.9654289 39.5980445,82.3369377 Z M70.6711833,62.4328931 L37.4328931,95.6711833 C33.9190149,99.1850615 33.9197986,104.881739 37.4350288,108.39697 C40.9506388,111.91258 46.6469653,111.912955 50.1608152,108.399105 L83.3991054,75.1608152 C86.9129836,71.6469369 86.9121999,65.9502591 83.3969696,62.4350288 C79.8813597,58.9194189 74.1850331,58.9190433 70.6711833,62.4328931 Z M63.6001155,55.3618253 C71.019417,47.9425238 83.0473933,47.9433169 90.4680374,55.363961 C97.8880751,62.7839987 97.8897299,74.8123263 90.4701732,82.231883 L57.231883,115.470173 C49.8125815,122.889475 37.7846051,122.888682 30.363961,115.468037 C22.9439233,108.048 22.9422686,96.0196722 30.3618253,88.6001155 L63.6001155,55.3618253 Z M63.2473608,65.5782538 L54.6432864,70.6743213 C52.9223891,67.7688009 52,64.4469922 52,61.0014895 L52,31.9985105 C52,21.5053105 60.5055021,13 71,13 C81.4945388,13 90,21.5027526 90,31.9985105 L90,56.3676705 L80,56.3676705 L80,31.9985105 C80,27.0263132 75.9724041,23 71,23 C66.0282991,23 62,27.0282084 62,31.9985105 L62,61.0014895 C62,62.641669 62.4341873,64.2053117 63.2473608,65.5782538 Z" id="Combined-Shape" fill="#3B3B3C" fill-rule="nonzero"></path>
    </g>
</svg>