<?xml version="1.0" encoding="UTF-8"?>
<svg width="170px" height="170px" viewBox="0 0 170 170" version="1.1" xmlns="http://www.w3.org/2000/svg" xmlns:xlink="http://www.w3.org/1999/xlink">
    <!-- Generator: Sketch 50.2 (55047) - http://www.bohemiancoding.com/sketch -->
    <title>hands / hi</title>
    <desc>Created with Sketch.</desc>
    <defs></defs>
    <g id="hands-/-hi" stroke="none" stroke-width="1" fill="none" fill-rule="evenodd">
        <path d="M148,111.909379 C148,112.167831 147.989983,112.423442 147.969949,112.678107 L147.957928,112.874075 C146.907137,141.210006 125.91736,161 96.912922,161 C73.3357347,161 57.3775339,152.878188 46.6893159,135.440765 L46.5641024,135.244796 C45.767745,133.857868 44.9573637,132.578865 44.1730268,131.341517 C43.7182517,130.625806 43.2664816,129.912934 42.8227253,129.186809 L19.207473,90.5289154 C16.7202335,86.4571223 18.1997554,81.2341317 22.5040921,78.885348 C26.893574,76.4892288 33.3515817,77.9973354 35.80877,81.9877116 L35.80877,101.498426 L45.8258441,101.498426 L45.8258441,26.8476238 C45.8258441,21.7344514 49.8697369,17.5736677 54.8412108,17.5736677 C59.8126847,17.5736677 63.8565775,21.7344514 63.8565775,26.8476238 L63.8565775,45.9758683 L63.8565775,85.8597492 L73.8736516,85.8597492 L73.8736516,45.9758683 L73.8736516,26.8476238 L73.8736516,18.5194295 C73.8736516,13.8218621 77.9175444,10 82.8890183,10 C87.8604922,10 91.904385,13.8218621 91.904385,18.5194295 L91.904385,30.8266395 L91.904385,58.2830784 L91.904385,78.8446395 L101.921459,78.8446395 L101.921459,58.2830784 L101.921459,30.8266395 C101.921459,26.1290721 105.965352,22.30721 110.936826,22.30721 C115.9083,22.30721 119.952192,26.1290721 119.952192,30.8266395 L119.952192,54.8701944 L119.952192,58.2830784 L119.952192,96.2735423 L129.969267,96.2735423 L129.969267,58.2830784 L129.969267,54.8701944 C129.969267,49.7551285 134.013159,45.5933981 138.984633,45.5933981 C143.956107,45.5933981 148,49.7551285 148,54.8701944 L148,111.909379 Z M138.97161,35.6071866 C135.711746,35.6071866 132.643168,36.4216713 129.958162,37.8508078 L129.958162,30.3054596 C129.958162,20.3829526 121.422427,12.3119777 110.929772,12.3119777 C107.528697,12.3119777 104.340941,13.1709749 101.574814,14.6550418 C99.9133352,6.32456825 92.1727863,0 82.8879334,0 C75.1093278,0 68.4163419,4.44083565 65.4679429,10.7777159 C62.4324139,8.75760446 58.77696,7.57660167 54.8460952,7.57660167 C44.3534402,7.57660167 35.817705,15.9875766 35.817705,26.3249025 L35.817705,69.511532 C30.0961685,67.0870195 23.1538106,67.0983844 17.5083876,70.1811142 C8.42283207,75.1418942 5.29917159,86.170585 10.5470013,94.7662396 L34.1572276,133.438162 C34.6279299,134.209081 35.1076456,134.966741 35.5883628,135.727242 C36.3735343,136.96507 37.1136385,138.13376 37.8257009,139.380111 L38.0620536,139.757994 C50.5486835,160.106852 69.7994054,170 96.9088525,170 C131.018744,170 156.675023,145.954708 157.947922,112.809916 C157.982975,112.350585 158,111.887465 158,111.41961 L158,54.3583287 C158,44.0191086 149.464265,35.6071866 138.97161,35.6071866 Z" id="Fill-1" fill="#3B3B3C"></path>
    </g>
</svg>