<?xml version="1.0" encoding="UTF-8"?>
<svg width="40px" height="47px" viewBox="0 0 40 47" version="1.1" xmlns="http://www.w3.org/2000/svg" xmlns:xlink="http://www.w3.org/1999/xlink">
    <title>Combined Shape</title>
    <g id="Snacks-Portfolio" stroke="none" stroke-width="1" fill="none" fill-rule="evenodd">
        <g id="20.00b-links-tablet" transform="translate(-413.000000, -122.000000)" fill="#38383F">
            <path d="M436.428571,166.235294 C436.428571,166.505352 436.380553,166.766366 436.291026,167.013088 C435.874369,168.161329 434.558643,169 433,169 C431.516751,169 430.253487,168.240502 429.775673,167.177482 C429.6435,166.883427 429.571429,166.566148 429.571429,166.235294 L429.571429,166.235294 Z M437.571429,163.470588 L437.571429,165.096886 L428.755102,165.096886 L428.755102,163.470588 L437.571429,163.470588 Z M437.571429,160.868512 L437.571429,162.49481 L428.755102,162.49481 L428.755102,160.868512 L437.571429,160.868512 Z M433.163265,129.318339 C439.925936,129.318339 445.408163,134.73577 445.408163,141.418511 C445.408163,148.101251 437.28832,154.32536 437.28832,159.730104 L437.28832,159.730104 L428.612245,159.730104 C428.612245,154.32536 420.918367,147.494552 420.918367,141.418511 C420.918367,134.73577 426.400595,129.318339 433.163265,129.318339 Z M446.418465,149.236953 L450.248579,151.439662 C450.382576,151.516724 450.441279,151.674387 450.3987,151.816307 L450.36885,151.885509 C450.368667,151.885828 450.368483,151.886146 450.368299,151.886464 L450.345695,151.925463 C450.255478,152.081115 450.056355,152.13447 449.900399,152.044779 L446.070285,149.842069 C445.913956,149.752164 445.860109,149.552552 445.950014,149.396223 L445.950566,149.395267 L445.97317,149.356269 C446.063387,149.200617 446.262509,149.147262 446.418465,149.236953 Z M420.02683,149.356269 L420.049434,149.395267 C420.126948,149.529003 420.098956,149.694895 419.991122,149.796512 L419.93067,149.841518 C419.930352,149.841702 419.930034,149.841886 419.929715,149.842069 L416.099601,152.044779 C415.943645,152.13447 415.744522,152.081115 415.654305,151.925463 L415.631701,151.886464 C415.541268,151.73044 415.594441,151.530647 415.750465,151.440214 C415.750784,151.44003 415.751102,151.439846 415.751421,151.439662 L419.581535,149.236953 C419.737491,149.147262 419.936613,149.200617 420.02683,149.356269 Z M452.67474,141.596886 C452.854376,141.596886 453,141.742509 453,141.922145 C453,142.101781 452.854376,142.247405 452.67474,142.247405 L448.264035,142.247405 C448.084399,142.247405 447.938776,142.101781 447.938776,141.922145 C447.938776,141.742509 448.084399,141.596886 448.264035,141.596886 L452.67474,141.596886 Z M417.735965,141.596886 C417.915601,141.596886 418.061224,141.742509 418.061224,141.922145 C418.061224,142.101781 417.915601,142.247405 417.735965,142.247405 L413.32526,142.247405 C413.145624,142.247405 413,142.101781 413,141.922145 C413,141.742509 413.145624,141.596886 413.32526,141.596886 L417.735965,141.596886 Z M450.345695,131.919805 L450.368299,131.958804 C450.445813,132.092539 450.41782,132.258431 450.309986,132.360048 L450.249535,132.405054 C450.249216,132.405239 450.248898,132.405422 450.248579,132.405606 L446.418465,134.608315 C446.262509,134.698006 446.063387,134.644651 445.97317,134.488999 L445.950566,134.450001 C445.873052,134.316265 445.901044,134.150373 446.008878,134.048756 L446.06933,134.00375 C446.069648,134.003566 446.069966,134.003382 446.070285,134.003199 L449.900399,131.800489 C450.056355,131.710798 450.255478,131.764153 450.345695,131.919805 Z M416.099601,131.800489 L419.929715,134.003199 C420.063711,134.08026 420.122415,134.237923 420.079836,134.379843 L420.049986,134.449045 C420.049803,134.449364 420.049619,134.449683 420.049434,134.450001 L420.02683,134.488999 C419.936613,134.644651 419.737491,134.698006 419.581535,134.608315 L415.751421,132.405606 C415.617424,132.328544 415.558721,132.170881 415.6013,132.028961 L415.63115,131.959759 C415.631333,131.95944 415.631517,131.959122 415.631701,131.958804 L415.654305,131.919805 C415.744522,131.764153 415.943645,131.710798 416.099601,131.800489 Z M443.000302,124.620527 L443.040558,124.643678 C443.196887,124.733584 443.250734,124.933196 443.160829,125.089525 L443.160278,125.09048 L440.949598,128.904584 C440.859381,129.060236 440.660259,129.113591 440.504303,129.0239 L440.464046,129.000749 C440.307717,128.910843 440.25387,128.711231 440.343775,128.554902 C440.343959,128.554583 440.344143,128.554265 440.344327,128.553947 L442.555006,124.739843 C442.645223,124.584191 442.844346,124.530836 443.000302,124.620527 Z M423.444994,124.739843 L425.655673,128.553947 C425.733187,128.687682 425.705195,128.853574 425.597361,128.955191 L425.536909,129.000197 C425.536591,129.000381 425.536272,129.000565 425.535954,129.000749 L425.495697,129.0239 C425.339741,129.113591 425.140619,129.060236 425.050402,128.904584 L422.839722,125.09048 C422.74929,124.934456 422.802462,124.734663 422.958487,124.64423 C422.958805,124.644045 422.959123,124.643862 422.959442,124.643678 L422.999698,124.620527 C423.155654,124.530836 423.354777,124.584191 423.444994,124.739843 Z M433,122 C433.180338,122 433.326531,122.146193 433.326531,122.326531 L433.326531,126.714992 C433.326531,126.89533 433.180338,127.041522 433,127.041522 C432.819662,127.041522 432.673469,126.89533 432.673469,126.714992 L432.673469,122.326531 C432.673469,122.146193 432.819662,122 433,122 Z" id="Combined-Shape"></path>
        </g>
    </g>
</svg>