<?xml version="1.0" encoding="UTF-8"?>
<svg width="30px" height="30px" viewBox="0 0 30 30" version="1.1" xmlns="http://www.w3.org/2000/svg" xmlns:xlink="http://www.w3.org/1999/xlink">
    <!-- Generator: Sketch 59.1 (86144) - https://sketch.com -->
    <title>Combined Shape</title>
    <desc>Created with Sketch.</desc>
    <g id="2018---snacks" stroke="none" stroke-width="1" fill="none" fill-rule="evenodd">
        <g id="20.00-links-web" transform="translate(-923.000000, -244.000000)" fill="#404042">
            <path d="M929.716183,253.961006 L929.716183,274 L923.493264,274 L923.493264,253.961006 L929.716183,253.961006 Z M945.542152,253.463956 C951.836852,253.463956 953,257.613045 953,263.010204 L953,274 L946.783905,274 L946.783366,263.93433 C946.773766,261.665693 946.598962,258.941888 943.55378,258.941888 C940.318853,258.941888 939.825488,261.474489 939.825488,264.088623 L939.825488,274 L933.615965,274 L933.615965,253.961259 L939.575267,253.961259 L939.575267,256.700732 L939.660696,256.700732 C940.489458,255.125263 942.517764,253.463956 945.542152,253.463956 Z M926.606467,244 C928.595092,244 930.209649,245.618008 930.209649,247.611273 C930.209649,249.605297 928.595092,251.223305 926.606467,251.223305 C924.609755,251.223305 923,249.605297 923,247.611273 C923,245.618008 924.609755,244 926.606467,244 Z" id="Combined-Shape"></path>
        </g>
    </g>
</svg>