<?xml version="1.0" encoding="UTF-8" standalone="no"?>
<svg width="200px" height="200px" viewBox="0 0 200 200" version="1.1" xmlns="http://www.w3.org/2000/svg" xmlns:xlink="http://www.w3.org/1999/xlink">
    <!-- Generator: Sketch 40.1 (33804) - http://www.bohemiancoding.com/sketch -->
    <title>Artboard</title>
    <desc>Created with Sketch.</desc>
    <defs>
        <polygon id="path-1" points="0 200 200 200 200 0"></polygon>
        <polygon id="path-3" points="0 200 200 200 200 0 0 0"></polygon>
        <mask id="mask-4" maskContentUnits="userSpaceOnUse" maskUnits="objectBoundingBox" x="0" y="0" width="200" height="200" fill="white">
            <use xlink:href="#path-3"></use>
        </mask>
    </defs>
    <g id="Page-1" stroke="none" stroke-width="1" fill="none" fill-rule="evenodd">
        <g id="Artboard">
            <g id="Group-2">
                <mask id="mask-2" fill="white">
                    <use xlink:href="#path-1"></use>
                </mask>
                <g id="Stroke-1"></g>
                <path d="M60,200 L160,0" id="Line" stroke="#3B3B3C" stroke-width="2" stroke-linecap="square" mask="url(#mask-2)"></path>
                <path d="M120,200 L220,0" id="Line" stroke="#3B3B3C" stroke-width="2" stroke-linecap="square" mask="url(#mask-2)"></path>
                <path d="M20,200 L120,0" id="Line" stroke="#3B3B3C" stroke-width="2" stroke-linecap="square" mask="url(#mask-2)"></path>
                <path d="M80,200 L180,0" id="Line" stroke="#3B3B3C" stroke-width="2" stroke-linecap="square" mask="url(#mask-2)"></path>
                <path d="M140,200 L240,0" id="Line" stroke="#3B3B3C" stroke-width="2" stroke-linecap="square" mask="url(#mask-2)"></path>
                <path d="M40,200 L140,0" id="Line" stroke="#3B3B3C" stroke-width="2" stroke-linecap="square" mask="url(#mask-2)"></path>
                <path d="M100,200 L200,0" id="Line" stroke="#3B3B3C" stroke-width="2" stroke-linecap="square" mask="url(#mask-2)"></path>
                <path d="M160,200 L260,0" id="Line" stroke="#3B3B3C" stroke-width="2" stroke-linecap="square" mask="url(#mask-2)"></path>
                <path d="M180,200 L280,0" id="Line" stroke="#3B3B3C" stroke-width="2" stroke-linecap="square" mask="url(#mask-2)"></path>
            </g>
            <use id="Stroke-1" stroke="#3B3B3C" mask="url(#mask-4)" stroke-width="12" xlink:href="#path-3"></use>
            <path d="M42.9516,159.479 L67.5726,159.479 L67.5726,80.339 L42.9516,80.339 L42.9516,159.479 Z M55.269,69.527 C47.369,69.527 41,63.137 41,55.262 C41,47.39 47.369,41 55.269,41 C63.137,41 69.525,47.39 69.525,55.262 C69.525,63.137 63.137,69.527 55.269,69.527 Z M159.6951,159.479 L135.1011,159.479 L135.1011,120.993 C135.1011,111.816 134.9431,100.01 122.3211,100.01 C109.5221,100.01 107.5701,110.012 107.5701,120.336 L107.5701,159.479 L83.0021,159.479 L83.0021,80.34 L106.5801,80.34 L106.5801,91.159 L106.9181,91.159 C110.1971,84.937 118.2221,78.376 130.1881,78.376 C155.0931,78.376 159.6951,94.762 159.6951,116.077 L159.6951,159.479 Z" id="Combined-Shape" fill="#404041"></path>
        </g>
    </g>
</svg>