<?xml version="1.0" encoding="UTF-8"?>
<svg width="109px" height="116px" viewBox="0 0 109 116" version="1.1" xmlns="http://www.w3.org/2000/svg" xmlns:xlink="http://www.w3.org/1999/xlink">
    <!-- Generator: Sketch 59.1 (86144) - https://sketch.com -->
    <title>Fill 1</title>
    <desc>Created with Sketch.</desc>
    <g id="2018---snacks" stroke="none" stroke-width="1" fill="none" fill-rule="evenodd">
        <g id="20.00-links-web" transform="translate(-1009.000000, -332.000000)" fill="#3B3B3C">
            <path d="M1034.58313,403.750078 C1036.74323,406.122681 1039.2139,408.187445 1042.01796,409.886361 L1038.21217,420.340898 L1040.93037,421.330159 L1044.58494,411.29136 C1046.8951,412.428353 1049.40832,413.338334 1052.13232,413.996166 L1050.38916,423.881046 L1053.2377,424.383412 L1054.96733,414.577425 C1057.19704,414.953329 1059.55787,415.170672 1062.05368,415.217854 L1062.05368,426.040947 L1064.94632,426.040947 L1064.94632,415.194263 C1067.2882,415.106861 1069.64477,414.851231 1071.97969,414.399915 L1073.73406,424.347059 L1076.58261,423.844694 L1074.8027,413.752138 C1077.10474,413.13994 1079.36965,412.322001 1081.56147,411.272023 L1085.22106,421.325905 L1087.93926,420.336644 L1084.14198,409.904537 C1087.04158,408.214516 1089.77873,406.076273 1092.2583,403.413234 L1111.16814,443.661636 L1015.83186,443.661636 L1034.58313,403.750078 Z M1090.74642,400.19562 C1082.64983,406.024838 1071.84277,407.839773 1063.09099,407.839773 C1052.76353,407.839773 1042.68552,405.185628 1036.13213,400.453184 L1063.49981,342.202774 L1090.74642,400.19562 Z M1063.49981,332 L1009,448 L1118,448 L1063.49981,332 Z" id="Fill-1"></path>
        </g>
    </g>
</svg>