<?xml version="1.0" encoding="UTF-8"?>
<svg width="170px" height="170px" viewBox="0 0 170 170" version="1.1" xmlns="http://www.w3.org/2000/svg" xmlns:xlink="http://www.w3.org/1999/xlink">
    <!-- Generator: Sketch 50.2 (55047) - http://www.bohemiancoding.com/sketch -->
    <title>hands / rock</title>
    <desc>Created with Sketch.</desc>
    <defs></defs>
    <g id="hands-/-rock" stroke="none" stroke-width="1" fill="none" fill-rule="evenodd">
        <path d="M62,65.9494174 L62,71 L63.7310225,69.3012219 C67.3662709,65.7306053 72.1987508,63.7642796 77.3401609,63.763285 L77.3431996,63.763285 C78.2406167,63.763285 79.1268921,63.8219665 80,63.9393294 C79.0671318,59.9688832 75.4379607,57 71.1159755,57 C66.0890214,57 62,61.0142086 62,65.9494174 L62,65.9494174 Z M43,10 C38.037,10 34,14.3409711 34,19.6777772 L34,98 L52,80.2182206 L52,19.6777772 C52,14.3409711 47.963,10 43,10 L43,10 Z M90.153,96.662 C90.936,100.834 94.604,104 99,104 C103.963,104 108,99.963 108,95.001 L108,65.998 C108,61.036 103.963,57 99,57 C94.037,57 90,61.035 90,65.995 L90,68.805 C90.197,68.986 90.392,69.173 90.582,69.364 C97.99,76.772 97.988,88.828 90.578,96.237 L90.153,96.662 Z M37.6158337,108.736255 C34.1288835,112.224657 34.12789,117.897283 37.6138468,121.383699 C39.3016897,123.071283 41.5458551,124 43.9340682,124 L43.9360551,124 C46.3242683,124 48.571414,123.069296 50.2602503,121.379725 L83.383297,88.2637453 C86.8712406,84.7753433 86.8722341,79.1027169 83.3862773,75.6172948 C81.6984344,73.9287175 79.454269,73 77.0650624,73 L77.0630755,73 C74.6748624,73 72.4287101,73.9307041 70.7388804,75.6202746 L37.6158337,108.736255 Z M40,133.467011 C48.3330868,149.802105 64.6992573,160 84.9994687,160 C113.95477,160 134.908989,139.250847 135.958,109.541562 L135.97,109.33411 C135.99,109.069088 136,108.801088 136,108.529117 L136,48.725421 C136,43.3624439 131.962958,39 126.999906,39 C122.036855,39 117.999812,43.3624439 117.999812,48.725421 L117.999812,93.9935933 C117.999812,104.391992 109.476724,112.851858 98.9996146,112.851858 C93.4645569,112.851858 88.475505,110.491473 84.9994687,106.73054 C81.9294368,110.052747 77.6763925,112.283102 72.9103428,112.756569 L57.2361795,128.313471 C53.6471422,131.876878 48.8760925,133.839233 43.8010396,133.840225 L43.7960395,133.840225 C42.5070261,133.840225 41.2360129,133.715159 40,133.467011 L40,133.467011 Z M85,170 C50.941,170 25.321,144.83207 24.052,110.138192 C24.018,109.660408 24,109.176676 24,108.68898 L24,19.6228571 C24,8.80332362 32.523,0 43,0 C53.477,0 62,8.80332362 62,19.6228571 L62,48.8380758 C64.681,47.4037318 67.746,46.5889213 71,46.5889213 C76.534,46.5889213 81.523,48.9461224 84.999,52.7019825 C88.475,48.9471137 93.465,46.5889213 99,46.5889213 C102.254,46.5889213 105.32,47.4037318 108,48.8380758 C108.065,38.0740525 116.563,29.3381341 127,29.3381341 C137.477,29.3381341 146,38.1414577 146,48.9629738 L146,108.686006 C146,109.176676 145.983,109.662391 145.948,110.142157 C144.677,144.833061 119.059,170 85,170 L85,170 Z" id="Page-1" fill="#3B3B3C"></path>
    </g>
</svg>