<?xml version="1.0" encoding="utf-8"?>
<!-- Generator: Adobe Illustrator 24.2.1, SVG Export Plug-In . SVG Version: 6.00 Build 0)  -->
<svg version="1.1" id="Layer_1" xmlns="http://www.w3.org/2000/svg" xmlns:xlink="http://www.w3.org/1999/xlink" x="0px" y="0px"
	 viewBox="0 0 180 125" style="enable-background:new 0 0 180 125;" xml:space="preserve">
<style type="text/css">
	.st0{fill-rule:evenodd;clip-rule:evenodd;fill:#38383F;}
	.st1{fill-rule:evenodd;clip-rule:evenodd;fill:#474750;}
</style>
<desc>Created with Sketch.</desc>
<g id="_x32_018---snacks">
	<g id="_x31_0.00-landing-web" transform="translate(-206.000000, -248.000000)">
		<g id="Group" transform="translate(206.000000, 248.000000)">
			<g id="topteeth" transform="translate(-19.000000, -12.000000)">
				<path id="Path-2" class="st0" d="M70,112c0.8,2.5,2.1,4.2,3.8,5.4c1.8,1.1,8.1,1.5,19.1,1.2c8.3-0.8,13.2-1.8,14.6-3.2
					c1.4-1.4,2.2-2.4,2.5-3c0.6,1,1.1,1.7,1.6,2.1c0.8,0.5,3.9,1.7,6.3,1.7s17.4-0.7,20-1.7s6.3-3.4,6.3-4.2c0-0.5,0.2-1.6,0.6-3.2
					c0.5,1,1.3,1.8,2.3,2.4c1.5,0.8,7.5,1.8,8.3,1.8s6.7-0.1,7.5-1c0.5-0.6,1.5-1.6,2.8-3.2l2.3,2.4c0.6,9.8,1.3,15.6,2,17.6
					c1.1,3,1.9,5.1,2.8,6.3c0.9,1.2,4.2,0.7,5.9-1.5s11.1-26.1,11.1-28c0-1.9,0,2.1,1.8,3.2s4.5,1.4,5.8,1.4s4-2.3,4-2.3
					s1.2-1.7,3.6-5.2c1.1,1.2,2.4,1.8,3.8,1.8c2.2,0,3.6,0,4.6,0s2.2-3.1,2.2-3.1s0.4-1.8,1.3-5.5l-9.9-16.3
					c-1.9-29.7-3.8-44.9-5.5-45.5c-1-0.3-64.7-0.3-191.1,0C5.6,41.6,0,99.2,0,100.9c0,1.8,1.9,3.3,1.9,4.3s2.3,4.2,3.8,4.2
					s5.6-1.7,6.5-1.7s1.9,2.8,2.6,3.6c0.7,0.8,2.1,4.1,4.2,4.1s7.2-1.5,7.2-2.4s2,3.3,2.8,4.5c0.8,1.2,7,13,8.6,15.1
					c1.5,2,4.8,4.9,6.7,4.4c2-0.5,2.5-9.7,2.5-10.7s-0.7-15,0-15.8c0.7-0.8,2.2,2.2,4,3.2c1.8,1,1.9,1.5,7.2,1.9
					C61.5,115.6,65.5,114.5,70,112z"/>
				<path id="Path-3" class="st1" d="M199,3c2.8,54.2,2.8,81.7,0,82.6c-5.5,1.7-11.3-9.6-18-8.8c-7.3,0.8-15.2,13.5-15.2,10.6
					c0-18.5-15.3-16.1-17.1-15.5c-7.2,2.3-2.9,23.9-4.3,23.9s-4.8-23.9-13.4-23.9c-8.5,0-19.5-2.4-22,7.6s-0.2,14.3-1.2,16.3
					c-1,2-2.4-19.3-6.6-22.1c-4.2-2.8-19.5-2.8-22.1,0c-2.6,2.8-8.7,20.7-8.7,25.3c0,4.6-5.1-22.2-10.3-22.2
					c-2.6,0-7.9-2.6-10.4,1.1c-2.5,3.7-2.2,13.6-4.3,14.4c-4.2,1.6-6.7-10.2-13.5-9.2C25,84,19,98.9,19,89.5
					c0.5-4.6-1.7-33.7,0-86.5c19.1-1.9,32.7-2.7,40.8-2.4c19.7,0.7,35.7,5,48,5c12.3,0,28.5-4.3,48.6-5C164.8,0.3,179,1.1,199,3z"/>
				<path id="Path" class="st1" d="M129,115.6c-1-2.1,4-8.6,4.7-11.9c0.7-3.3,3.1-13.6,3.1-15.6s3.1,24.3,2,25.9
					C137.7,115.2,128.4,115.6,129,115.6z"/>
				<path id="Path-4" class="st1" d="M41.6,131.8c-1.8,0.9-0.6-11.6-0.6-14.3s-0.5-12.1-1.2-14.2c-0.6-2.1-1.2-5.3-0.6-5.3
					c0.6,0,3.1-0.7,3.6,2.4c0.6,3.1,0,13.1,0,15.1S43.4,131,41.6,131.8z"/>
				<path id="Path-10" class="st1" d="M81.8,116.6c-1.6-8.1-2.2-14.2-1.6-18.3c0.9-6.1,2.6-11.3,2.6-12.2c0-0.9,3-7.2,3-5.9
					c0,1.3-0.6,17.5-0.6,20c0,2.5-2.4,6.7-2.4,8.5C82.8,109.9,82.5,112.5,81.8,116.6z"/>
				<path id="Path-12" class="st1" d="M183.9,119.2l2.7-6.8c0.1-6.2-2.2-12.2-2.2-15c0-2.8,0.2-6.6-1.3-6.6
					c-1.4,0-3.2,12.1-3.2,14.2C180,107,181.5,120.9,183.9,119.2z"/>
			</g>
		</g>
	</g>
</g>
</svg>
