<?xml version="1.0" encoding="UTF-8"?>
<svg width="170px" height="170px" viewBox="0 0 170 170" version="1.1" xmlns="http://www.w3.org/2000/svg" xmlns:xlink="http://www.w3.org/1999/xlink">
    <!-- Generator: Sketch 50.2 (55047) - http://www.bohemiancoding.com/sketch -->
    <title>hands / shoot</title>
    <desc>Created with Sketch.</desc>
    <defs></defs>
    <g id="hands-/-shoot" stroke="none" stroke-width="1" fill="none" fill-rule="evenodd">
        <path d="M134.61225,106.067185 L125.064515,115.614921 C122.064795,118.61464 122.003001,123.349761 124.843548,126.190308 C127.684831,129.031591 132.418707,128.969571 135.418936,125.969342 L144.966672,116.421606 C147.966391,113.421887 148.028186,108.686766 145.187638,105.846218 C142.346723,103.005303 137.612224,103.067211 134.61225,106.067185 Z M128.254722,99.7096566 C134.729189,93.2351902 145.155336,93.0988595 151.545166,99.4886901 C157.934554,105.878078 157.798482,116.304852 151.3242,122.779134 L141.776464,132.32687 C135.301814,138.801521 124.876293,138.93811 118.48602,132.547837 C112.096632,126.158449 112.232704,115.731675 118.706986,109.257392 L128.254722,99.7096566 Z M120.941658,84.1356198 L105.040208,100.037069 C101.881554,103.195723 101.883197,108.315979 105.044023,111.476805 C108.204592,114.637375 113.32612,114.638259 116.483759,111.48062 L132.385208,95.5791705 C135.544117,92.4202619 135.542601,87.3006415 132.381394,84.1394344 C129.22057,80.9786105 124.099678,80.9775997 120.941658,84.1356198 Z M114.584129,77.7780917 C121.253877,71.1083436 132.067494,71.1104783 138.738922,77.7819062 C145.410452,84.4534366 145.413654,95.265781 138.742736,101.936699 L122.841287,117.838148 C116.17199,124.507445 105.357738,124.505577 98.6864945,117.834334 C92.0154153,111.163254 92.0119466,100.350275 98.68268,93.6795411 L114.584129,77.7780917 Z M108.409963,58.8888689 L91.8727607,75.4260711 C88.7367821,78.5620497 88.8025305,83.7917626 92.1027707,87.0920029 C95.4058705,90.3951026 100.629172,90.4615436 103.768702,87.322013 L120.305905,70.7848107 C123.442519,67.6481964 123.376787,62.4197712 120.075895,59.118879 C116.772536,55.8155199 111.549874,55.7489582 108.409963,58.8888689 Z M102.052435,52.5313407 C108.740292,45.8434831 119.654656,45.9825843 126.433423,52.7613508 C133.2102,59.538128 133.347489,70.4582828 126.663433,77.1423389 L110.126231,93.6795411 C103.438825,100.366946 92.5238179,100.228106 85.7452426,93.449531 C78.9691173,86.6734058 78.8318121,75.7519633 85.5152325,69.068543 L102.052435,52.5313407 Z M113.591635,5.38801254 C120.518074,-1.53842727 131.571194,-1.86164268 138.285545,4.85270867 C144.997725,11.5648879 144.672011,22.62485 137.750242,29.5466196 L92.7929812,74.50388 L86.435453,68.1463518 L131.392713,23.1890914 C134.88433,19.6974745 135.042555,14.3247748 131.928017,11.2102368 C128.810679,8.09289863 123.444899,8.24980482 119.949163,11.7455407 L53.2113329,78.4833706 L50.3926375,73.0029361 C50.0455723,72.3316263 49.8611539,71.9765727 49.6515877,71.5745823 C49.0517073,70.42389 48.3714205,69.1294137 47.624251,67.7205868 C45.4895098,63.6954214 43.2486358,59.5642429 41.0107306,55.5639061 C40.1807929,54.0803623 39.3650211,52.6397388 38.5668267,51.2493836 C38.4081113,50.9729212 38.2501816,50.6986054 38.0930718,50.426505 C35.8586624,46.5567433 30.9111729,45.2315996 27.0411476,47.4658158 C23.1694405,49.7010492 21.8434546,54.6485067 24.0774627,58.5181717 C25.1169081,60.3185438 26.2321638,62.2108037 27.4144086,64.1825867 C30.4625951,69.2664429 33.8123042,74.6431379 37.2152291,79.9684799 C38.4068083,81.833219 39.5196486,83.5578997 40.5229072,85.0998813 C40.8735763,85.6388503 41.1853284,86.1162252 41.4543126,86.5266845 C41.6148908,86.7717204 41.7250184,86.9392263 41.7808465,87.0238843 L43.1475418,89.0963434 L38.7672048,98.7462095 C32.0052998,115.612803 36.0191919,134.00038 49.2801512,147.26134 C67.3711157,165.352304 94.1469503,165.841568 114.10436,147.23057 C114.4248,146.950412 114.605336,146.782942 114.781764,146.606514 L144.939334,116.448944 C148.436895,112.951383 148.59392,107.585556 145.476546,104.468182 C142.78168,101.773316 138.70714,102.337048 134.767289,106.276898 L120.243516,120.800672 L113.885988,114.443143 L128.409761,99.9193703 C135.536264,92.7928676 145.181784,91.4583638 151.834074,98.1106536 C158.548527,104.825107 158.225069,115.878265 151.296863,122.806472 L121.139292,152.964042 C120.826077,153.277257 120.503452,153.578089 120.172519,153.865355 C96.6758417,175.721446 64.4166863,175.112931 42.922623,153.618868 C27.120883,137.817128 22.2870499,115.574365 30.4637883,95.2965502 L32.9133047,89.8903045 C31.9163666,88.3573576 30.8154503,86.6507293 29.6390312,84.8097148 C26.1935372,79.417755 22.8004856,73.9714899 19.7033502,68.8059954 C18.4966565,66.7934357 17.3564631,64.858864 16.29105,63.0135143 C11.574272,54.8432885 14.3739623,44.3972123 22.5458787,39.6793605 C30.7157567,34.9627833 41.1618266,37.7606757 45.8792563,45.9307669 C46.0401182,46.2093657 46.201756,46.4901225 46.3641479,46.7729889 C47.179474,48.1931852 48.0115677,49.6626326 48.8572558,51.1743308 C51.1194204,55.2180322 53.3798752,59.3846623 55.5340833,63.4455638 L113.591635,5.38801254 Z" id="Combined-Shape" fill="#3B3B3C" fill-rule="nonzero"></path>
    </g>
</svg>