<?xml version="1.0" encoding="UTF-8"?>
<svg width="170px" height="170px" viewBox="0 0 170 170" version="1.1" xmlns="http://www.w3.org/2000/svg" xmlns:xlink="http://www.w3.org/1999/xlink">
    <title>hands / fuck</title>
    <g id="hands-/-fuck" stroke="none" stroke-width="1" fill="none" fill-rule="evenodd">
        <path d="M71,0 C81.4913625,0 90,7.80041136 90,17.4138796 L90.0004478,52.0371277 C92.6789665,50.7375059 95.7436704,50 99,50 C109.495191,50 118,57.659284 118,67.1114659 L118.000015,69.8169961 C120.672964,68.4450571 123.735277,67.6648389 127,67.6648389 C137.557538,67.6648389 146,75.8256978 146,85.7707832 L146,113.434564 C146,113.882952 145.98282,114.329757 145.948604,114.774323 C144.657423,147.303406 118.805157,170 85,170 C51.1955252,170 25.3436117,147.304475 24.0514748,114.776303 C24.0172063,114.33187 24,113.885229 24,113.437036 L24,65.1034725 C24,55.1595294 32.4416513,47 43,47 C46.2646321,47 49.3275172,47.7813694 52.0011119,49.1548007 L52,17.4138796 C52,7.79582133 60.5055859,0 71,0 Z M62,91.0150979 L52,91.0150979 L52,65.1034725 C52,60.1067898 47.9028579,56.1449814 43,56.1449814 C38.0921499,56.1449814 34,60.1003708 34,65.1034725 L34,113.437036 C34,113.687537 34.0102882,113.936392 34.0307209,114.18328 C35.1018951,142.010996 56.541463,160.855019 85,160.855019 C113.45902,160.855019 134.898862,142.010193 135.958148,114.366624 C135.989712,113.935018 136,113.685639 136,113.434564 L136,85.7707832 C136,80.7664111 131.906881,76.8098203 127,76.8098203 C122.092366,76.8098203 118,80.7661413 118,85.7707832 L118,91.0150979 L108,91.0150979 L108,67.1114659 C108,62.6300511 103.971377,59.0019434 99,59.0019434 C94.0291087,59.0019434 90,62.6314658 90,67.1114659 L90,88 L80,88 L80,17.4138796 C80,12.8626159 75.9682184,9.16642431 71,9.16642431 C66.0282153,9.16642431 62,12.8584976 62,17.4138796 L62,91.0150979 Z" id="Combined-Shape" fill="#3B3B3C" fill-rule="nonzero"></path>
    </g>
</svg>