<?xml version="1.0" encoding="UTF-8"?>
<svg width="180px" height="180px" viewBox="0 0 180 180" version="1.1" xmlns="http://www.w3.org/2000/svg" xmlns:xlink="http://www.w3.org/1999/xlink">
    <!-- Generator: Sketch 61.2 (89653) - https://sketch.com -->
    <title>chomp</title>
    <desc>Created with Sketch.</desc>
    <g id="chomp" stroke="none" stroke-width="1" fill="none" fill-rule="evenodd">
        <g id="Group">
            <rect id="Rectangle" x="0" y="0" width="180" height="180"></rect>
            <path d="M156.779046,50.6440589 C159.160315,50.8352827 160.483488,52.934298 159.83626,55.3179256 C153.904072,77.3931628 153.904072,99.4672883 159.83626,121.543637 C160.483488,123.926153 159.160315,126.025168 156.779046,126.216392 C136.276957,127.83991 115.774868,128.715767 95.2727797,128.843965 L91.0524401,133.064887 C90.4710643,133.645038 89.5286098,133.645038 88.9472341,133.064887 L84.7285912,128.843978 C64.2258359,128.715824 43.7230805,127.839963 23.2203252,126.216392 C20.839056,126.025168 19.5158832,123.926153 20.1642157,121.543637 C26.0952991,99.4672883 26.0952991,77.3931628 20.1642157,55.3179256 C19.5158832,52.934298 20.839056,50.8352827 23.2203252,50.6440589 C67.7398987,47.118647 112.259472,47.118647 156.779046,50.6440589 Z M86.9587669,70.960375 L86.8940788,70.960375 L86.5159448,70.9663589 C84.1462955,71.0337245 82.2562764,71.6606574 80.8936996,72.8291233 C79.294342,74.2007934 78.5850035,76.2333893 78.7824138,78.8715571 C79.3891436,86.9554434 79.3891436,90.9032849 78.7824138,98.9871712 C78.5850035,101.625339 79.294342,103.659042 80.8936996,105.029605 C82.2562764,106.198071 84.1462955,106.825004 86.5159448,106.892369 L86.8940788,106.898353 L86.9587669,106.898353 L87.3411586,106.893772 C89.7382502,106.835751 91.6647706,106.226855 93.072908,105.079424 C94.7759896,103.694468 95.6024358,101.666301 95.5277099,99.0513817 C95.295725,90.9154628 95.295725,86.9432655 95.5277099,78.8073465 C95.6013205,76.1924274 94.7759896,74.1631528 93.072908,72.7793048 C91.5895428,71.5714823 89.5329073,70.960375 86.9587669,70.960375 Z M99.0004573,71.4251265 L98.9480376,71.926633 L98.8171125,73.2644676 C97.8551763,83.5432983 97.8551763,94.3160943 98.8171125,104.594925 L98.9480376,105.93276 L98.999342,106.434266 L102.263861,106.399947 L102.193596,105.792161 L102.093726,104.9119 C101.055431,95.6516876 100.878947,90.4481549 101.388341,81.7364545 C103.66141,88.504246 105.13985,92.8012736 109.192531,100.057099 L109.556886,100.705135 L109.719722,100.992976 L111.633598,100.960871 L111.739552,100.552359 L111.909499,99.8949249 C113.814493,92.5400926 115.033834,88.3988206 118.700215,82.0364728 C117.305431,90.5274195 117.858764,95.8579193 120.829385,104.976298 L121.035679,105.603957 L121.16617,105.99697 L124.514337,105.888476 L124.219895,105.155591 L124.014188,104.630803 C120.447329,95.2947144 120.447329,82.5646584 124.014188,73.2275418 L124.219895,72.702695 L124.514337,71.9698091 L122.283713,71.8967419 L122.109724,72.1159434 L121.692558,72.6407139 C114.702448,81.4838658 112.860613,86.405515 110.082199,95.6347165 C106.487548,88.5416653 105.028719,83.9118635 103.051271,77.6347291 C102.553594,76.0572654 102.023311,74.3748343 101.418907,72.5236778 L101.1887,71.8214606 L101.063785,71.4428398 L99.0004573,71.4251265 Z M74.5514772,71.5211102 L71.2802668,71.5808924 L71.4085277,72.2274262 L71.5412269,72.9072717 C72.6164107,78.4679943 72.9327733,81.4807705 73.0346527,87.0810968 C69.0931397,87.0866322 66.8725533,87.0910605 62.9254637,87.1021313 C62.7544624,81.5434512 62.1976713,78.4131574 60.3900632,72.8820142 L60.1840265,72.2573173 L60.0524197,71.8654116 L56.7042527,71.9750123 L56.9998104,72.7067911 L57.2062939,73.231515 C60.7866165,82.5664222 60.7866165,95.2923061 57.2062939,104.627213 L56.9998104,105.151937 L56.7042527,105.883716 L60.0524197,105.994424 L60.1840265,105.601411 L60.3937344,104.96557 C62.2343057,99.3326751 62.8209625,96.0643085 62.9367972,90.5734407 L62.9477699,89.9539652 L73.0491518,89.9628218 L73.0419924,90.6342496 C72.9718721,96.1411678 72.6355307,99.2943229 71.5385108,104.966474 L71.4085277,105.632409 L71.2802668,106.278943 L74.5514772,106.337618 L74.6407022,105.881502 L74.81167,104.966724 C76.6370026,94.8507777 76.6370026,83.0079506 74.81167,72.8920046 L74.6407022,71.9772265 L74.5514772,71.5211102 Z M44.4580141,72.0546113 C41.87049,72.1786041 40.0614537,72.8771705 39.0788637,74.1281691 C37.7393739,75.836391 38.3940621,78.223252 39.0030225,79.8705846 C41.6965013,87.150732 41.6965013,90.7077748 39.0030225,97.9890293 C38.3940621,99.636362 37.7393739,102.023223 39.0788637,103.731445 C40.0614537,104.983551 41.87049,105.68101 44.4580141,105.803896 C44.722343,105.817181 44.9833261,105.822716 45.2420785,105.822716 C47.5106233,105.822716 49.5482986,105.338923 51.3071458,104.3813 C53.5756907,103.144693 55.0356342,101.257125 55.6445946,98.7717337 C56.0678556,97.0424773 56.2568235,96.0769589 56.4692208,94.472434 L56.5279218,94.0179392 L56.6059937,93.4046178 L53.5221557,93.3636559 L53.4563523,93.8496633 L53.3954219,94.2937529 C53.175797,95.8576498 52.9891294,96.7570356 52.5484882,98.4517881 C52.1157471,100.111299 51.2045371,101.345691 49.8393951,102.118432 C48.6482417,102.791535 47.1314172,103.094875 45.3458025,103.015165 C43.6728343,102.944312 42.5129097,102.560156 41.992059,101.90698 C41.4544785,101.233876 41.4801307,100.098014 42.0679002,98.4318607 C44.7301502,90.8826932 44.7301502,86.9758136 42.0679002,79.4277533 C41.4801307,77.7638145 41.4555938,76.626845 41.992059,75.9537413 C42.5129097,75.3005651 43.6728343,74.9153018 45.3458025,74.8433417 C47.1347632,74.7592038 48.649357,75.0658645 49.8393951,75.7433964 C51.2056524,76.5172442 52.1168624,77.7494224 52.5484882,79.4067188 C52.838965,80.5275741 52.9778696,81.1393374 53.1602484,82.1517264 L53.2310592,82.5519284 L53.3135923,83.0191155 L56.4130447,82.9670828 L56.3093207,82.3360482 L56.2411046,81.9271399 C56.0647231,80.8891651 55.9251576,80.2343214 55.6445946,79.0878802 C55.0356342,76.6024892 53.5756907,74.7149206 51.3071458,73.4783141 C49.3475424,72.4110905 47.0399616,71.9272973 44.4580141,72.0546113 Z M127.970243,72.0957946 L127.815215,72.4312393 L127.592384,72.9210008 C123.43159,82.2955692 123.43159,95.5633805 127.592384,104.937949 L127.815215,105.42771 L127.970243,105.763155 L131.291643,105.631413 L130.969318,104.891884 L130.735211,104.349886 C128.604524,99.3786778 127.902266,96.6217036 127.598648,91.8252279 L127.5665,91.283677 L132.569791,91.2571071 L132.953714,91.2496391 C135.103446,91.1785627 136.815784,90.6180769 138.180926,89.5411357 C139.699981,88.3421698 140.635728,86.6206629 141.127581,84.1230941 C141.432061,82.5720773 141.640624,81.8148357 142.190473,80.2604976 C143.105029,77.6787908 143.03811,75.8565398 141.979679,74.5247246 C140.989282,73.2759401 139.180246,72.581802 136.60499,72.4611305 C133.520631,72.3164722 131.875154,72.2460719 128.98174,72.1347172 L128.341642,72.1101866 L127.970243,72.0957946 Z M87.0078406,73.8620274 C88.7053457,73.8620274 90.0269906,74.2273633 90.9393159,74.9480713 C91.933059,75.735204 92.4237963,77.0238433 92.3970288,78.7796696 C92.2743445,86.9377301 92.2743445,90.9209981 92.3970288,99.0790587 C92.4237963,100.830457 91.9442121,102.086991 90.9315087,102.918407 C90.0526427,103.639115 88.6997691,103.996701 86.9665741,103.996701 C85.2991825,103.991165 83.9786529,103.611438 83.1466301,102.897372 C82.2198057,102.101383 81.802679,100.816065 81.9108643,99.0757375 C82.4127547,90.9209981 82.4127547,86.9377301 81.9108643,78.7829908 C81.8004484,76.9895238 82.2019607,75.7429536 83.1388229,74.9702129 C83.9622207,74.2882526 85.1392665,73.9197185 86.6400365,73.868211 L86.9665741,73.8620274 L87.0078406,73.8620274 Z M34.3239536,92.1003687 C33.2554845,93.1609498 32.7759003,94.406413 33.2543692,94.8813496 C33.7317228,95.3551792 34.986449,94.8802425 36.0560333,93.8196615 C37.1256176,92.7579733 37.6040865,91.5125101 37.1267329,91.0375735 C36.648264,90.5626369 35.3935379,91.0386806 34.3239536,92.1003687 Z M142.87494,91.0375735 C142.396471,91.5125101 142.876055,92.7579733 143.944524,93.8196615 C145.014109,94.8802425 146.268835,95.3551792 146.747304,94.8813496 C147.225773,94.406413 146.746188,93.1609498 145.676604,92.1003687 C144.60702,91.0386806 143.353409,90.5626369 142.87494,91.0375735 Z M32.7392066,88.355344 C31.2268433,88.355344 30,88.8989195 30,89.5709161 C30,90.2418056 31.2268433,90.785381 32.7392066,90.785381 C34.2504545,90.785381 35.4772978,90.2418056 35.4772978,89.5709161 C35.4772978,88.8989195 34.2504545,88.355344 32.7392066,88.355344 Z M147.261909,88.355344 C145.749546,88.355344 144.523817,88.8989195 144.523817,89.5709161 C144.523817,90.2418056 145.749546,90.785381 147.261909,90.785381 C148.774272,90.785381 150,90.2418056 150,89.5709161 C150,88.8989195 148.774272,88.355344 147.261909,88.355344 Z M130.129488,75.0262311 C132.276464,75.1059407 133.474309,75.1535451 135.741738,75.2498609 C137.379017,75.3184997 138.541172,75.7059772 139.10552,76.36801 C139.67879,77.0422208 139.686597,78.1769761 139.125595,79.8353795 C138.584669,81.4406432 138.366068,82.272059 138.064933,83.8784298 C137.741493,85.605472 137.148147,86.7424415 136.199016,87.4565071 C135.369373,88.0826706 134.233688,88.4195176 132.822792,88.4625477 L132.516256,88.4672696 L127.494005,88.4683767 L127.498254,87.9305777 C127.556403,82.9894866 128.142694,80.1890338 130.129488,75.0262311 Z M33.2541462,84.4340724 C32.7756773,84.909009 33.2552615,86.1544722 34.3237305,87.2150533 C35.3933148,88.2767414 36.648041,88.7516781 37.1265099,88.2778485 C37.6049788,87.8029119 37.1253945,86.5574487 36.0558102,85.4968676 C34.9873412,84.4351795 33.7326151,83.9591358 33.2541462,84.4340724 Z M143.944747,85.4968676 C142.876278,86.5574487 142.396694,87.8029119 142.875163,88.2778485 C143.352517,88.7516781 144.607243,88.2767414 145.676827,87.2150533 C146.746411,86.1544722 147.22488,84.909009 146.747527,84.4340724 C146.269058,83.9591358 145.014332,84.4351795 143.944747,85.4968676 Z" id="Combined-Shape" fill="#3B3B3C"></path>
        </g>
    </g>
</svg>