<?xml version="1.0" encoding="UTF-8"?>
<svg width="180px" height="181px" viewBox="0 0 180 181" version="1.1" xmlns="http://www.w3.org/2000/svg" xmlns:xlink="http://www.w3.org/1999/xlink">
    <!-- Generator: Sketch 61.2 (89653) - https://sketch.com -->
    <title>mmmm</title>
    <desc>Created with Sketch.</desc>
    <g id="mmmm" stroke="none" stroke-width="1" fill="none" fill-rule="evenodd" transform="translate(0.000000, 0.000000)">
        <g id="Group">
            <rect id="Rectangle" x="0" y="0" width="180" height="180"></rect>
            <path d="M155.251008,47 C157.873458,47 160,49.1119481 160,51.7178979 L160,124.020563 C160,126.627727 157.873458,128.739675 155.251008,128.739675 L94.876,128.739 L91.0520369,132.563933 C90.4706138,133.145356 89.5280826,133.145356 88.9466594,132.563933 L85.123,128.739 L24.7477709,128.739675 C22.1253206,128.739675 20,126.627727 20,124.020563 L20,51.7178979 C20,49.1119481 22.1253206,47 24.7477709,47 L155.251008,47 Z M124.638154,72.1968312 C123.521856,77.4295133 122.772473,80.9547267 121.90802,85.045114 C121.428935,86.2532368 120.94985,87.1539089 120.470765,87.7506534 C119.988999,88.3504365 119.348633,88.6764056 118.547281,88.7415994 C117.959384,88.7901985 117.54559,88.6835177 117.304708,88.4156303 C117.065017,88.1453723 116.944576,87.745912 116.944576,87.2148788 C116.944576,86.7632634 117.030435,86.1385881 117.204539,85.3372969 C117.378642,84.5383763 117.57421,83.7157488 117.786473,82.8741559 C118.13468,81.492047 118.399412,80.3185583 118.587825,79.3596166 C118.773853,78.4018601 118.86806,77.5389311 118.86806,76.7672733 C118.86806,75.2547768 118.467384,74.1547793 117.666032,73.4862464 C116.864679,72.8153427 115.783092,72.5545675 114.420078,72.7276274 C112.177007,73.0144802 110.320302,74.4558562 108.851157,76.9747082 C108.45048,74.7640452 107.074349,73.8619998 104.723954,74.3515461 C102.826705,74.746265 101.198958,75.8758961 99.8359434,77.7060643 C100.012432,76.8372085 100.100676,76.402188 100.277164,75.5321469 C97.9685064,76.0691068 96.8141775,76.3535889 94.5067122,76.9308506 C93.3908318,82.4402322 92.6421065,86.1427297 91.7778721,90.4144151 C91.2987928,91.7253054 90.8197136,92.7263819 90.3406343,93.4164702 C89.858869,94.1098953 89.2185027,94.5579547 88.4171504,94.7618335 C87.8292535,94.9111866 87.41546,94.8696996 87.1745773,94.6397433 C86.9348871,94.4062309 86.8144458,94.0269214 86.8144458,93.4958881 C86.8144458,93.0442728 86.900305,92.4053734 87.0744083,91.5780046 C87.2485116,90.7506358 87.4440797,89.8983748 87.6563427,89.0212216 C88.0045493,87.5834016 88.2692818,86.3624993 88.457695,85.3727386 C88.6437232,84.3841633 88.7379298,83.5034541 88.7379298,82.7329817 C88.7379298,81.2192998 88.3372536,80.1927935 87.5359014,79.6522775 C86.7345491,79.1117615 85.652962,79.0133781 84.2899476,79.3500153 C82.0468767,79.9059407 80.1901721,81.4741484 78.7210263,84.0653062 C78.3203501,81.8724233 76.9442184,81.0533519 74.5938235,81.5322301 C72.6965743,81.919837 71.0688275,82.9736061 69.7058131,84.7136884 C69.8823014,83.8555007 69.9705455,83.4275922 70.1470338,82.5682191 C67.8383761,82.9617527 66.6852397,83.1348127 64.3765819,83.4003293 C63.2626858,88.7537105 62.5141279,92.3433714 61.6506292,96.46073 C61.1705874,97.6937925 60.6905457,98.6110679 60.210504,99.2125561 C59.7287387,99.8170806 59.0883723,100.139494 58.2870201,100.173869 C57.6991232,100.197575 57.2853297,100.062446 57.044447,99.7767789 C56.8047568,99.4899262 56.6843155,99.0809831 56.6843155,98.5499499 C56.6843155,98.0983345 56.7701747,97.4784006 56.944278,96.6913334 C57.1183813,95.9054516 57.3139494,95.0958629 57.5262124,94.2661234 C57.874419,92.9053507 58.1391515,91.7425301 58.3275647,90.793071 C58.5135929,89.843612 58.6077995,88.9818683 58.6077995,88.2113959 C58.6077995,86.6988994 58.2071233,85.5906045 57.405771,84.8722871 C56.6044188,84.1515991 55.5228317,83.7995525 54.1598173,83.7746603 C51.9167464,83.7355441 50.0600418,84.7181927 48.5908959,86.8126922 C48.1902198,84.4858656 46.8140881,83.2187349 44.4636932,82.7837143 C42.566444,82.4316677 40.9386971,82.7837143 39.5756828,83.908604 C39.7521711,83.1310196 39.8404152,82.7422274 40.0169035,81.9622722 C37.7082458,81.3257435 36.5551094,80.9405073 34.2464516,80.0076431 C32.548348,87.2856437 31.6992961,90.883157 30,97.9833563 C32.3074653,99.1580304 33.4617942,99.6582447 35.7692594,100.50932 C36.8591939,95.7975855 37.4041612,93.4245305 38.4940957,88.6476018 C38.8148751,87.6305783 39.2489409,86.8648472 39.7962931,86.340926 C40.3436454,85.8158195 40.9911666,85.6510569 41.7388569,85.8300436 C42.5402092,86.0208837 42.9408854,86.6882313 42.9408854,87.8557933 C42.9408854,88.2007278 42.9015332,88.5243262 42.8216365,88.8254031 C41.6518053,94.0658006 41.0662934,96.6711826 39.8964622,101.841645 C42.2039275,102.482915 43.3582563,102.729466 45.6657216,103.104034 C46.7556561,98.1670844 47.3006234,95.6861633 48.3905579,90.6946876 C48.7113373,89.6409185 49.1382482,88.8052523 49.672483,88.1758356 C50.2067179,87.546419 50.8208495,87.2560101 51.5160703,87.2974971 C52.477216,87.3543935 52.9577889,88.0430773 52.9577889,89.3979234 C52.9577889,89.9562195 52.8647748,90.6828342 52.6775541,91.5777675 C52.4903334,92.4727008 52.2899953,93.3794875 52.0765399,94.2981277 C52.0228779,94.4818557 51.9227089,94.9014668 51.7760328,95.5557757 C51.6293567,96.2124552 51.488643,96.8881002 51.3550843,97.5827107 C51.2215256,98.2785065 51.1547463,98.9043671 51.1547463,99.4626633 C51.1547463,100.736906 51.5351501,101.834533 52.2971503,102.731837 C53.0579579,103.631512 54.2540239,104.108019 55.8829632,104.09498 C57.2710198,104.085498 58.6137619,103.535499 59.9099969,102.459208 C60.1154045,102.288309 60.316972,102.092719 60.5150771,101.869373 C60.3914448,102.457275 60.2634025,103.06595 60.1301303,103.699313 C62.4375956,103.548775 63.5919245,103.429055 65.8993897,103.125608 C66.9893242,97.8686152 67.5342915,95.2335997 68.624226,89.9481592 C68.9450054,88.7805972 69.3790712,87.8157287 69.9264235,87.0452563 C70.4737757,86.2759693 71.121297,85.8255393 71.8689872,85.6868543 C72.6703395,85.5386865 73.0710157,86.0448276 73.0710157,87.2123896 C73.0710157,87.5573241 73.0316636,87.896332 72.9517668,88.2305984 C71.7819356,93.9522448 71.1964237,96.807734 70.0265925,102.502118 C72.3340578,102.109769 73.4883867,101.883369 75.7958519,101.395008 C76.8857864,96.0503004 77.4307537,93.3737979 78.5206882,88.0136808 C78.8414676,86.8508602 79.2683785,85.8717676 79.8026133,85.0704764 C80.3368482,84.2703704 80.9509798,83.7855655 81.6462006,83.6196176 C82.6073463,83.3896612 83.0879192,83.946772 83.0879192,85.3016181 C83.0879192,85.8587289 82.9949051,86.6126064 82.8076844,87.5596948 C82.6204637,88.5091538 82.4201256,89.4740223 82.2066702,90.4531149 C82.1530082,90.6522524 82.0528392,91.1014971 81.9061631,91.8008489 C81.759487,92.5002008 81.6187733,93.2185181 81.4852146,93.9534302 C81.3516559,94.6895276 81.2848766,95.3355391 81.2848766,95.8926499 C81.2848766,97.168078 81.6652804,98.1471706 82.4272806,98.824001 C83.1880882,99.503202 84.3841542,99.6407017 86.0130935,99.232944 C87.4011502,98.8844534 88.7438922,98.0452312 90.0401272,96.7200187 C90.2452245,96.5099557 90.4464933,96.2767925 90.6447633,96.0171656 C90.5212751,96.6274846 90.3933805,97.2595295 90.2602606,97.9173328 C92.5677259,97.3305884 93.7220548,97.0354382 96.0295201,96.466474 C97.1194546,91.0838355 97.6644218,88.3942942 98.7543563,83.0211384 C99.0751357,81.8286842 99.5092015,80.8294408 100.056554,80.0245935 C100.603906,79.2209315 101.251427,78.7337559 101.999118,78.5654373 C102.80047,78.3864507 103.201146,78.8854797 103.201146,80.0530417 C103.201146,80.3979763 103.161794,80.7393548 103.081897,81.0748066 C101.912066,86.8260866 101.326554,89.7052826 100.156723,95.4743427 C102.464188,94.938568 103.617324,94.6813488 105.925982,94.21788 C107.015917,88.8862112 107.560884,86.2251181 108.650818,80.9136001 C108.971598,79.7673742 109.398509,78.8084325 109.932744,78.0415161 C110.466979,77.2722291 111.08111,76.8324672 111.776331,76.7257864 C112.737477,76.5776186 113.21805,77.1904405 113.21805,78.5441012 C113.21805,79.1023973 113.125035,79.8467922 112.937815,80.774915 C112.750594,81.7042233 112.550256,82.6501263 112.3368,83.6102534 C112.283139,83.8046495 112.182969,84.2444114 112.036293,84.9295392 C111.889617,85.6158523 111.748904,86.3223162 111.615345,87.0453749 C111.481786,87.7708042 111.415007,88.4120743 111.415007,88.9691851 C111.415007,90.2446132 111.795411,91.2497833 112.557411,92.0012903 C113.318219,92.7539825 114.514285,93.0135724 116.143224,92.8345858 C117.53128,92.682862 118.874023,92.0700401 120.170258,90.9949348 C120.375971,90.824158 120.577832,90.6301721 120.775541,90.4092351 C120.651882,90.9958496 120.523812,91.6035569 120.39051,92.2362251 C122.697975,92.1010961 123.852304,92.0738332 126.160962,92.1259882 C127.250897,87.0373145 127.794671,84.5054238 128.884606,79.4629784 C129.205385,78.3689076 129.639451,77.5024225 130.186803,76.8741912 C130.734156,76.2459599 131.381677,75.9709605 132.13056,76.0634172 C132.931912,76.1606152 133.332588,76.8066267 133.332588,77.975374 C133.332588,78.3203086 133.292043,78.6462777 133.212147,78.9532813 C132.042315,84.2837648 131.456804,86.9650087 130.286972,92.35713 C132.594438,92.5621941 133.748767,92.72103 136.056232,93.17146 C137.146166,88.2700703 137.691134,85.8353776 138.781068,80.9944404 C139.101847,79.9845289 139.528758,79.2116859 140.064186,78.6830233 C140.597228,78.1531753 141.212552,77.9931542 141.90658,78.2136278 C142.867726,78.5182607 143.349492,79.3705217 143.349492,80.7241824 C143.349492,81.2824785 143.255285,81.980645 143.069257,82.8186819 C142.880844,83.6567188 142.681698,84.5066091 142.46705,85.3636115 C142.413388,85.5331154 142.313219,85.9254636 142.166543,86.5406562 C142.019867,87.1582194 141.880346,87.7971188 141.746787,88.4585397 C141.613228,89.1199606 141.546449,89.7304118 141.546449,90.288708 C141.546449,91.5890283 141.866036,92.7601463 142.507595,93.8210275 C143.149153,94.883094 144.177079,95.6535664 145.592562,96.2213453 C146.740929,96.681258 147.722347,96.7760854 148.536817,96.4702671 C149.351286,96.1656342 149.839014,95.3927911 150,94.120919 C149.76031,94.1576646 149.319089,94.0142382 148.67753,93.70842 C148.090826,93.4298646 147.67584,93.0991541 147.43615,92.7008792 C147.195267,92.3002335 147.076018,91.8379501 147.076018,91.3057315 C147.076018,90.8541162 147.161877,90.2756692 147.335981,89.56802 C147.508891,88.8627414 147.70446,88.1444241 147.916723,87.4213654 C148.266122,86.2289112 148.530854,85.2024049 148.718075,84.3501439 C148.904103,83.4966976 148.99831,82.6847383 148.99831,81.9142659 C148.99831,80.4017693 148.597634,79.0741862 147.796281,77.9670766 C146.994929,76.8599671 145.912149,76.0171889 144.55152,75.5051211 C142.307257,74.6599721 140.450552,75.2585699 138.981406,77.1408932 C138.581922,74.7559848 137.204598,73.2434883 134.855396,72.8381013 C132.958147,72.5109469 131.329207,73.0882085 129.966193,74.4857268 C130.142681,73.6725821 130.230925,73.2660098 130.407414,72.4540504 C128.098756,72.2418742 126.94562,72.1968312 124.638154,72.1968312 Z" id="Combined-Shape" fill="#3B3B3C"></path>
        </g>
    </g>
</svg>