<?xml version="1.0" encoding="UTF-8"?>
<svg width="180px" height="180px" viewBox="0 0 180 180" version="1.1" xmlns="http://www.w3.org/2000/svg" xmlns:xlink="http://www.w3.org/1999/xlink">
    <!-- Generator: Sketch 61.2 (89653) - https://sketch.com -->
    <title>like</title>
    <desc>Created with Sketch.</desc>
    <g id="like" stroke="none" stroke-width="1" fill="none" fill-rule="evenodd">
        <g id="Group">
            <rect id="Rectangle" x="0" y="0" width="180" height="180"></rect>
            <path d="M117.964718,59 C119.088625,59 120,60.5563289 120,62.47759 L120,115.757704 C120,117.678965 119.088625,119.235294 117.964718,119.235294 L94.278,119.235 L90.8766974,122.636611 C90.3921782,123.12113 89.6067355,123.12113 89.1222162,122.636611 L85.721,119.235 L62.0347589,119.235294 C60.9108517,119.235294 60,117.678965 60,115.757704 L60,62.47759 C60,60.5563289 60.9108517,59 62.0347589,59 L117.964718,59 Z M96.6541293,75.5647059 C94.5795003,75.5544932 93.0479968,76.3369475 92.5889593,76.5884782 C91.2957816,77.2968895 90.4647046,78.2018765 90.0001532,78.7989924 C89.5352954,78.2018765 88.7043716,77.2968895 87.4110407,76.5884782 C86.95185,76.3367936 85.4204997,75.5544932 83.3461771,75.5647059 C82.6534087,75.5681935 82.098949,75.6593233 81.7765353,75.7236684 C78.9166259,76.2939995 76.9775486,78.0858091 75.911056,80.7198 C74.2723366,84.7673809 74.9052171,88.6223885 77.320027,92.1966176 C78.4332351,93.8440357 79.872686,95.209136 81.4895028,96.333789 C84.2310151,98.2402805 89.9332198,101.91934 90.0001532,101.917647 C90.0669334,101.91934 95.769138,98.2402805 98.5104972,96.333789 C100.127467,95.209136 101.566765,93.8440357 102.679973,92.1966176 C105.094783,88.6223885 105.727663,84.7673809 104.088944,80.7198 C103.022451,78.0858091 101.083374,76.2939995 98.2234647,75.7236684 C97.9012041,75.6593233 97.3467444,75.5681935 96.6541293,75.5647059 Z" id="Combined-Shape" fill="#3B3B3C"></path>
        </g>
    </g>
</svg>