<?xml version="1.0" encoding="UTF-8"?>
<svg width="180px" height="180px" viewBox="0 0 180 180" version="1.1" xmlns="http://www.w3.org/2000/svg" xmlns:xlink="http://www.w3.org/1999/xlink">
    <!-- Generator: Sketch 61.2 (89653) - https://sketch.com -->
    <title>yasss</title>
    <desc>Created with Sketch.</desc>
    <g id="yasss" stroke="none" stroke-width="1" fill="none" fill-rule="evenodd">
        <g id="Group">
            <rect id="Rectangle" x="0" y="0" width="180" height="180"></rect>
            <path d="M157.358491,53 C158.817356,53 160,54.1826441 160,55.6415094 L160,122.997579 C160,124.456445 158.817356,125.639089 157.358491,125.639089 L94.143382,125.639617 L91.2326346,128.493631 C90.5478958,129.164735 89.4521042,129.164735 88.7673654,128.493631 L85.8957508,125.679198 L85.858,125.639 L22.6415094,125.639089 C21.1826441,125.639089 20,124.456445 20,122.997579 L20,55.6415094 C20,54.1826441 21.1826441,53 22.6415094,53 L157.358491,53 Z M157,56 L23,56 L23,122.639 L87.1561662,122.638998 L88.024,123.564 L90,125.501 L91.9867479,123.554273 L92.8630965,122.639627 L157,122.639 L157,56 Z M86.9911171,69.6937378 C88.8444147,69.6937378 90.2343879,70.1999307 91.1610367,71.2136314 C92.2506502,72.2915593 92.8245049,73.9544786 92.8791663,76.2023893 L92.8834819,76.562184 L92.8845219,78.1440618 C92.7915106,77.1173787 92.5035112,76.3975575 92.0205235,75.9845982 C91.5411764,75.5125897 90.7226811,75.2772429 89.566373,75.2772429 C88.4474512,75.2772429 87.6289559,75.5125897 87.1122224,75.9845982 C86.5127046,76.5354938 86.2122781,77.5163248 86.2122781,78.9310354 L86.2122781,79.9342177 C86.2122781,81.7420495 86.9506597,83.2948127 88.428758,84.5911925 C88.8266562,84.9054266 89.6050946,85.3787498 90.762738,86.0059031 C92.8376836,87.1063796 94.2743898,88.010953 95.0741919,88.7183083 C98.0263828,91.3110678 99.5031459,94.4941666 99.5031459,98.2662899 L99.5031459,100.861679 C99.5031459,104.123665 98.50573,106.698018 96.5108981,108.583422 C94.753737,110.19535 92.4397854,111 89.566373,111 C89.2378637,111 88.916632,110.989483 88.602686,110.968444 C90.2035387,110.707766 91.5369819,110.040118 92.6057543,108.96379 C94.0964817,107.450525 94.8735153,105.246568 94.9356801,102.354233 L94.9397343,101.973068 L94.9397343,98.9937615 C94.9397343,95.6200186 92.4388507,92.2830897 87.4357483,89.8901777 C86.5464859,89.4852234 85.6759167,89.0000671 84.8227055,88.433394 C83.9694943,87.8640913 83.1269649,86.9121856 82.2937821,85.5750475 C81.4901722,84.2861668 81.0753428,80.2041019 81.045717,78.0215035 L81.0440079,77.7783618 L81.0440079,76.562184 C81.0440079,74.1719016 81.6181563,72.3890507 82.7664531,71.2136314 C83.7304883,70.1999307 85.1378195,69.6937378 86.9911171,69.6937378 Z M109.729129,69.6937378 C111.583762,69.6937378 112.9724,70.1999307 113.899049,71.2136314 C114.988663,72.2915593 115.563722,73.9544786 115.618504,76.2023893 L115.622829,76.562184 L115.623288,78.0451798 C115.52106,77.0710306 115.236281,76.3841701 114.768951,75.9845982 C114.289603,75.5125897 113.471108,75.2772429 112.3148,75.2772429 C111.195878,75.2772429 110.377383,75.5125897 109.860649,75.9845982 C109.261132,76.5354938 108.960705,77.5163248 108.960705,78.9310354 L108.960705,79.9342177 C108.960705,81.7420495 109.699087,83.2948127 111.177185,84.5911925 C111.575083,84.9054266 112.353522,85.3787498 113.511165,86.0059031 C115.586111,87.1063796 117.022817,88.010953 117.822619,88.7183083 C120.77481,91.3110678 122.251573,94.4941666 122.251573,98.2662899 L122.251573,100.861679 C122.251573,104.123665 121.254157,106.698018 119.259325,108.583422 C117.502164,110.19535 115.188212,111 112.3148,111 C111.984203,111 111.660976,110.989349 111.345128,110.968042 C112.944462,110.706937 114.276669,110.03945 115.343767,108.96379 C116.835774,107.450525 117.612861,105.246568 117.675027,102.354233 L117.679082,101.973068 L117.679082,98.9937615 C117.679082,95.6200186 115.178198,92.2830897 110.173761,89.8901777 C109.284498,89.4852234 108.413929,89.0000671 107.562053,88.433394 C106.708842,87.8640913 105.866312,86.9121856 105.031794,85.5750475 C104.22947,84.2861668 103.81345,80.2041019 103.783735,78.0215035 L103.78202,77.7783618 L103.78202,76.562184 C103.78202,74.1719016 104.356169,72.3890507 105.505801,71.2136314 C106.468501,70.1999307 107.877167,69.6937378 109.729129,69.6937378 Z M132.493179,69.6937378 C134.347811,69.6937378 135.736449,70.1999307 136.663098,71.2136314 C137.752712,72.2915593 138.327771,73.9544786 138.382553,76.2023893 L138.386879,76.562184 L138.38669,78.2056283 C138.299733,77.1461067 138.009963,76.4057633 137.517378,75.9845982 C137.038031,75.5125897 136.219535,75.2772429 135.063227,75.2772429 C133.944305,75.2772429 133.12581,75.5125897 132.609076,75.9845982 C132.009559,76.5354938 131.709132,77.5163248 131.709132,78.9310354 L131.709132,79.9342177 C131.709132,81.7420495 132.447514,83.2948127 133.925612,84.5911925 C134.32351,84.9054266 135.101949,85.3787498 136.259592,86.0059031 C138.334538,87.1063796 139.771244,88.010953 140.571046,88.7183083 C143.523237,91.3110678 145,94.4941666 145,98.2662899 L145,100.861679 C145,104.123665 144.002584,106.698018 142.007752,108.583422 C140.250591,110.19535 137.93664,111 135.063227,111 C134.736458,111 134.416889,110.989594 134.104529,110.968777 C135.706306,110.708042 137.039835,110.04034 138.107816,108.96379 C139.599823,107.450525 140.37691,105.246568 140.439077,102.354233 L140.443131,101.973068 L140.443131,98.9937615 C140.443131,95.6200186 137.942247,92.2830897 132.93781,89.8901777 C132.048547,89.4852234 131.177978,89.0000671 130.326102,88.433394 C129.472891,87.8640913 128.630362,86.9121856 127.795844,85.5750475 C126.993519,84.2861668 126.5775,80.2041019 126.547784,78.0215035 L126.546069,77.7783618 L126.546069,76.562184 C126.546069,74.1719016 127.120218,72.3890507 128.26985,71.2136314 C129.23255,70.1999307 130.641216,69.6937378 132.493179,69.6937378 Z M68.3461153,99.3595351 L69.2859612,103.985191 L61.9085766,103.985744 L60.7108763,110.529438 L55.1069612,110.529191 L57.3758753,99.3595351 L68.3461153,99.3595351 Z M68.971937,69.2648544 L77.3545036,110.529438 L72.7739612,110.529191 L64.1759612,69.2641907 L68.971937,69.2648544 Z M56.2203682,69.2648544 L48.0808133,96.0273395 L48.0808133,110.529438 L43.11,110.528852 L43.1105575,96.0159009 L51.335,69.2648523 L56.2203682,69.2648544 Z M81.0433509,95.4963848 L86.2122781,95.4973489 L86.2122781,100.861679 C86.2122781,102.275075 86.5127046,103.258535 87.1122224,103.808116 C87.6289559,104.280125 88.4474512,104.515472 89.566373,104.515472 C90.7226811,104.515472 91.5411764,104.280125 92.0205235,103.808116 C92.5033514,103.397416 92.7913201,102.677487 92.8844295,101.650404 L92.8834819,101.973068 C92.8834819,104.404109 92.3079983,106.188275 91.1610367,107.322936 C90.1596151,108.335322 88.7696419,108.841515 86.9911171,108.841515 C85.1378195,108.841515 83.7304883,108.335322 82.7664531,107.322936 C81.6755712,106.206287 81.1028581,104.541432 81.048314,102.327242 L81.0440079,101.973068 L81.0433509,95.4963848 Z M108.960705,95.4973489 L108.960705,100.861679 C108.960705,102.275075 109.261132,103.258535 109.860649,103.808116 C110.377383,104.280125 111.195878,104.515472 112.3148,104.515472 C113.471108,104.515472 114.289603,104.280125 114.768951,103.808116 C115.236281,103.410599 115.52106,102.723385 115.623288,101.748356 L115.622829,101.973068 C115.622829,104.404109 115.046011,106.188275 113.899049,107.322936 C112.898963,108.335322 111.507654,108.841515 109.729129,108.841515 C107.877167,108.841515 106.468501,108.335322 105.505801,107.322936 C104.41365,106.206287 103.840874,104.541432 103.786326,102.327242 L103.78202,101.973068 L103.781893,95.497 L108.960705,95.4973489 Z M126.545942,95.4969757 L131.709132,95.4973489 L131.709132,100.861679 C131.709132,102.275075 132.009559,103.258535 132.609076,103.808116 C133.12581,104.280125 133.944305,104.515472 135.063227,104.515472 C136.219535,104.515472 137.038031,104.280125 137.517378,103.808116 C138.009963,103.389117 138.299733,102.648264 138.38669,101.587761 L138.386879,101.973068 C138.386879,104.404109 137.81006,106.188275 136.663098,107.322936 C135.663012,108.335322 134.271703,108.841515 132.493179,108.841515 C130.641216,108.841515 129.23255,108.335322 128.26985,107.322936 C127.177699,106.206287 126.604923,104.541432 126.550376,102.327242 L126.546069,101.973068 L126.545942,95.4969757 Z M62.889,72.671 L65.3239612,84.7061907 L63.1169612,97.1091907 L57.8872679,97.1099349 L62.889,72.671 Z M40.2964292,69.2648544 L44.628,83.7328523 L42.0196756,92.1859269 L35,69.2648523 L40.2964292,69.2648544 Z M91.9674842,69.0023848 C93.7586943,69.3386405 95.272971,70.0746086 96.5108981,71.2092926 C98.50573,73.0960116 99.5031459,75.6703641 99.5031459,78.9310354 L99.5031459,82.528292 L94.9393509,82.5273848 L94.9397343,76.562184 C94.9397343,73.6112546 94.2248143,71.3473949 92.7961495,69.7729193 L92.6057543,69.5714626 C92.4025663,69.3670277 92.1898123,69.1773363 91.9674842,69.0023848 Z M114.70397,69.0007947 C116.500405,69.3353788 118.018653,70.0720927 119.259325,71.2092926 C121.254157,73.0960116 122.251573,75.6703641 122.251573,78.9310354 L122.251573,82.528292 L117.678893,82.528 L117.679082,76.562184 C117.679082,73.6112546 116.964162,71.3473949 115.534322,69.7729193 L115.343767,69.5714626 C115.140156,69.3664082 114.926893,69.1761868 114.70397,69.0007947 Z M137.47105,69.0031801 C139.259465,69.340545 140.771426,70.0760762 142.007752,71.2092926 C144.002584,73.0960116 145,75.6703641 145,78.9310354 L145,82.528292 L140.442942,82.5279757 L140.443131,76.562184 C140.443131,73.6112546 139.728211,71.3473949 138.298371,69.7729193 L138.107816,69.5714626 C137.905128,69.3673374 137.692875,69.1779112 137.47105,69.0031801 Z" id="Combined-Shape" fill="#3B3B3C"></path>
        </g>
    </g>
</svg>