<?xml version="1.0" encoding="UTF-8"?>
<svg width="180px" height="181px" viewBox="0 0 180 181" version="1.1" xmlns="http://www.w3.org/2000/svg" xmlns:xlink="http://www.w3.org/1999/xlink">
    <!-- Generator: Sketch 61.2 (89653) - https://sketch.com -->
    <title>yum</title>
    <desc>Created with Sketch.</desc>
    <g id="yum" stroke="none" stroke-width="1" fill="none" fill-rule="evenodd" transform="translate(0.000000, 0.000000)">
        <g id="Group-6">
            <rect id="Rectangle" x="0" y="0" width="180" height="180"></rect>
            <path d="M157.358491,53 C158.817356,53 160,54.1826441 160,55.6415094 L160,122.997579 C160,124.456445 158.817356,125.639089 157.358491,125.639089 L94.143382,125.639617 L91.2326346,128.493631 C90.5478958,129.164735 89.4521042,129.164735 88.7673654,128.493631 L85.8957508,125.679198 L85.858,125.639 L22.6415094,125.639089 C21.1826441,125.639089 20,124.456445 20,122.997579 L20,55.6415094 C20,54.1826441 21.1826441,53 22.6415094,53 L157.358491,53 Z M157,56 L23,56 L23,122.639 L87.1561662,122.638998 L88.024,123.564 L90,125.501 L91.9867479,123.554273 L92.8630965,122.639627 L157,122.639 L157,56 Z M40.0054214,76.6025105 L49.7077378,101.958159 L45.8368655,112 L44.8314441,112 L48.7023164,101.958159 L39,76.6025105 L40.0054214,76.6025105 Z M48.5515032,76.6025105 L53.577,89.779 L58.555446,76.6025105 L59.5608674,76.6025105 L54.3829473,90.3096234 C54.2731646,90.6086622 54.1722981,90.8898906 54.0803477,91.1533087 C54.2991166,91.7744592 54.4663625,92.2965781 54.5840315,92.7196653 C54.7329829,92.1841004 54.9613749,91.4898497 55.2692076,90.6369131 L55.3883687,90.3096234 L60.5662888,76.6025105 L68.0566782,76.6025105 L54.3829473,112 L46.8422868,112 L50.7131592,101.958159 L41.0108428,76.6025105 L48.5515032,76.6025105 Z M71.8270084,76.6025105 L71.8270084,93.2719665 C71.8270084,95.0125523 72.1034993,96.5355649 72.656481,97.8410042 C73.2094628,99.1464435 73.9383933,100.150628 74.8432725,100.853556 C75.7481518,101.556485 76.6865451,102.066946 77.6584524,102.384937 C78.4858359,102.655643 79.3375073,102.811123 80.2134667,102.851378 L80.0217876,102.857543 L79.6692952,102.861925 C78.6303598,102.861925 77.6249384,102.702929 76.653031,102.384937 C75.6811237,102.066946 74.7427304,101.556485 73.8378512,100.853556 C72.9329719,100.150628 72.2040414,99.1464435 71.6510596,97.8410042 C71.1441597,96.6443515 70.8695889,95.2648768 70.8273472,93.7025802 L70.821587,93.2719665 L70.821587,76.6025105 L71.8270084,76.6025105 Z M80.1217348,76.6025105 L80.1217348,89.958159 L80.1248659,90.3127506 C80.158264,92.1733289 80.4588467,93.5446714 81.0266141,94.4267782 C81.489267,95.1455748 82.2278929,95.588738 83.2424919,95.7562677 C84.2793866,95.5889208 85.0736898,95.1457231 85.626417,94.4267782 C86.3045835,93.5446714 86.6636129,92.2029795 86.7035051,90.4017026 L86.7072449,90.0585774 L86.7072449,76.6025105 L87.7126663,76.6025105 L87.7126663,90.0585774 C87.7126663,92.0334728 87.3523903,93.4895397 86.6318383,94.4267782 C85.9912021,95.2600685 85.0260356,95.7229233 83.7363387,95.8153428 C83.8986099,95.8265474 84.0682382,95.832636 84.2439625,95.832636 C85.7856087,95.832636 86.9167077,95.3640167 87.6372597,94.4267782 C88.3154263,93.5446714 88.6744557,92.2029795 88.7143478,90.4017026 L88.7180877,90.0585774 L88.7180877,76.6025105 L96.0073928,76.6025105 L96.0073928,102.259414 L88.7180877,102.259414 L88.7180877,99.8995816 L88.5291994,100.123072 C88.2741772,100.413857 88.0018658,100.681488 87.7122654,100.925964 L87.7126663,102.259414 L86.7072449,102.259414 L86.7082579,101.640137 C85.3363134,102.454662 83.6602734,102.861925 81.680138,102.861925 C80.6412026,102.861925 79.6357812,102.702929 78.6638738,102.384937 C77.6919665,102.066946 76.7535732,101.556485 75.8486939,100.853556 C74.9438147,100.150628 74.2148842,99.1464435 73.6619024,97.8410042 C73.1550025,96.6443515 72.8804317,95.2648768 72.83819,93.7025802 L72.8324298,93.2719665 L72.8324298,76.6025105 L80.1217348,76.6025105 Z M131.197141,76 C134.313948,76 136.726959,76.7698745 138.436175,78.3096234 C140.084348,79.7943814 140.937866,82.3529374 140.99673,85.9852916 L141,86.3933054 L141,102.259414 L133.710695,102.259414 L133.710695,89.0041841 L133.708212,88.6367581 C133.680077,86.5906813 133.412792,85.1566713 132.906358,84.334728 C132.370133,83.4644351 131.414983,83.0292887 130.040907,83.0292887 C129.854491,83.0292887 129.674998,83.0352662 129.50243,83.0472212 C130.628312,83.1375959 131.42774,83.5667304 131.900936,84.334728 C132.407371,85.1566713 132.674656,86.5906813 132.702791,88.6367581 L132.705274,89.0041841 L132.705274,102.259414 L131.699852,102.259414 L131.699852,89.0041841 L131.69737,88.6367581 C131.669234,86.5906813 131.40195,85.1566713 130.895515,84.334728 C130.491131,83.6784134 129.848499,83.2695723 128.967619,83.1082047 C127.963031,83.2655695 127.240377,83.6664262 126.798423,84.3096234 C126.24451,85.1157601 125.952167,86.4966424 125.921394,88.4522703 L125.918679,88.8033473 L125.918679,102.259414 L118.629374,102.259414 L118.629374,89.0041841 L118.626892,88.6367581 C118.598756,86.5906813 118.331471,85.1566713 117.825037,84.334728 C117.288812,83.4644351 116.333662,83.0292887 114.959586,83.0292887 C114.773174,83.0292887 114.593686,83.0352659 114.421121,83.0472204 C115.547458,83.1378461 116.346557,83.5669542 116.819616,84.334728 C117.32605,85.1566713 117.593335,86.5906813 117.62147,88.6367581 L117.623953,89.0041841 L117.623953,102.259414 L116.618531,102.259414 L116.618531,89.0041841 L116.616049,88.6367581 C116.587914,86.5906813 116.320629,85.1566713 115.814194,84.334728 C115.409693,83.6782221 114.766804,83.269334 113.885528,83.1080637 C112.881617,83.2656209 112.159027,83.6664674 111.717102,84.3096234 C111.163189,85.1157601 110.870846,86.4966424 110.840074,88.4522703 L110.837358,88.8033473 L110.837358,102.259414 L103.548053,102.259414 L103.548053,76.6025105 L110.837358,76.6025105 L110.837772,77.1225282 C111.99458,76.3741761 113.284732,76 114.708231,76 C114.899974,76 115.087993,76.004402 115.272288,76.0132061 C113.602554,76.1061919 112.124489,76.73458 110.8372,77.8978716 L110.837358,78.9623431 L111.049181,78.7103479 C112.617182,76.9034493 114.507146,76 116.719073,76 C119.225792,76 121.095935,76.7523537 122.329503,78.257061 C124.02058,76.7522671 126.306405,76 129.186299,76 C129.361608,76 129.534691,76.0024356 129.705548,76.0073069 C126.712787,76.0988275 124.393612,77.0415024 122.746795,78.8353763 C122.895323,79.0643067 123.030436,79.3076196 123.15377,79.5648536 C124.896501,77.1882845 127.577624,76 131.197141,76 Z M102.542632,76.6025105 L102.542632,102.259414 L101.53721,102.259414 L101.53721,76.6025105 L102.542632,76.6025105 Z" id="Combined-Shape" fill="#3B3B3C"></path>
        </g>
    </g>
</svg>