<?xml version="1.0" encoding="UTF-8"?>
<svg width="180px" height="180px" viewBox="0 0 180 180" version="1.1" xmlns="http://www.w3.org/2000/svg" xmlns:xlink="http://www.w3.org/1999/xlink">
    <!-- Generator: Sketch 61.2 (89653) - https://sketch.com -->
    <title>beer</title>
    <desc>Created with Sketch.</desc>
    <g id="beer" stroke="none" stroke-width="1" fill="none" fill-rule="evenodd">
        <g id="Group-10">
            <rect id="Rectangle" x="0" y="0" width="180" height="180"></rect>
            <g id="Group-24" transform="translate(67.000000, 14.000000)">
                <path d="M45.10305,69.26418 C43.62795,64.33668 40.98825,62.60958 39.09285,58.76658 C37.77885,56.10168 36.50445,23.68728 36.02565,11.38338 C36.38925,11.24028 36.64845,10.89198 36.64845,10.47708 C36.64845,9.93708 36.21105,9.49968 35.67105,9.49968 L34.01865,9.49968 L34.01865,8.39718 L34.44795,8.39718 C34.98795,8.39718 35.42625,7.95978 35.42625,7.41888 C35.42625,6.87888 34.98795,6.44058 34.44795,6.44058 L17.85375,6.44058 C17.31285,6.44058 16.87545,6.87888 16.87545,7.41888 C16.87545,7.95978 17.31285,8.39718 17.85375,8.39718 L18.28305,8.39718 L18.28305,9.49968 L16.63065,9.49968 C16.09065,9.49968 15.65235,9.93708 15.65235,10.47708 C15.65235,10.89198 15.91245,11.24118 16.27695,11.38338 C15.80085,23.68728 14.60655,56.10078 13.28715,58.76658 C11.38005,62.62218 8.68995,64.32048 7.19865,69.26418 C6.19695,72.58518 6.08355,75.48408 6.12045,77.28498 C6.12045,77.28498 6.11955,148.88628 6.11955,148.88718 C6.11955,149.78358 15.08715,150.50898 26.14995,150.50898 C37.21365,150.50898 46.18125,149.78358 46.18215,148.88718 L46.18215,77.28498 C46.21545,75.47868 46.09665,72.58428 45.10305,69.26418" id="Fill-1" fill="#3B3B3C" opacity="0.2"></path>
                <path d="M21.8367,146.76876 C16.4619,146.76876 11.4057,146.59956 7.5996,146.29086 C1.3554,145.78416 0.9045,145.18026 0.9045,144.24516 L0.9054,72.64476 C0.8487,69.80346 1.2249,67.01076 2.0232,64.36206 C2.9655,61.23636 4.3704,59.34006 5.7276,57.50676 C6.6105,56.31426 7.4439,55.18746 8.1675,53.72676 C9.3465,51.34356 10.5471,20.10636 10.9998,8.34696 L11.0439,7.21386 C10.6632,6.86736 10.4382,6.37326 10.4382,5.83596 C10.4382,4.87746 11.1609,4.08366 12.0897,3.97116 C11.8215,3.64716 11.6604,3.23046 11.6604,2.77776 C11.6604,1.74186 12.5037,0.90036 13.5387,0.90036 L30.1338,0.90036 C31.1688,0.90036 32.0121,1.74186 32.0121,2.77776 C32.0121,3.23046 31.851,3.64716 31.5828,3.97116 C32.5116,4.08366 33.2343,4.87746 33.2343,5.83596 C33.2343,6.37236 33.0102,6.86646 32.6313,7.21296 C33.7725,36.41616 34.7661,52.06536 35.586,53.72766 C36.3015,55.17756 37.1196,56.30076 37.9854,57.49056 C39.3282,59.33286 40.716,61.23816 41.652,64.36386 C42.444,67.01436 42.8193,69.80526 42.7689,72.66006 L42.768,144.24516 C42.768,145.18026 42.3171,145.78416 36.0729,146.29086 C32.2668,146.59956 27.2106,146.76876 21.8367,146.76876" id="Fill-3" fill="#E1A076"></path>
                <polygon id="Fill-7" fill="#E1A076" points="0.9045 125.6148 42.768 125.6148 42.768 78.4755 0.9045 78.4755"></polygon>
                <path d="M43.66782,77.57514 L41.86782,77.57514 L1.80432,77.57514 L0.00432,77.57514 L0.00432,79.37514 L0.00432,124.71444 L0.00432,126.51444 L1.80432,126.51444 L41.86782,126.51444 L43.66782,126.51444 L43.66782,124.71444 L43.66782,79.37514 L43.66782,77.57514 Z M1.80432,124.71444 L41.86782,124.71444 L41.86782,79.37514 L1.80432,79.37514 L1.80432,124.71444 Z" id="Fill-9" fill="#3B3B3C"></path>
                <polygon id="Fill-10" fill="#DC5C5B" points="1.8045 84.6504 41.868 84.6504 41.868 79.3755 1.8045 79.3755"></polygon>
                <polygon id="Fill-11" fill="#FFFFFF" points="1.8045 124.7148 41.868 124.7148 41.868 84.6504 1.8045 84.6504"></polygon>
                <polygon id="Fill-12" fill="#E1A076" points="9.56979 39.77955 10.39419 23.31045 10.53549 20.02905 33.15429 20.02905 33.30189 23.31495 34.21989 39.77955"></polygon>
                <path d="M34.01478,19.12878 L32.29398,19.12878 L11.39778,19.12878 L9.67338,19.12878 L9.59958,20.85138 L9.49518,23.27778 L8.71848,38.79018 L8.62308,40.67928 L10.51668,40.67928 L33.26778,40.67928 L35.17038,40.67928 L35.06418,38.77938 L34.20018,23.25528 L34.09218,20.84868 L34.01478,19.12878 Z M32.29398,20.92878 L32.40288,23.35518 L33.26778,38.87928 L10.51668,38.87928 L11.29338,23.35518 L11.39778,20.92878 L32.29398,20.92878 Z" id="Fill-13" fill="#3B3B3C"></path>
                <polygon id="Fill-14" fill="#FFFFFF" points="33.26778 38.87955 10.51668 38.87955 11.29338 23.35545 32.40288 23.35545"></polygon>
                <polygon id="Fill-15" fill="#DC5C5B" points="32.40288 23.35545 11.29338 23.35545 11.39778 20.92905 32.29398 20.92905"></polygon>
                <path d="M32.3001,99.32724 C32.4396,98.02494 32.9067,96.18624 34.4268,94.05234 C27.8334,94.05234 26.5248,92.01024 21.8367,92.01024 C17.1477,92.01024 15.8391,94.05234 9.2457,94.05234 C9.72,94.68594 10.3581,95.67414 10.8279,97.00164 C10.9755,97.42104 11.2554,98.23104 11.3724,99.32724 C11.6568,101.98134 10.6497,103.04064 10.5219,107.40834 C10.4553,109.69614 10.4355,110.86434 11.1177,112.08834 C11.9367,113.55804 13.1445,114.06654 15.5412,115.40484 C17.1117,116.28324 19.2834,117.56844 21.8367,119.31894 C24.3891,117.56844 26.5617,116.28324 28.1313,115.40484 C30.528,114.06654 31.7358,113.55804 32.5557,112.08834 C33.2379,110.86434 33.2181,109.69614 33.1506,107.40834 C33.0237,103.04064 32.0166,101.98134 32.3001,99.32724" id="Fill-16" fill="#DC5C5B"></path>
                <polygon id="Fill-17" fill="#FFE881" points="27.83349 90.32283 23.48289 90.32283 21.83679 86.23773 20.19069 90.32283 15.83919 90.32283 19.51839 92.74653 18.09369 96.87663 21.83679 93.77973 25.57899 96.87663 24.15519 92.74653"></polygon>
                <g id="Group-20" transform="translate(18.000000, 1.109700)">
                    <path d="M0.03978,0.69057 L0.03978,14.98077 C0.01908,16.01937 0.87318,16.86357 1.86138,16.84467 C2.79378,16.82757 3.58578,16.04997 3.61638,15.07347 L3.61638,5.64777 C3.64878,4.65237 4.49208,3.87747 5.44428,3.91797 C6.34338,3.95667 7.09308,4.70997 7.12188,5.64777 C7.10838,8.06697 7.09398,10.48707 7.07958,12.90537 C7.08318,13.80897 7.84008,14.49027 8.62398,14.43537 C9.28728,14.38947 9.87408,13.82157 9.95058,13.07457 L9.95058,0.69057" id="Fill-18" fill="#FFE881"></path>
                    <path d="M0.03978,0.69057 L0.03978,14.98077 C0.01908,16.01937 0.87318,16.86357 1.86138,16.84467 C2.79378,16.82757 3.58578,16.04997 3.61638,15.07347 L3.61638,5.64777 C3.64878,4.65237 4.49208,3.87747 5.44428,3.91797 C6.34338,3.95667 7.09308,4.70997 7.12188,5.64777 C7.10838,8.06697 7.09398,10.48707 7.07958,12.90537 C7.08318,13.80897 7.84008,14.49027 8.62398,14.43537 C9.28728,14.38947 9.87408,13.82157 9.95058,13.07457 L9.95058,0.69057" id="Stroke-19" stroke="#3B3B3C" stroke-width="2"></path>
                </g>
                <path d="M1.79937,140.16735 C3.35727,140.58405 5.71617,141.04485 8.56017,140.89725 C11.80827,140.72805 14.09427,139.84875 15.02217,139.54275 C23.85297,136.62225 31.27617,143.50905 36.24327,140.50395 C38.46987,139.15755 41.87187,136.60605 40.14297,125.26245 C39.58137,122.97195 38.88657,119.55195 38.57877,115.36065 C37.97577,107.14905 39.56427,105.51915 39.41307,98.16255 C39.20067,87.82875 36.00117,87.83235 36.49437,78.47505 C36.78327,72.99405 37.97397,71.22105 37.58517,65.71035 C37.48977,64.35855 34.42707,59.71365 20.04777,59.71365 C8.55027,59.71365 4.81617,60.05835 4.59027,59.20335 C4.05927,57.19005 35.33337,55.43955 34.77987,54.12555 L41.11497,62.72505 L42.77367,70.24635 L42.77367,142.68825 L42.77367,144.76635 L37.17027,146.17935 L22.28697,146.82285 L1.80477,145.56375 L0.85437,144.84465 L0.85437,140.11065 L1.79937,140.16735 Z" id="Fill-21" fill="#3B3B3C" opacity="0.2"></path>
                <path d="M7.87266,64.06812 C9.03006,64.06812 9.03276,62.26812 7.87266,62.26812 C6.71436,62.26812 6.71256,64.06812 7.87266,64.06812" id="Fill-22" fill="#F8E8D1"></path>
                <path d="M6.67728,72.6462 C6.43158,70.5258 6.65928,68.427 7.36758,66.4128 C7.52778,65.9538 7.18398,65.4282 6.73848,65.3058 C6.24258,65.169 5.79348,65.4741 5.63148,65.934 C4.87998,68.0751 4.61538,70.3926 4.87728,72.6462 C4.93398,73.1286 5.25078,73.5462 5.77728,73.5462 C6.22008,73.5462 6.73398,73.1322 6.67728,72.6462" id="Fill-23" fill="#F8E8D1"></path>
                <path d="M30.13353,0.00027 L13.53933,0.00027 C12.00663,0.00027 10.76103,1.24677 10.76103,2.77767 C10.76103,3.01887 10.79253,3.25377 10.85013,3.47697 C10.06263,3.96837 9.53793,4.84227 9.53793,5.83587 C9.53793,6.47577 9.75303,7.07337 10.12923,7.55127 L10.10043,8.30457 C9.69993,18.73467 8.47863,50.47497 7.34463,53.36307 C6.67323,54.71757 5.86143,55.81287 5.00373,56.97207 C3.60063,58.86657 2.14893,60.82677 1.16163,64.10367 C0.33543,66.84417 -0.05337,69.72957 0.00603,72.68067 L0.00423,144.24507 C0.00423,146.22597 1.97613,146.73807 7.52643,147.18717 C11.35683,147.49767 16.43823,147.66867 21.83643,147.66867 C27.23373,147.66867 32.31603,147.49767 36.14643,147.18717 C41.69673,146.73807 43.66683,146.22597 43.66773,144.24597 L43.66863,72.64467 C43.72263,69.73047 43.33383,66.84687 42.51393,64.10637 C41.53383,60.83307 40.10013,58.86387 38.71323,56.96037 C37.87083,55.80387 37.07433,54.71037 36.39303,53.32977 C35.86653,51.98517 34.93053,42.89157 33.54453,7.54947 C33.91983,7.07157 34.13403,6.47487 34.13403,5.83587 C34.13403,4.84227 33.60933,3.96837 32.82273,3.47697 C32.88123,3.25377 32.91183,3.01887 32.91183,2.77767 C32.91183,1.24677 31.66533,0.00027 30.13353,0.00027 M30.13353,1.80027 C30.67443,1.80027 31.11183,2.23767 31.11183,2.77767 C31.11183,3.31857 30.67443,3.75597 30.13353,3.75597 L29.70333,3.75597 L29.70333,4.85757 L31.35663,4.85757 C31.89663,4.85757 32.33403,5.29587 32.33403,5.83587 C32.33403,6.24987 32.07483,6.59997 31.71213,6.74217 C32.19093,19.04607 33.46443,51.46047 34.77933,54.12627 C36.67473,57.96837 39.31443,59.69547 40.78953,64.62297 C41.78223,67.94307 41.90103,70.83837 41.86863,72.64467 L41.86773,144.24507 C41.86773,145.14237 32.89923,145.86867 21.83643,145.86867 C10.77273,145.86867 1.80423,145.14237 1.80423,144.24507 L1.80513,72.64467 C1.76913,70.84287 1.88253,67.94487 2.88513,64.62297 C4.37553,59.68017 7.06563,57.98097 8.97363,54.12627 C10.29303,51.45957 11.48643,19.04697 11.96253,6.74217 C11.59803,6.59997 11.33793,6.25077 11.33793,5.83587 C11.33793,5.29587 11.77713,4.85757 12.31623,4.85757 L13.96863,4.85757 L13.96863,3.75597 L13.53933,3.75597 C12.99843,3.75597 12.56103,3.31857 12.56103,2.77767 C12.56103,2.23767 12.99843,1.80027 13.53933,1.80027 L30.13353,1.80027" id="Fill-5" fill="#3B3B3C"></path>
            </g>
        </g>
    </g>
</svg>