<?xml version="1.0" encoding="UTF-8"?>
<svg width="180px" height="181px" viewBox="0 0 180 181" version="1.1" xmlns="http://www.w3.org/2000/svg" xmlns:xlink="http://www.w3.org/1999/xlink">
    <!-- Generator: Sketch 61.2 (89653) - https://sketch.com -->
    <title>cheese</title>
    <desc>Created with Sketch.</desc>
    <g id="cheese" stroke="none" stroke-width="1" fill="none" fill-rule="evenodd" transform="translate(0.000000, 1.000000)">
        <g id="Group-5">
            <rect id="Rectangle" x="0" y="0" width="180" height="180"></rect>
            <g id="Group-21" transform="translate(26.000000, 54.000000)">
                <g id="Group-3" transform="translate(5.200000, 7.759510)" fill="#3B3B3C" opacity="0.2">
                    <path d="M88.71588,27.83043 C88.36668,27.96723 85.12488,29.17593 82.11258,27.25713 C79.85898,25.82253 79.19028,23.56533 79.03998,23.00013 L34.83108,0.92943 C32.73678,-0.11637 30.25548,-0.02727 28.24128,1.16343 L0.54378,17.54523 L0.54378,23.46543 C0.73998,23.54013 2.84508,24.38073 3.34278,26.47413 C3.80358,28.41993 2.67948,30.62313 0.54378,31.59783 L0.54378,56.52603 C0.54378,58.11273 1.83078,59.39973 3.41838,59.39973 L117.18558,59.39973 C116.04888,57.71763 116.14158,55.51623 117.36108,54.04473 C118.75158,52.36713 121.32378,51.97473 123.28488,53.25453 L123.28488,45.08793 L88.71588,27.83043 Z" id="Fill-1"></path>
                </g>
                <g id="Group-6" transform="translate(0.000000, 0.759510)" stroke="#3B3B3C" stroke-width="2">
                    <path d="M32.10822,0.14049 L32.10822,1.04049 L32.10822,0.14049 C30.71232,0.14049 29.34072,0.51579 28.13922,1.22589 L0.44172,17.60769 L-0.00018,17.86959 L-0.00018,18.38349 L-0.00018,24.30369 L-0.00018,24.92289 L0.57942,25.14429 C0.65502,25.17219 2.43072,25.86699 2.82312,27.51939 C3.19482,29.08719 2.20752,30.84849 0.52632,31.61619 L-0.00018,31.85559 L-0.00018,32.43429 L-0.00018,57.36249 C-0.00018,59.44419 1.69272,61.13709 3.77442,61.13709 L117.54162,61.13709 L119.23632,61.13709 L118.28772,59.73309 C117.38232,58.39479 117.43362,56.63439 118.41102,55.45539 C119.05362,54.67959 120.03372,54.23409 121.10022,54.23409 C121.82742,54.23409 122.53662,54.44559 123.14862,54.84519 L124.54092,55.75419 L124.54092,54.09189 L124.54092,45.92529 L124.54092,45.36819 L124.04322,45.11979 L89.47422,27.86229 L89.11602,27.68409 L88.74342,27.82989 C88.55712,27.90369 87.55902,28.26819 86.25042,28.26819 C85.03452,28.26819 83.92482,27.95409 82.95192,27.33579 C81.11052,26.16309 80.46072,24.33699 80.26632,23.60529 L80.16192,23.21379 L79.79832,23.03199 L35.58852,0.96129 C34.51392,0.42399 33.30972,0.14049 32.10822,0.14049 M32.10822,1.04049 C33.16122,1.04049 34.21602,1.28169 35.18712,1.76679 L79.39692,23.83659 C79.54632,24.40269 80.21592,26.65989 82.46862,28.09449 C83.77002,28.92339 85.11462,29.16819 86.25042,29.16819 C87.74262,29.16819 88.87392,28.74519 89.07192,28.66689 L123.64092,45.92529 L123.64092,54.09189 C122.85342,53.57799 121.96872,53.33409 121.10022,53.33409 C119.80512,53.33409 118.54962,53.87769 117.71712,54.88119 C116.49762,56.35359 116.40492,58.55499 117.54162,60.23709 L3.77442,60.23709 C2.18682,60.23709 0.89982,58.95009 0.89982,57.36249 L0.89982,32.43429 C3.03552,31.46049 4.16052,29.25729 3.69882,27.31059 C3.20112,25.21809 1.09602,24.37839 0.89982,24.30369 L0.89982,18.38349 L28.59822,2.00079 C29.67732,1.36179 30.89052,1.04049 32.10822,1.04049" id="Fill-4"></path>
                </g>
                <path d="M0.9,58.12209 L0.9,33.19389 C3.0366,32.22009 4.1607,30.01599 3.6981,28.07019 C3.2022,25.97769 1.0962,25.13799 0.9,25.06329 L0.9,19.14219 L123.6411,46.68489 L123.6411,54.85149 C121.6809,53.57169 119.1078,53.96319 117.7173,55.64079 C116.4978,57.11319 116.4051,59.31459 117.5427,60.99669 L3.7746,60.99669 C2.187,60.99669 0.9,59.70969 0.9,58.12209" id="Fill-7" fill="#FFDA74"></path>
                <path d="M123.64101,46.68489 L89.07291,29.42649 C88.72371,29.56419 85.48101,30.77199 82.46871,28.85409 C80.21601,27.41949 79.54641,25.16229 79.39701,24.59619 L35.18721,2.52639 C33.09381,1.48059 30.61251,1.56879 28.59741,2.76039 L0.89991,19.14219 L123.64101,46.68489 Z" id="Fill-9" fill="#FFE881"></path>
                <path d="M0.9,41.63373 L0.9,57.97953 C0.9,59.64633 2.2509,60.99723 3.9177,60.99723 L117.5427,60.99723 C107.5599,53.71083 99.8478,52.65963 94.3713,53.31393 C86.715,54.22743 86.3127,58.12983 79.7616,57.54033 C72.9432,56.92653 67.4955,52.17183 57.1131,51.31503 C56.8548,51.29343 56.6244,51.27633 56.5947,51.27543 C55.5606,51.23583 53.8614,51.46173 41.8392,52.68843 C31.7619,53.71803 18.6048,58.50063 13.7322,53.52633 C8.4078,48.08853 15.8553,35.32833 11.673,33.10803 C9.3672,31.88583 4.5171,34.38693 2.2662,38.00943 C1.4256,39.36123 1.0665,40.67883 0.9,41.63373" id="Fill-15" fill="#FED070"></path>
                <path d="M12.33369,54.45171 C9.67059,53.06661 9.00729,49.50891 10.44729,47.31201 C11.35629,45.92601 13.05459,45.15741 14.62419,45.29151 C17.63019,45.54891 20.33379,49.13901 19.20429,52.02711 C18.27999,54.38871 14.97339,55.82421 12.33369,54.45171" id="Fill-17" fill="#FBBA6C"></path>
                <path d="M79.40214,60.99696 C77.29614,59.82876 76.32504,57.48246 76.95504,55.56186 C77.89014,52.71156 81.73224,52.68636 82.06254,52.68906 C83.83284,52.70346 86.37174,53.54496 86.85054,55.34946 C87.25824,56.87946 86.02524,58.51296 85.36104,59.39316 C84.79494,60.14286 84.20094,60.66306 83.76534,60.99696 L79.40214,60.99696 Z" id="Fill-19" fill="#FBBA6C"></path>
                <path d="M21.6747,30.39786 C22.2426,33.90606 26.9208,36.64566 31.1454,36.37926 C31.7079,36.34416 36.0504,36.00486 37.8756,32.64156 C40.0527,28.62936 37.4031,22.61646 33.39,21.17646 C28.0917,19.27656 20.8845,25.51176 21.6747,30.39786" id="Fill-11" fill="#FBBA6C"></path>
                <path d="M64.55916,34.47774 C64.65366,36.18684 64.70316,37.06884 65.37276,37.59984 C66.37356,38.39184 68.13666,37.91304 69.17346,37.19214 C71.13996,35.82414 72.25416,32.35824 70.53066,30.54204 C69.14376,29.08044 66.30066,29.09304 65.10276,30.40704 C64.37646,31.20174 64.43676,32.29344 64.55916,34.47774" id="Fill-13" fill="#FBBA6C"></path>
            </g>
        </g>
    </g>
</svg>