<?xml version="1.0" encoding="UTF-8"?>
<svg width="180px" height="181px" viewBox="0 0 180 181" version="1.1" xmlns="http://www.w3.org/2000/svg" xmlns:xlink="http://www.w3.org/1999/xlink">
    <!-- Generator: Sketch 61.2 (89653) - https://sketch.com -->
    <title>cigs</title>
    <desc>Created with Sketch.</desc>
    <defs>
        <path d="M70.5485185,79.0235747 L1.05093047,79.0235747 C0.470698436,79.0235747 0,78.5512377 0,77.9711919 L0,1.05337098 C0,0.471348928 0.470698436,0 1.05093047,0 L70.5485185,0 C71.1287505,0 71.5984621,0.471348928 71.5984621,1.05337098 L71.5984621,77.9711919 C71.5984621,78.5512377 71.1287505,79.0235747 70.5485185,79.0235747 Z" id="path-1"></path>
    </defs>
    <g id="cigs" stroke="none" stroke-width="1" fill="none" fill-rule="evenodd" transform="translate(0.000000, 1.000000)">
        <g id="Group-2">
            <rect id="Rectangle" x="0" y="0" width="180" height="180"></rect>
            <g id="Group-60" transform="translate(53.000000, 32.000000)">
                <path d="M18.9333,107.1088 L18.9333,24.1038 L11.6263,24.1038 L11.6263,107.1088 C11.6263,107.3338 13.2623,107.5158 15.2803,107.5158 C17.2973,107.5158 18.9333,107.3338 18.9333,107.1088" id="Fill-1" fill="#FBF5F9"></path>
                <path d="M18.9333,107.1088 L18.9333,24.1038 L11.6263,24.1038 L11.6263,107.1088 C11.6263,107.3338 13.2623,107.5158 15.2803,107.5158 C17.2973,107.5158 18.9333,107.3338 18.9333,107.1088 Z" id="Stroke-3" stroke="#3B3B3C" stroke-width="2"></path>
                <path d="M18.9333,4.7025 C18.9333,4.4765 17.2973,4.2955 15.2803,4.2955 C13.2623,4.2955 11.6263,4.4765 11.6263,4.7025 L11.6263,24.1035 L18.9333,24.1035 L18.9333,4.7025 Z" id="Fill-5" fill="#F1B086"></path>
                <path d="M18.9333,4.7025 C18.9333,4.4765 17.2973,4.2955 15.2803,4.2955 C13.2623,4.2955 11.6263,4.4765 11.6263,4.7025 L11.6263,24.1035 L18.9333,24.1035 L18.9333,4.7025 Z" id="Stroke-7" stroke="#3B3B3C" stroke-width="2"></path>
                <path d="M12.6095,25.0571999 C12.7675,32.3862718 12.9185,39.3463539 13.0585,45.8608635 C13.6985,75.5182927 14.1285,95.9479937 14.1575,100.053627 C14.1585,100.177949 14.1855,104.060796 15.2485,104.351214 C15.9945,104.555103 16.6975,102.833482 17.5245,103.02842 C18.2935,103.209434 18.7235,105.136933 18.9115,106.80783 C16.7465,107.325013 13.3055,107.287219 12.5885,106.797885 L12.6095,25.0571999 Z" id="Fill-9" fill="#ECDFE6"></path>
                <polygon id="Fill-11" fill="#FFE881" points="11.627 38.927 18.934 38.927 18.934 37.349 11.627 37.349"></polygon>
                <path d="M17.9656929,23.1524658 L14.5726929,23.1524658 C15.4026929,22.2104519 16.3446929,20.8050743 16.1936929,19.1961987 C16.0296929,17.4784088 14.8146929,17.105807 14.5726929,15.4023479 C14.3256929,13.6578071 15.5976929,12.8543247 16.7326929,10.2527997 C17.2576929,9.0451876 17.7516929,7.96082077 17.9606929,5.3812697 L17.9656929,23.1524658 Z" id="Fill-13" fill="#E1A076"></path>
                <path d="M55.449,0.9066 L55.449,83.9116 L62.757,83.9116 L62.757,0.9066 C62.757,0.6816 61.121,0.4996 59.102,0.4996 C57.085,0.4996 55.449,0.6816 55.449,0.9066" id="Fill-14" fill="#FBF5F9"></path>
                <path d="M55.449,0.9066 L55.449,83.9116 L62.757,83.9116 L62.757,0.9066 C62.757,0.6816 61.121,0.4996 59.102,0.4996 C57.085,0.4996 55.449,0.6816 55.449,0.9066 Z" id="Stroke-15" stroke="#3B3B3C" stroke-width="2"></path>
                <path d="M55.449,103.3139 C55.449,103.5389 57.085,103.7199 59.102,103.7199 C61.121,103.7199 62.757,103.5389 62.757,103.3139 L62.757,83.9119 L55.449,83.9119 L55.449,103.3139 Z" id="Fill-16" fill="#F1B086"></path>
                <path d="M55.449,103.3139 C55.449,103.5389 57.085,103.7199 59.102,103.7199 C61.121,103.7199 62.757,103.5389 62.757,103.3139 L62.757,83.9119 L55.449,83.9119 L55.449,103.3139 Z" id="Stroke-17" stroke="#231F20"></path>
                <path d="M62.2458,83.4066 C62.0868,76.0366 61.9358,69.0396 61.7958,62.4896 C61.1558,32.6696 60.7258,12.1296 60.6968,8.0016 C60.6958,7.8756 60.6688,3.9716 59.6058,3.6796 C58.8598,3.4746 58.1568,5.2056 57.3308,5.0106 C56.5608,4.8276 56.5831538,3.26898101 56.3941538,1.58898101 C57.6269612,1.09917052 60.2598284,0.938981014 62.2458,1.58898101 L62.2458,83.4066 Z" id="Fill-18" fill="#ECDFE6"></path>
                <polygon id="Fill-19" fill="#FFE881" points="55.449 70.666 62.757 70.666 62.757 69.088 55.449 69.088"></polygon>
                <path d="M55.9431,84.4096 L59.3361,84.4096 C58.5061,85.3956 57.5641,86.8656 57.7161,88.5496 C57.8791,90.3476 59.0941,90.7376 59.3361,92.5206 C59.5841,94.3476 58.3111,95.1876 57.1771,97.9116 C56.6511,99.1756 56.1571,100.3096 55.9481,103.0096 L55.9431,84.4096 Z" id="Fill-20" fill="#E1A076"></path>
                <path d="M26.2195,107.1088 L26.2195,24.1038 L18.9115,24.1038 L18.9115,107.1088 C18.9115,107.3338 20.5475,107.5158 22.5655,107.5158 C24.5825,107.5158 26.2195,107.3338 26.2195,107.1088" id="Fill-21" fill="#FBF5F9"></path>
                <path d="M26.2195,107.1088 L26.2195,24.1038 L18.9115,24.1038 L18.9115,107.1088 C18.9115,107.3338 20.5475,107.5158 22.5655,107.5158 C24.5825,107.5158 26.2195,107.3338 26.2195,107.1088 Z" id="Stroke-22" stroke="#3B3B3C" stroke-width="2"></path>
                <path d="M26.2195,4.7025 C26.2195,4.4765 24.5825,4.2955 22.5655,4.2955 C20.5475,4.2955 18.9115,4.4765 18.9115,4.7025 L18.9115,24.1035 L26.2195,24.1035 L26.2195,4.7025 Z" id="Fill-23" fill="#F1B086"></path>
                <path d="M26.2195,4.7025 C26.2195,4.4765 24.5825,4.2955 22.5655,4.2955 C20.5475,4.2955 18.9115,4.4765 18.9115,4.7025 L18.9115,24.1035 L26.2195,24.1035 L26.2195,4.7025 Z" id="Stroke-24" stroke="#3B3B3C" stroke-width="2"></path>
                <path d="M19.9165,25.0571999 C20.0745,32.3862718 20.2255,39.3463539 20.3655,45.8608635 C21.0055,75.5182927 21.4355,95.9479937 21.4645,100.053627 C21.4655,100.177949 21.4925,104.060796 22.5555,104.351214 C23.3015,104.555103 24.0055,102.833482 24.8315,103.02842 C25.6005,103.209434 26.0305,105.136933 26.2195,106.80783 C24.0535,107.325013 20.6125,107.287219 19.8955,106.797885 L19.9165,25.0571999 Z" id="Fill-25" fill="#ECDFE6"></path>
                <polygon id="Fill-26" fill="#FFE881" points="18.912 38.927 26.219 38.927 26.219 37.349 18.912 37.349"></polygon>
                <path d="M25.2693006,23.148579 L21.8763006,23.148579 C22.3563006,22.2004386 22.9633006,20.8608203 23.4973006,19.1946521 C24.1643006,17.1121807 24.4973006,16.0714223 24.4563006,14.8769373 C24.3853006,12.8106978 23.5273006,12.0449289 24.0363006,10.2565432 C24.2243006,9.59198563 24.4083006,9.50987075 24.7143006,8.5197181 C24.9553006,7.74249124 25.1523006,6.78480261 25.2643006,5.38789487 L25.2693006,23.148579 Z" id="Fill-27" fill="#E1A076"></path>
                <path d="M40.8337,107.1088 L40.8337,24.1038 L33.5257,24.1038 L33.5257,107.1088 C33.5257,107.3338 35.1617,107.5158 37.1807,107.5158 C39.1977,107.5158 40.8337,107.3338 40.8337,107.1088" id="Fill-28" fill="#FBF5F9"></path>
                <path d="M40.8337,107.1088 L40.8337,24.1038 L33.5257,24.1038 L33.5257,107.1088 C33.5257,107.3338 35.1617,107.5158 37.1807,107.5158 C39.1977,107.5158 40.8337,107.3338 40.8337,107.1088 Z" id="Stroke-29" stroke="#231F20"></path>
                <path d="M40.8337,4.7025 C40.8337,4.4765 39.1977,4.2955 37.1807,4.2955 C35.1617,4.2955 33.5257,4.4765 33.5257,4.7025 L33.5257,24.1035 L40.8337,24.1035 L40.8337,4.7025 Z" id="Fill-30" fill="#F1B086"></path>
                <path d="M40.8337,4.7025 C40.8337,4.4765 39.1977,4.2955 37.1807,4.2955 C35.1617,4.2955 33.5257,4.4765 33.5257,4.7025 L33.5257,24.1035 L40.8337,24.1035 L40.8337,4.7025 Z" id="Stroke-31" stroke="#3B3B3C" stroke-width="2"></path>
                <path d="M34.4776757,25.0571999 C34.6366757,32.3862718 34.7876757,39.3463539 34.9276757,45.8608635 C35.5676757,75.5182927 35.9976757,95.9479937 36.0266757,100.053627 C36.0276757,100.177949 36.0546757,104.060796 37.1176757,104.351214 C37.8636757,104.555103 38.5666757,102.833482 39.3936757,103.02842 C40.1626757,103.209434 40.5916757,105.136933 40.7806757,106.80783 C38.6156757,107.325013 35.1746757,107.287219 34.4566757,106.797885 L34.4776757,25.0571999 Z" id="Fill-32" fill="#ECDFE6"></path>
                <polygon id="Fill-33" fill="#FFE881" points="33.526 38.927 40.834 38.927 40.834 37.349 33.526 37.349"></polygon>
                <path d="M39.8843472,23.1507156 L36.4913472,23.1507156 C36.9703472,22.2023783 37.5783472,20.8624817 38.1123472,19.1959675 C38.7783472,17.1130635 39.1123472,16.072089 39.0713472,14.8773559 C39.0003472,12.8106872 38.1413472,12.0447592 38.6503472,10.2560021 C38.8393472,9.59130649 39.0223472,9.50917455 39.3283472,8.51881625 C39.5693472,7.74142795 39.7663472,6.78354041 39.8793472,5.38634253 L39.8843472,23.1507156 Z" id="Fill-34" fill="#E1A076"></path>
                <path d="M33.5261,107.1088 L33.5261,24.1038 L26.2191,24.1038 L26.2191,107.1088 C26.2191,107.3338 27.8551,107.5158 29.8731,107.5158 C31.8901,107.5158 33.5261,107.3338 33.5261,107.1088" id="Fill-35" fill="#FBF5F9"></path>
                <path d="M33.5261,107.1088 L33.5261,24.1038 L26.2191,24.1038 L26.2191,107.1088 C26.2191,107.3338 27.8551,107.5158 29.8731,107.5158 C31.8901,107.5158 33.5261,107.3338 33.5261,107.1088 Z" id="Stroke-36" stroke="#3B3B3C" stroke-width="2"></path>
                <path d="M33.5261,4.7025 C33.5261,4.4765 31.8901,4.2955 29.8731,4.2955 C27.8551,4.2955 26.2191,4.4765 26.2191,4.7025 L26.2191,24.1035 L33.5261,24.1035 L33.5261,4.7025 Z" id="Fill-37" fill="#F1B086"></path>
                <path d="M33.5261,4.7025 C33.5261,4.4765 31.8901,4.2955 29.8731,4.2955 C27.8551,4.2955 26.2191,4.4765 26.2191,4.7025 L26.2191,24.1035 L33.5261,24.1035 L33.5261,4.7025 Z" id="Stroke-38" stroke="#3B3B3C" stroke-width="2"></path>
                <path d="M27.1806291,25.0571999 C27.3386291,32.3862718 27.4896291,39.3463539 27.6296291,45.8608635 C28.2696291,75.5182927 28.6996291,95.9479937 28.7286291,100.053627 C28.7296291,100.177949 28.7566291,104.060796 29.8196291,104.351214 C30.5656291,104.555103 31.2686291,102.833482 32.0956291,103.02842 C32.8646291,103.209434 33.2936291,105.136933 33.4826291,106.80783 C31.3176291,107.325013 27.8766291,107.287219 27.1596291,106.797885 L27.1806291,25.0571999 Z" id="Fill-39" fill="#ECDFE6"></path>
                <polygon id="Fill-40" fill="#FFE881" points="26.219 38.927 33.526 38.927 33.526 37.349 26.219 37.349"></polygon>
                <path d="M32.583426,23.1529661 L29.189426,23.1529661 C30.092426,21.5445045 30.556426,20.1490399 30.810426,19.197717 C31.400426,16.980829 32.411426,13.1889095 30.910426,9.65392352 C30.560426,8.82772443 30.010426,7.87258096 30.420426,6.92603379 C30.797426,6.05494295 31.800426,5.61939753 32.577426,5.38634253 L32.583426,23.1529661 Z" id="Fill-41" fill="#E1A076"></path>
                <path d="M55.449,107.1088 L55.449,24.1038 L48.141,24.1038 L48.141,107.1088 C48.141,107.3338 49.777,107.5158 51.796,107.5158 C53.813,107.5158 55.449,107.3338 55.449,107.1088" id="Fill-42" fill="#FBF5F9"></path>
                <path d="M55.449,107.1088 L55.449,24.1038 L48.141,24.1038 L48.141,107.1088 C48.141,107.3338 49.777,107.5158 51.796,107.5158 C53.813,107.5158 55.449,107.3338 55.449,107.1088 Z" id="Stroke-43" stroke="#3B3B3C" stroke-width="1.9"></path>
                <path d="M55.449,4.7025 C55.449,4.4765 53.813,4.2955 51.796,4.2955 C49.777,4.2955 48.141,4.4765 48.141,4.7025 L48.141,24.1035 L55.449,24.1035 L55.449,4.7025 Z" id="Fill-44" fill="#F1B086"></path>
                <path d="M55.449,4.7025 C55.449,4.4765 53.813,4.2955 51.796,4.2955 C49.777,4.2955 48.141,4.4765 48.141,4.7025 L48.141,24.1035 L55.449,24.1035 L55.449,4.7025 Z" id="Stroke-45" stroke="#3B3B3C" stroke-width="2"></path>
                <path d="M49.0949175,25.0571999 C49.2539175,32.3862718 49.4049175,39.3463539 49.5449175,45.8608635 C50.1849175,75.5182927 50.6149175,95.9479937 50.6439175,100.053627 C50.6449175,100.177949 50.6719175,104.060796 51.7349175,104.351214 C52.4809175,104.555103 53.1839175,102.833482 54.0099175,103.02842 C54.7799175,103.209434 55.2089175,105.136933 55.3979175,106.80783 C53.2319175,107.325013 49.7909175,107.287219 49.0739175,106.797885 L49.0949175,25.0571999 Z" id="Fill-46" fill="#ECDFE6"></path>
                <polygon id="Fill-47" fill="#FFE881" points="48.141 38.927 55.449 38.927 55.449 37.349 48.141 37.349"></polygon>
                <path d="M54.4890904,23.1571038 L51.0960904,23.1571038 C51.9990904,21.5500593 52.4630904,20.1558241 52.7160904,19.2053393 C53.3070904,16.9904045 54.3180904,13.2018256 52.8160904,9.66995402 C52.4660904,8.84448281 51.9170904,7.89018084 52.3270904,6.94446758 C52.7040904,6.07414418 53.7060904,5.63898248 54.4840904,5.4061328 L54.4890904,23.1571038 Z" id="Fill-48" fill="#E1A076"></path>
                <path d="M48.1413,107.1088 L48.1413,24.1038 L40.8333,24.1038 L40.8333,107.1088 C40.8333,107.3338 42.4693,107.5158 44.4883,107.5158 C46.5053,107.5158 48.1413,107.3338 48.1413,107.1088" id="Fill-49" fill="#FBF5F9"></path>
                <path d="M48.1413,107.1088 L48.1413,24.1038 L40.8333,24.1038 L40.8333,107.1088 C40.8333,107.3338 42.4693,107.5158 44.4883,107.5158 C46.5053,107.5158 48.1413,107.3338 48.1413,107.1088 Z" id="Stroke-50" stroke="#3B3B3C" stroke-width="1.9"></path>
                <path d="M48.1413,4.7025 C48.1413,4.4765 46.5053,4.2955 44.4883,4.2955 C42.4693,4.2955 40.8333,4.4765 40.8333,4.7025 L40.8333,24.1035 L48.1413,24.1035 L48.1413,4.7025 Z" id="Fill-51" fill="#F1B086"></path>
                <path d="M48.1413,4.7025 C48.1413,4.4765 46.5053,4.2955 44.4883,4.2955 C42.4693,4.2955 40.8333,4.4765 40.8333,4.7025 L40.8333,24.1035 L48.1413,24.1035 L48.1413,4.7025 Z" id="Stroke-52" stroke="#3B3B3C" stroke-width="2"></path>
                <path d="M41.7855046,25.0571999 C41.9445046,32.3862718 42.0955046,39.3463539 42.2355046,45.8608635 C42.8755046,75.5182927 43.3055046,95.9479937 43.3345046,100.053627 C43.3355046,100.177949 43.3625046,104.060796 44.4255046,104.351214 C45.1715046,104.555103 45.8745046,102.833482 46.7005046,103.02842 C47.4705046,103.209434 47.8995046,105.136933 48.0885046,106.80783 C45.9225046,107.325013 42.4825046,107.287219 41.7645046,106.797885 L41.7855046,25.0571999 Z" id="Fill-53" fill="#ECDFE6"></path>
                <polygon id="Fill-54" fill="#FFE881" points="40.834 38.927 48.142 38.927 48.142 37.349 40.834 37.349"></polygon>
                <path d="M47.1895172,23.1571038 L43.7965172,23.1571038 C44.6265172,22.2161621 45.5685172,20.8123839 45.4175172,19.2053393 C45.2535172,17.4895044 44.0385172,17.1173266 43.7965172,15.4158062 C43.5485172,13.6732508 44.8215172,12.8706828 45.9555172,10.2721186 C46.4815172,9.06588087 46.9755172,7.98274813 47.1845172,5.4061328 L47.1895172,23.1571038 Z" id="Fill-55" fill="#E1A076"></path>
                <path d="M75.6755,113.1977 L5.2475,113.1977 C4.6595,113.1977 4.1825,112.7207 4.1825,112.1337 L4.1825,34.2937 C4.1825,33.7047 4.6595,33.2277 5.2475,33.2277 L75.6755,33.2277 C76.2635,33.2277 76.7395,33.7047 76.7395,34.2937 L76.7395,112.1337 C76.7395,112.7207 76.2635,113.1977 75.6755,113.1977" id="Fill-56" fill="#3B3B3C" opacity="0.2"></path>
                <path d="M71.9929,109.6225 L1.5649,109.6225 C0.9769,109.6225 0.4999,109.1445 0.4999,108.5575 L0.4999,30.7175 C0.4999,30.1285 0.9769,29.6515 1.5649,29.6515 L71.9929,29.6515 C72.5809,29.6515 73.0569,30.1285 73.0569,30.7175 L73.0569,108.5575 C73.0569,109.1445 72.5809,109.6225 71.9929,109.6225" id="Fill-57" fill="#AEEFF1"></path>
                <path d="M71.9929,109.6225 L1.5649,109.6225 C0.9769,109.6225 0.4999,109.1445 0.4999,108.5575 L0.4999,30.7175 C0.4999,30.1285 0.9769,29.6515 1.5649,29.6515 L71.9929,29.6515 C72.5809,29.6515 73.0569,30.1285 73.0569,30.7175 L73.0569,108.5575 C73.0569,109.1445 72.5809,109.6225 71.9929,109.6225 Z" id="Stroke-58" stroke="#3B3B3C" stroke-width="2"></path>
                <g id="Group-4" transform="translate(0.499900, 29.651500)">
                    <mask id="mask-2" fill="white">
                        <use xlink:href="#path-1"></use>
                    </mask>
                    <g id="Stroke-58"></g>
                    <circle id="Oval" fill="#E0DCD9" mask="url(#mask-2)" cx="53.7501" cy="59.2785231" r="23.75"></circle>
                    <circle id="Oval" fill="#DC5C5B" mask="url(#mask-2)" cx="53.7501" cy="59.2785231" r="21.7225355"></circle>
                </g>
                <path d="M1.44159531,108.670465 L72.0205862,108.670465 C69.2986368,96.6767342 60.9276858,94.286887 58.8025011,94.286887 C45.9433085,94.286887 34.8069266,104.361113 21.0689571,98.1694148 C13.1434332,94.5970152 9.65813616,76.3163964 9.20829312,75.2072438 C6.52896488,68.5908477 8.44277077,64.1818923 8.34017499,56.1807839 C8.26520115,50.2192124 7.05970074,41.4674754 1.44159531,30.6732385 L1.44159531,108.670465 Z" id="Fill-59" fill="#3B3B3C" opacity="0.2"></path>
            </g>
        </g>
    </g>
</svg>