<?xml version="1.0" encoding="UTF-8"?>
<svg width="180px" height="180px" viewBox="0 0 180 180" version="1.1" xmlns="http://www.w3.org/2000/svg" xmlns:xlink="http://www.w3.org/1999/xlink">
    <!-- Generator: Sketch 61.2 (89653) - https://sketch.com -->
    <title>coffee</title>
    <desc>Created with Sketch.</desc>
    <g id="coffee" stroke="none" stroke-width="1" fill="none" fill-rule="evenodd">
        <g id="Group">
            <rect id="Rectangle" x="0" y="0" width="180" height="180"></rect>
            <g id="Group-19" transform="translate(51.000000, 36.000000)">
                <path d="M73.78,6.69009271 L73.78,9.10309271 C73.78,9.42609271 74.046,9.71109271 74.369,9.73009271 C79.005,9.99609271 81.779,10.3380927 81.779,10.7180927 L81.779,17.8430927 C81.779,18.1850927 81.5111,18.4510927 81.171,18.4510927 L78.568,18.4510927 C78.245,18.4510927 77.979,18.7170927 77.9581,19.0400927 L77.116,39.844 L79.91605,39.8447127 L78.01605,77.7117127 L75.583,77.711 L74.369,107.694093 C74.369,108.625093 60.575,109.385093 43.551,109.385093 C26.527,109.385093 12.7121,108.625093 12.7121,107.694093 L11.498,77.711 L8.78195,77.7117127 L6.88195,39.8447127 L9.965,39.844 L9.123,19.0400927 C9.123,18.7170927 8.8361,18.4510927 8.5131,18.4510927 L5.6061,18.4510927 C5.2831,18.4510927 5,18.1850927 5,17.8430927 L5,10.7180927 C5,10.3380927 7.793,9.99609271 12.467,9.71109271 C12.7881,9.69209271 13.056,9.42609271 13.056,9.10309271 L13.056,6.69009271 C13.056,5.77771271 26.1012092,5.02956111 42.4151841,5 L44.4196116,5 C60.7147184,5.02956111 73.78,5.77771271 73.78,6.69009271 Z" id="Combined-Shape" fill="#3B3B3C" opacity="0.2"></path>
                <path d="M77.72976,6.66881 L77.72976,13.79381 C77.72976,14.13581 77.46186,14.40181 77.12176,14.40181 L74.51876,14.40181 C74.19576,14.40181 73.92976,14.66781 73.90886,14.99081 L70.31976,103.64481 C70.31976,104.57581 56.52576,105.33581 39.50176,105.33581 C22.47776,105.33581 8.66286,104.57581 8.66286,103.64481 L5.07376,14.99081 C5.07376,14.66781 4.78686,14.40181 4.46386,14.40181 L1.55686,14.40181 C1.23386,14.40181 0.95076,14.13581 0.95076,13.79381 L0.95076,6.66881 C0.95076,6.28881 3.74376,5.94681 8.41776,5.66181 C8.73886,5.64281 9.00676,5.37681 9.00676,5.05381 L9.00676,2.64081 C9.00676,1.70981 22.58986,0.94981 39.36876,0.94981 C56.12676,0.94981 69.73076,1.70981 69.73076,2.64081 L69.73076,5.05381 C69.73076,5.37681 69.99676,5.66181 70.31976,5.68081 C74.95576,5.94681 77.72976,6.28881 77.72976,6.66881" id="Fill-3" fill="#FFFFFF"></path>
                <path d="M77.72976,6.66881 C77.72976,6.28881 74.95576,5.94681 70.31976,5.68081 C69.99676,5.66181 69.73076,5.37681 69.73076,5.05381 L69.73076,2.64081 C69.73076,1.70981 56.12676,0.94981 39.36876,0.94981 C22.58986,0.94981 9.00676,1.70981 9.00676,2.64081 L9.00676,5.05381 C9.00676,5.37681 8.73886,5.64281 8.41776,5.66181 C3.74376,5.94681 0.95076,6.28881 0.95076,6.66881 L0.95076,13.79381 C0.95076,14.13581 1.23386,14.40181 1.55686,14.40181 L4.46386,14.40181 C4.78686,14.40181 5.07376,14.66781 5.07376,14.99081 L8.66286,103.64481 C8.66286,104.57581 22.47776,105.33581 39.50176,105.33581 C56.52576,105.33581 70.31976,104.57581 70.31976,103.64481 L73.90886,14.99081 C73.92976,14.66781 74.19576,14.40181 74.51876,14.40181 L77.12176,14.40181 C77.46186,14.40181 77.72976,14.13581 77.72976,13.79381 L77.72976,6.66881 Z" id="Stroke-5" stroke="#3B3B3C" stroke-width="2"></path>
                <path d="M50.40529,56.64888 C50.329199,42.1451969 49.6585163,28.8071313 48.671239,16.8329994 C48.6504833,16.5812649 15.2307415,15.9207984 7.47610692,15.4263273 L5.76960245,14.5188902 C34.6096608,14.3259501 49.24629,14.22948 49.67949,14.22948 L73.18249,14.22948 L69.65989,103.01078 C67.72569,103.44208 64.91939,104.29138 49.13229,104.29138 C48.76939,104.29138 48.49579,103.82018 48.53569,103.31098 C49.71749,89.51508 50.49649,73.93128 50.40529,56.64888 Z" id="Fill-7" fill="#3B3B3C" opacity="0.2"></path>
                <polygon id="Fill-9" fill="#F1B086" points="75.86681 35.796 73.96681 73.663 4.73271 73.663 2.83271 35.796"></polygon>
                <polygon id="Stroke-11" stroke="#3B3B3C" stroke-width="2" points="73.96681 73.66243 4.73271 73.66243 2.83271 35.79543 75.86681 35.79543"></polygon>
                <path d="M74.91681,36.76443 L73.65711,72.69533 L61.48381,72.69533 C62.47751,68.09733 63.50731,61.55373 63.55861,53.63833 C63.61371,46.80593 62.92211,41.05463 62.15831,36.76443 L74.91681,36.76443 Z" id="Fill-13" fill="#E1A076"></path>
                <path d="M39.34938,40.85019 C47.00638,40.85019 53.21938,47.06319 53.21938,54.72019 C53.21938,62.39619 47.00638,68.60919 39.34938,68.60919 C31.67338,68.60919 25.45848,62.39619 25.45848,54.72019 C25.45848,47.06319 31.67338,40.85019 39.34938,40.85019" id="Fill-15" fill="#73C48F"></path>
                <path d="M53.219,54.71981 C53.219,62.39581 47.006,68.61071 39.349,68.61071 C31.673,68.61071 25.46,62.39581 25.46,54.71981 C25.46,47.06281 31.673,40.84981 39.349,40.84981 C47.006,40.84981 53.219,47.06281 53.219,54.71981 Z" id="Stroke-17" stroke="#3B3B3C" stroke-width="2"></path>
            </g>
        </g>
    </g>
</svg>