<?xml version="1.0" encoding="UTF-8"?>
<svg width="180px" height="180px" viewBox="0 0 180 180" version="1.1" xmlns="http://www.w3.org/2000/svg" xmlns:xlink="http://www.w3.org/1999/xlink">
    <!-- Generator: Sketch 61.2 (89653) - https://sketch.com -->
    <title>wing</title>
    <desc>Created with Sketch.</desc>
    <defs>
        <path d="M26.4379921,43.7404401 C24.7910188,48.9021168 20.0061666,52.5177901 14.4180138,52.740519 L14.128267,52.7490042 L13.8938455,52.7506236 C6.64500117,52.7506236 0.745025,46.9701108 0.745025,39.8617961 C0.745025,36.4128955 2.11988113,33.1714467 4.56426956,30.7720995 L4.72473359,30.6187805 L4.56435041,30.4655094 C2.19893793,28.1442855 0.83485151,25.03308 0.749307342,21.7087282 L0.745025,21.3756039 C0.745025,14.4828997 6.39124764,8.76312031 13.3981189,8.49658079 L13.6582467,8.48921049 L13.9118433,8.48679836 L14.1476047,8.48926154 C19.8050759,8.59473446 24.7400571,12.2539425 26.4304637,17.488543 L26.5047449,17.7291482 L59.0498976,17.7298725 C59.5738022,17.7298725 60.3828383,17.6843369 61.3812962,17.5577722 L61.8958672,17.487573 C63.9083507,17.1938357 65.8756041,16.6690375 67.6532947,15.8590939 C70.3426964,14.6340268 72.0436196,13.3023269 75.5186473,9.993589 L77.2372052,8.36117514 L77.3351858,8.26993201 C83.349564,2.67667694 88.8044031,0.105007222 98.0958899,0.0208385805 L98.5716663,0.0187 L99.2210725,0.0221333558 C120.565113,0.248610389 133.345025,11.6672194 133.345025,30.6187 C133.345025,39.0589944 129.83672,46.8168487 123.46895,52.4571096 C117.087011,58.1092321 108.243129,61.2187 98.5716663,61.2187 C89.2272327,61.2187 83.7296771,58.7384322 77.7100451,53.2428867 L76.9176657,52.5071456 L75.8821138,51.523895 C69.826694,45.7474901 66.4582768,43.8060864 59.3759126,43.5210137 L58.9996927,43.5075275 L26.5087937,43.5068032 L26.4379921,43.7404401 Z" id="path-1"></path>
    </defs>
    <g id="wing" stroke="none" stroke-width="1" fill="none" fill-rule="evenodd">
        <g id="Group-9">
            <rect id="Rectangle" x="0" y="0" width="180" height="180"></rect>
            <g id="Group-34" transform="translate(23.000000, 59.000000)">
                <path d="M129.18691,72.115105 C130.45766,72.204355 132.72716,72.351405 133.65196,74.049705 C134.12626,74.920105 134.33791,76.307305 133.65196,77.176005 C132.89886,78.129705 131.42581,77.997105 129.26171,77.771005 C128.98291,77.742105 123.08476,77.102905 123.08476,75.623055 C123.08476,74.995755 123.26921,74.453455 123.47746,74.104105 C124.84851,71.809105 128.64461,72.076855 129.18691,72.115105" id="Fill-22" stroke="#231F20" stroke-width="1.7" fill="#DF876D"></path>
                <path d="M117.659635,78.9072 C118.223185,78.2153 119.838185,78.8579 119.958885,78.9072 C121.455735,79.52005 122.606635,81.13335 122.258135,81.7088 C121.955535,82.20945 120.559835,81.85925 119.958885,81.7088 C119.187935,81.51585 118.084635,81.23875 117.659635,80.308 C117.640935,80.2655 117.258435,79.4002 117.659635,78.9072" id="Fill-26" stroke="#231F20" stroke-width="1.7" fill="#DF876D"></path>
                <path d="M29.6879921,48.6904401 C28.0410188,53.8521168 23.2561666,57.4677901 17.6680138,57.690519 L17.378267,57.6990042 L17.1438455,57.7006236 C9.89500117,57.7006236 3.995025,51.9201108 3.995025,44.8117961 C3.995025,41.3628955 5.36988113,38.1214467 7.81426956,35.7220995 L7.97473359,35.5687805 L7.81435041,35.4155094 C5.44893793,33.0942855 4.08485151,29.98308 3.99930734,26.6587282 L3.995025,26.3256039 C3.995025,19.4328997 9.64124764,13.7131203 16.6481189,13.4465808 L16.9082467,13.4392105 L17.1618433,13.4367984 L17.3976047,13.4392615 C23.0550759,13.5447345 27.9900571,17.2039425 29.6804637,22.438543 L29.7547449,22.6791482 L62.2998976,22.6798725 C62.8238022,22.6798725 63.6328383,22.6343369 64.6312962,22.5077722 L65.1458672,22.437573 C67.1583507,22.1438357 69.1256041,21.6190375 70.9032947,20.8090939 C73.5926964,19.5840268 75.2936196,18.2523269 78.7686473,14.943589 L80.4872052,13.3111751 L80.5851858,13.219932 C86.599564,7.62667694 92.0544031,5.05500722 101.34589,4.97083858 L101.821666,4.9687 L102.471073,4.97213336 C123.815113,5.19861039 136.595025,16.6172194 136.595025,35.5687 C136.595025,44.0089944 133.08672,51.7668487 126.71895,57.4071096 C120.337011,63.0592321 111.493129,66.1687 101.821666,66.1687 C92.4772327,66.1687 86.9796771,63.6884322 80.9600451,58.1928867 L80.1676657,57.4571456 L79.1321138,56.473895 C73.076694,50.6974901 69.7082768,48.7560864 62.6259126,48.4710137 L62.2496927,48.4575275 L29.7587937,48.4568032 L29.6879921,48.6904401 Z" id="Path" fill="#3B3B3C" opacity="0.2"></path>
                <mask id="mask-2" fill="white">
                    <use xlink:href="#path-1"></use>
                </mask>
                <path stroke="#231F20" stroke-width="1.7" d="M27.1280407,44.356817 C25.2637287,49.6840196 20.2490989,53.3587813 14.4428952,53.5901548 L14.1341388,53.5989839 L13.8938455,53.6006236 C6.17835774,53.6006236 -0.104975,47.4424563 -0.104975,39.8617961 C-0.104975,36.4104225 1.18785507,33.1389162 3.52797503,30.6191758 C1.27256424,28.1938104 -0.0148263853,25.0563686 -0.100622434,21.7196541 L-0.104975,21.3756039 C-0.104975,14.0313139 5.89679988,7.93131421 13.3740452,7.64692177 L13.6501622,7.63924894 L13.9207234,7.63684475 L14.1634486,7.63940922 C20.0320205,7.74881771 25.2039842,11.4610486 27.1213049,16.8791619 L59.0498976,16.8798725 C59.6121498,16.8798725 60.4015004,16.8251695 61.2664012,16.7155732 L61.7731039,16.6464849 C63.7986244,16.3508447 65.6669124,15.830054 67.3009398,15.0855656 C69.8001693,13.9471252 71.3899162,12.7510762 74.933251,9.37730078 L76.657932,7.73912811 L76.7563315,7.64749508 C83.2328477,1.62446062 88.9772173,-0.746593121 98.0920693,-0.829152833 L98.5761602,-0.831288121 L99.2300912,-0.827818798 C121.035342,-0.596447957 134.195025,11.1916292 134.195025,30.6187 C134.195025,39.3029021 130.582008,47.2922006 124.032504,53.0934319 C117.491253,58.8866486 108.446893,62.0687 98.5716663,62.0687 C89.3903196,62.0687 83.601597,59.7724465 77.1316785,53.8657768 L76.3323925,53.1235508 L75.2954097,52.1389383 C69.0963281,46.2254912 65.9176011,44.635012 59.3454625,44.3704681 L58.9996738,44.3575275 L27.1280407,44.356817 Z"></path>
                <path d="M13.0174667,5.1 L13.3212,5.10204 C20.8624,5.22954 27.0912,10.10616 28.3526,16.49544 L28.4115333,16.8147 L80.1108,16.8147 L80.2649333,16.81878 C81.4844,16.88916 82.45,17.78778 82.45,18.8853 L82.45,42.3147 C82.45,43.41324 81.4844,44.31084 80.2649333,44.38122 L80.1108,44.3853 L28.4115333,44.3853 L28.4047333,44.42202 C27.2748,50.949 20.9734667,55.96842 13.3212,56.09796 L13.0174667,56.1 C4.42,56.1 -2.55,49.92798 -2.55,42.3147 C-2.55,37.36974 0.256332829,33.0514 4.67406616,30.6187 C0.256332829,28.186 -2.55,23.83026 -2.55,18.8853 C-2.55,11.36178 4.2568,5.24586 12.7148667,5.10204 L13.0174667,5.1 Z" id="Fill-1" fill="#FFFFFF" mask="url(#mask-2)"></path>
                <path d="M40.603376,45.0812816 C38.5949804,45.1329459 42.2824271,43.9183282 41.4035014,40.6584116 C40.8680639,38.6708553 39.332412,37.2101131 39.1112229,33.8731658 C38.8703789,30.2396965 44.4149343,30.520822 44.4149343,29.0013642 C44.4149343,26.9185837 39.8685345,25.6808175 40.2955534,20.6165349 C40.4152122,19.1974264 37.9573361,21.4922269 36.4609902,21.3177259 C29.7934621,20.5401714 29.550283,25.2421873 26.0830729,23.456223 C24.8939976,22.8443555 23.513461,17.8928904 22.9664227,16.7135243 C22.4193845,15.5341582 21.7903232,14.6381353 20.4438765,13.2372606 C17.6144932,10.2935041 14.4844251,10.1359487 11.5208898,10.7182613 C4.67045695,12.0643201 3.04992765,17.3047334 2.79225749,19.6308796 C2.53458733,21.9570258 1.74893027,23.9950573 4.93522594,27.9277544 C8.1215216,31.8604516 16.6846299,29.8403107 16.8674869,30.4916862 C17.0422617,31.1126709 11.2083689,33.5046664 5.7398349,31.2263717 C4.22242532,30.5942437 1.72268862,27.9398746 0.371971837,25.62815 C-2.32542069,21.0117921 0.719196596,18.2045208 1.19704928,16.9990203 C2.56089943,13.5547331 5.6724983,9.19568371 12.1078505,8.48757878 C13.531306,8.33157283 19.4668842,5.51351268 23.2503056,10.1359487 C25.9578007,13.4424645 26.7084234,16.3498481 26.7771211,17.6991983 L55.1076698,16.8300222 C49.7320797,18.1155518 47.9590355,19.4475033 45.1818324,20.6165349 C43.6442177,21.2638583 50.2707482,29.8030825 48.9361956,30.2396965 C48.2007268,30.4797836 50.8717576,41.0058794 48.4754224,45.0812816 L40.603376,45.0812816 Z" id="Fill-10" fill="#ECDFE6" mask="url(#mask-2)"></path>
                <path d="M45.8978004,25.7860196 L45.8949255,25.7829628 C45.2302138,25.0727022 44.908764,24.6047752 44.671291,24.046775 C44.6450444,23.9851023 44.6198815,23.9230068 44.5897761,23.846408 C44.3734664,23.2960398 44.3285925,23.1933502 44.129642,22.8424511 C43.4755637,21.6888194 43.3037876,20.4119062 44.0157807,19.2251008 C44.9080527,17.7377926 47.0465489,16.7627077 50.6347378,16.3336778 L50.9627074,16.2945387 L51.0962101,16.2891823 L51.4798389,16.3040198 C52.1146255,16.3230318 52.7589223,16.3238827 53.411039,16.3056607 L53.9363203,16.2869344 L54.3972582,16.2805381 C55.0400843,16.2616823 55.8171483,16.2050783 56.6581969,16.1105263 L57.2323524,16.0414189 C58.1758926,15.9204242 58.9141859,15.9619335 60.4916327,16.1494171 C62.4727155,16.3848739 63.2838927,16.3824699 64.2245174,16.0169202 C64.5647931,15.8846807 64.8978425,15.74638 65.223625,15.6019706 C68.4551651,14.1699591 70.6601654,12.5967884 74.6744992,8.90683957 L76.3146292,7.38546728 C80.2073751,3.78528052 82.366066,2.1713015 85.3973813,0.658366398 C89.7292076,-1.50365621 94.7625625,-2.549575 101.040595,-2.549575 C125.785739,-2.549575 140.04056,9.84055521 140.04056,30.6008916 C140.04056,49.6208743 123.43948,63.750425 101.040595,63.750425 C94.8240221,63.750425 89.822633,62.704729 85.5000945,60.5439141 C82.3904766,58.989432 80.1959055,57.333508 76.0426891,53.482978 L74.7761913,52.3111854 C71.3799088,49.1934404 69.5258963,47.7844867 66.9782328,46.4150181 C64.6727181,45.1757138 62.6784089,44.9405613 57.3653658,44.9469735 C55.69734,44.9489866 54.9167511,44.9435741 53.9185386,44.9137492 L53.3982005,44.9009905 C52.5867113,44.8853099 51.8027867,44.8900828 50.9988502,44.914015 L48.019696,44.9128074 L48.0150293,44.0678444 L48.0059144,42.1799244 C47.9619278,41.4607688 47.8490009,40.7490563 47.6596839,40.0285199 C47.3814308,38.9677536 46.9759089,38.0334532 46.3726211,37.0373534 C46.2100841,36.7689856 45.688897,35.9757358 45.3992183,35.5455957 L45.2699889,35.3457119 C44.9904186,34.8988573 44.8278681,34.5652405 44.7432765,34.2358976 C44.6604145,33.9132885 44.6595348,33.6052318 44.7454948,33.2907642 C44.9468723,32.5541838 45.3787525,32.2255628 46.5669943,31.7069947 L46.7756615,31.6146009 C47.8589495,31.1266162 48.1709593,30.8502364 48.3889499,30.2206246 C48.7121507,29.2882939 48.3398196,28.410047 46.8831999,26.8285783 L45.8978004,25.7860196 Z" id="Path" stroke="#231F20" stroke-width="1.7" fill="#DF876D" mask="url(#mask-2)"></path>
                <path d="M3.171945,42.21695 C3.823895,45.2098 6.118895,47.69605 9.005495,48.67355 C9.439845,48.8206 9.934545,48.50355 10.050995,48.0794 C10.178495,47.61445 9.893745,47.1818 9.457695,47.0339 C9.295345,46.9795 9.133845,46.92085 8.975745,46.8554 C9.104095,46.90895 8.880545,46.81035 8.865245,46.80355 C8.800645,46.77295 8.736895,46.74235 8.673145,46.7109 C8.379895,46.56385 8.095995,46.3981 7.823145,46.2162 C7.752595,46.1686 7.682045,46.12015 7.612345,46.07 C7.591095,46.05555 7.401545,45.91445 7.510345,45.99775 C7.385395,45.90255 7.265545,45.80055 7.148245,45.69685 C6.901745,45.4801 6.667995,45.24805 6.448695,45.00325 C6.344145,44.8868 6.242995,44.76695 6.145245,44.64285 C6.109545,44.5978 6.109545,44.59865 6.146945,44.64625 C6.121445,44.61225 6.095095,44.5774 6.070445,44.54255 C6.027945,44.4856 5.987145,44.4278 5.946345,44.3683 C5.751695,44.08695 5.574895,43.79285 5.417645,43.48855 C5.345395,43.35 5.279095,43.20805 5.213645,43.06525 C5.190695,43.01085 5.190695,43.01255 5.215345,43.0712 C5.205145,43.04485 5.194095,43.0185 5.183045,42.99215 C5.152445,42.91225 5.121845,42.83235 5.092945,42.75245 C4.976495,42.42945 4.883845,42.09965 4.811595,41.76475 C4.712995,41.31595 4.190245,41.05415 3.765245,41.17145 C3.301995,41.29895 3.074195,41.7673 3.171945,42.21695" id="Fill-16" fill="#ECDFE6" mask="url(#mask-2)"></path>
                <path d="M13.663325,49.25189 C14.757275,49.25189 14.758975,47.55189 13.663325,47.55189 C12.569375,47.55189 12.567675,49.25189 13.663325,49.25189" id="Fill-18" fill="#ECDFE6" mask="url(#mask-2)"></path>
                <path d="M70.9560253,43.1141271 C75.1528449,46.351699 77.3621577,49.0831916 81.5438407,52.0648786 C81.6117798,52.1133215 88.9510285,56.0265359 91.9927367,57.04079 C95.0912411,58.0739827 98.4706978,58.4113418 100.438647,58.506047 C108.361301,58.8867068 113.491912,55.3020759 115.633985,53.8557526 C116.814065,53.0594933 122.211917,49.2924326 126.004723,41.993695 C129.359632,35.5399486 129.809597,32.5018017 130.113021,28.4386723 C130.651772,21.2006196 129.785461,15.989994 130.339727,16.2584787 C131.094841,16.6235076 133.37311,22.3848945 133.842039,29.2763077 C134.055815,32.4116939 134.368722,39.9016808 130.144053,47.6656692 C125.828875,55.5951619 119.354383,59.1387918 116.427026,60.6366053 C109.376717,64.244598 102.924637,64.2528733 99.6835125,64.2485602 C97.4336891,64.2455175 94.4890926,64.0726575 90.8126569,62.9904436 C84.1433527,61.0264598 80.8082696,57.0083843 79.8281741,56.0438623 C79.4575135,55.6797529 77.809367,54.1387244 77.0180498,53.2174174 C74.8363245,50.6760077 72.7433853,49.3850745 72.4813369,49.1441739 C64.2216402,41.550287 48.9064628,44.7242908 48.8231451,43.9758438 C48.7504405,43.3202631 62.8783995,38.0902014 70.9560253,43.1141271 Z" id="Fill-20" fill="#AA6752" mask="url(#mask-2)"></path>
                <path d="M107.47043,46.64171 L107.47043,68.42381 C107.20863,71.02481 109.29708,72.99936 111.19683,72.86676 C112.92403,72.74606 114.60023,70.87436 114.39368,68.54196 C114.42938,64.41011 114.46508,60.27826 114.50163,56.14726 C114.29423,54.55776 115.44853,53.37796 116.39798,53.40091 C117.28538,53.42131 118.30708,54.49656 118.21868,55.95601 L118.21868,65.33576 C118.02148,66.80286 119.08653,67.96311 120.08103,67.99456 C121.10868,68.02601 122.27658,66.86236 122.08703,65.33576 L122.08703,41.62586" id="Fill-30" stroke="#231F20" stroke-width="1.7" fill="#DF876D"></path>
            </g>
        </g>
    </g>
</svg>