<?xml version="1.0" encoding="UTF-8"?>
<svg width="180px" height="181px" viewBox="0 0 180 181" version="1.1" xmlns="http://www.w3.org/2000/svg" xmlns:xlink="http://www.w3.org/1999/xlink">
    <!-- Generator: Sketch 61.2 (89653) - https://sketch.com -->
    <title>yogurt</title>
    <desc>Created with Sketch.</desc>
    <defs>
        <path d="M84.6762345,1.78368 C84.6762345,1.21248 65.9024364,0.75008 42.7457156,0.75008 C19.5876008,0.75008 0.813802772,1.21248 0.813802772,1.78368 C0.813802772,1.82048 0.898840396,1.86048 1.06612752,1.89728 C1.99596515,2.10528 2.69299485,3.00928 2.69299485,4.09568 L2.69299485,5.33408 C2.69299485,6.21728 3.15721663,6.98528 3.85285228,7.36768 C4.03965624,7.47168 4.22785426,7.59808 4.4118701,7.75328 C4.4118701,7.75328 5.22460673,8.44608 5.67488792,9.73568 C6.2938503,11.51008 7.33381861,26.31488 8.26923248,46.65888 L9.3468404,46.65888 L9.3468404,51.85088 C9.3468404,52.42048 24.2995216,52.88448 42.7457156,52.88448 C61.1905156,52.88448 76.1431968,52.42048 76.1431968,51.85088 L76.1431968,46.65888 L77.2208048,46.65888 C77.4006384,43.78848 79.3774147,12.34368 79.8151493,9.73568 C79.8346661,9.16288 80.2960998,8.42208 80.2960998,8.42208 C80.6487968,7.87488 81.1311414,7.53088 81.6190622,7.31168 C82.342579,6.98528 82.7970424,6.15648 82.7970424,5.26528 L82.7970424,4.09568 C82.7970424,3.00928 83.492678,2.10528 84.4239097,1.89728 C84.5898028,1.86048 84.6762345,1.82048 84.6762345,1.78368 Z" id="path-1"></path>
    </defs>
    <g id="yogurt" stroke="none" stroke-width="1" fill="none" fill-rule="evenodd" transform="translate(0.000000, 0.000000)">
        <g id="Group-8">
            <rect id="Rectangle" x="0" y="0" width="180" height="180"></rect>
            <path d="M80.7224,88.08768 L80.7224,88.08768 C79.3336,88.97728 77.4872,88.59648 76.5608,87.23168 L45.324,41.10528 C44.364,39.68768 44.7608,37.75808 46.204,36.83648 L48.6312,35.27968 C50.0744,34.35808 51.9928,34.80448 52.8776,36.27008 L81.6872,83.95008 C82.54,85.36288 82.1112,87.19808 80.7224,88.08768" id="Fill-1" fill="#ECDFE6"></path>
            <path d="M80.7224,88.08768 L80.7224,88.08768 C79.3336,88.97728 77.4872,88.59648 76.5608,87.23168 L45.324,41.10528 C44.364,39.68768 44.7608,37.75808 46.204,36.83648 L48.6312,35.27968 C50.0744,34.35808 51.9928,34.80448 52.8776,36.27008 L81.6872,83.95008 C82.54,85.36288 82.1112,87.19808 80.7224,88.08768 Z" id="Stroke-3" stroke="#3B3B3C" stroke-width="2"></path>
            <g id="Group-53" transform="translate(46.500000, 71.000000)">
                <path d="M87.9341513,6.2992 C87.9341513,5.7296 69.1603533,5.2656 46.0022384,5.2656 C22.8455176,5.2656 4.0717196,5.7296 4.0717196,6.2992 C4.0717196,6.3376 4.15675723,6.376 4.3226503,6.4128 C5.25388198,6.6224 5.94951762,7.5248 5.94951762,8.6128 L5.94951762,9.8512 C5.94951762,10.7344 6.41513347,11.5024 7.10937505,11.8832 C7.29757307,11.9872 7.48577109,12.1136 7.66839287,12.2688 C7.66839287,12.2688 8.48252356,12.9632 8.93280475,14.2528 C9.55176713,16.0256 10.5917354,30.832 11.5257552,51.1744 L12.6047572,51.1744 L12.6047572,56.3664 C12.6047572,56.936 27.5560444,57.3984 46.0022384,57.3984 C64.4470384,57.3984 79.4011137,56.936 79.4011137,56.3664 L79.4011137,51.1744 L80.4773275,51.1744 C80.6571612,48.3056 82.6339374,16.8592 83.0730661,14.2528 C83.1999255,13.488 83.5540166,12.9376 83.5540166,12.9376 C83.9053196,12.392 84.3890582,12.0464 84.875585,11.8272 C85.5991018,11.5024 86.0535651,10.6736 86.0535651,9.7824 L86.0535651,8.6128 C86.0535651,7.5248 86.7492008,6.6224 87.6804325,6.4128 C87.8477196,6.376 87.9341513,6.3376 87.9341513,6.2992" id="Fill-5" fill="#3B3B3C" opacity="0.2"></path>
                <mask id="mask-2" fill="white">
                    <use xlink:href="#path-1"></use>
                </mask>
                <path stroke="#3B3B3C" stroke-width="2" d="M77.1431968,47.65888 L77.1431968,51.85088 C77.1431968,53.2127891 76.3128127,53.2735196 66.3922154,53.5808006 C60.1551712,53.7739871 51.7298494,53.88448 42.7457156,53.88448 C33.760928,53.88448 25.3352402,53.7739877 19.0979969,53.5808007 C9.17725927,53.2735242 8.3468404,53.2127919 8.3468404,51.85088 L8.3468404,47.65888 L7.3141558,47.65888 L7.27028787,46.7048113 C6.34642906,26.6121181 5.29815798,11.691838 4.73078357,10.0653267 C4.62719773,9.76865813 4.49386751,9.49325978 4.33790665,9.24010901 C4.10621052,8.86402715 3.88323476,8.61667078 3.76715294,8.51770121 C3.64129439,8.4115514 3.50803027,8.32023745 3.37112659,8.24400207 C2.33890561,7.67657671 1.69299485,6.56235545 1.69299485,5.33408 L1.69299485,4.09568 C1.69299485,3.47782882 1.31901306,2.97856354 0.851283385,2.87392835 C0.70594769,2.84195725 0.580316196,2.80406481 0.462862918,2.75058871 C0.0898940051,2.58077717 -0.186197228,2.33301292 -0.186197228,1.78368 C-0.186197228,0.404918368 0.563926917,0.361197137 13.0708301,0.0529835123 C20.8917015,-0.139749977 31.4643428,-0.24992 42.7457156,-0.24992 C54.0264342,-0.24992 64.5987096,-0.139749485 72.4193819,0.0529835263 C84.9261451,0.361200779 85.6762345,0.40492043 85.6762345,1.78368 C85.6762345,2.3362352 85.4006862,2.58099405 85.0252376,2.75123115 C84.9088649,2.80399721 84.784332,2.84163638 84.6418983,2.87323132 C84.1702647,2.97857545 83.7970424,3.47712589 83.7970424,4.09568 L83.7970424,5.26528 C83.7970424,6.54368568 83.1234645,7.73004903 82.0288603,8.22385624 C81.6458153,8.39594044 81.3480562,8.63582254 81.1449037,8.95078776 C81.1060173,9.0132172 81.0358812,9.139829 80.9660138,9.29387483 C80.9064875,9.42512019 80.8610729,9.5483521 80.8353089,9.6506845 C80.8218893,9.70398599 80.8153997,9.74536286 80.8145693,9.76973292 L80.8013545,9.90120767 C80.6175012,10.9965957 80.1141295,17.769427 79.4190365,28.1655916 C79.1659821,31.9504013 78.9014094,36.006852 78.6384338,40.1093993 C78.4664989,42.791669 78.3213517,45.0853026 78.2188479,46.7214085 L78.1601143,47.65888 L77.1431968,47.65888 Z"></path>
                <path d="M84.6762345,1.78368 C84.6762345,1.21248 65.9024364,0.75008 42.7457156,0.75008 C19.5876008,0.75008 0.813802772,1.21248 0.813802772,1.78368 C0.813802772,1.82048 0.898840396,1.86048 1.06612752,1.89728 C1.99596515,2.10528 2.69299485,3.00928 2.69299485,4.09568 L2.69299485,5.33408 C2.69299485,6.21728 3.15721663,6.98528 3.85285228,7.36768 C4.03965624,7.47168 4.22785426,7.59808 4.4118701,7.75328 C4.4118701,7.75328 5.22460673,8.44608 5.67488792,9.73568 C6.2938503,11.51008 7.33381861,26.31488 8.26923248,46.65888 L9.3468404,46.65888 L9.3468404,51.85088 C9.3468404,52.42048 24.2995216,52.88448 42.7457156,52.88448 C61.1905156,52.88448 76.1431968,52.42048 76.1431968,51.85088 L76.1431968,46.65888 L77.2208048,46.65888 C77.4006384,43.78848 79.3774147,12.34368 79.8151493,9.73568 C79.8346661,9.16288 80.2960998,8.42208 80.2960998,8.42208 C80.6487968,7.87488 81.1311414,7.53088 81.6190622,7.31168 C82.342579,6.98528 82.7970424,6.15648 82.7970424,5.26528 L82.7970424,4.09568 C82.7970424,3.00928 83.492678,2.10528 84.4239097,1.89728 C84.5898028,1.86048 84.6762345,1.82048 84.6762345,1.78368" id="Fill-8" fill="#FFFFFF" mask="url(#mask-2)"></path>
                <path d="M19.6842722,19.02896 C18.7266639,18.27216 16.9067876,19.23376 13.3427464,21.12336 C10.998499,22.36656 9.8249732,22.98896 9.0860866,23.69456 C5.15610722,27.45616 5.08600412,33.39376 5.08039588,34.36016 C5.07198351,36.22096 5.06357113,37.68176 5.91602474,39.12336 C7.32369485,41.50416 10.2582103,42.50736 12.5912412,41.88336 C15.4163959,41.12976 16.7946227,38.13776 18.321468,34.82736 C19.9422515,31.31216 20.2605196,28.28176 20.4357773,26.45776 C20.790499,22.79056 21.0498804,20.10576 19.6842722,19.02896" id="Fill-15" fill="#FDBAC4" mask="url(#mask-2)"></path>
                <path d="M20.9877691,9.62896 C21.9930474,8.95856 22.0014598,6.66896 22.0112742,2.18576 C22.0182845,-0.76464 22.0210887,-2.24144 21.7757278,-3.30224 C20.4549856,-8.95984 15.772099,-11.54704 15.0051711,-11.96304 C13.5330062,-12.76144 12.3763052,-13.38864 10.8732948,-13.11824 C8.38603711,-12.67184 6.34603711,-10.06384 5.85110928,-7.38864 C5.25383093,-4.14704 7.04426392,-1.45584 9.02537732,1.52656 C11.1284701,4.68976 13.3984082,6.30256 14.7724289,7.25936 C17.5330887,9.17776 19.5548619,10.58416 20.9877691,9.62896" id="Fill-21" fill="#FFA0A8" mask="url(#mask-2)"></path>
                <path d="M65.6839588,29.22576 C64.1739381,27.80176 61.2758763,28.22256 59.4602062,29.62736 C58.2348041,30.57776 57.5730309,32.80176 56.2985567,37.21616 C54.3833402,43.84976 54.5417732,45.76016 55.0871753,47.32656 C55.3157113,47.98416 55.6802474,49.02736 56.5242887,49.86256 C59.8051134,53.11536 67.390268,50.31536 71.6721649,45.30736 C73.7906804,42.83056 76.6803299,37.88976 75.1955464,34.98896 C74.5379794,33.70256 72.9396289,32.65456 71.4380206,32.44176 C69.6405773,32.18896 68.8343918,33.25296 67.6804948,32.57616 C66.4410722,31.84976 66.8280412,30.30576 65.6839588,29.22576" id="Fill-27" fill="#FDBAC4" mask="url(#mask-2)"></path>
                <path d="M41.6942598,54.74768 C43.4384247,49.19248 31.5265072,36.22448 24.3311258,39.14288 C22.1621361,40.02448 20.2679505,42.41008 19.3397856,44.96528 C18.194301,48.11568 18.4060124,51.84528 19.6650639,54.25168" id="Fill-33" fill="#FFA0A8" mask="url(#mask-2)"></path>
                <path d="M80.4853149,9.42272 L5.35714059,10.42912 L9.10158416,12.69152 L75.0749703,13.41152 C73.3728238,14.78912 72.6130614,16.21952 72.2854574,17.47232 C70.9903762,22.43072 75.2227406,29.33312 73.9165069,36.51552 C73.7352792,37.51712 72.8472634,42.73632 69.1739168,45.98912 C65.2203644,49.48832 61.5484119,48.18912 54.1431683,49.36832 C50.7974257,49.90112 16.001703,52.58112 16.7740119,52.67712 C18.5751366,52.90432 72.2966099,54.62592 76.4467248,52.85152 L76.4467248,47.65792 L77.5117861,47.65792 L79.057798,23.79072 C79.2362376,21.53792 79.4132832,19.28032 79.5903287,17.02112 C79.6990653,15.65632 79.8050139,14.29312 79.9095683,12.92832 L80.4853149,9.42272 Z" id="Fill-12" fill="#3B3B3C" opacity="0.2" mask="url(#mask-2)"></path>
                <g id="Group-52" mask="url(#mask-2)" fill="#FFFFFF" stroke="#3B3B3C" stroke-width="2">
                    <g transform="translate(51.500000, 0.000000)" id="Fill-48">
                        <path d="M-3.09305874,-0.101290861 L27.1956351,0.389522577 L25.1506613,2.11108684 L23.2697692,3.6945182 C22.3183617,4.49689775 21.7449072,5.79291254 21.7449072,7.17968 L21.7449072,14.95088 L21.7379202,15.0688849 C21.5148267,16.9462208 20.1559072,18.446942 18.4846689,18.5598206 C16.4734527,18.6952488 14.7689302,16.8100343 14.7563711,14.52848 L14.7581105,8.56392502 C14.8274256,7.39024077 14.029848,6.43496956 13.2068421,6.46538504 C12.410337,6.49509545 11.6791097,7.43312482 11.7496082,8.62288 L11.7482862,20.8594764 C11.8808573,23.4350912 10.3393893,25.7765143 8.30999075,26.0417298 C5.8989163,26.3552798 3.68701868,23.7285445 3.85674227,20.73808 L3.85674227,8.18928 C3.85674227,6.20925869 2.98124687,4.37463947 1.55773754,3.32406379 L-3.09305874,-0.101290861 Z"></path>
                    </g>
                </g>
            </g>
        </g>
    </g>
</svg>