<?xml version="1.0" encoding="UTF-8"?>
<svg width="180px" height="181px" viewBox="0 0 180 181" version="1.1" xmlns="http://www.w3.org/2000/svg" xmlns:xlink="http://www.w3.org/1999/xlink">
    <!-- Generator: Sketch 61.2 (89653) - https://sketch.com -->
    <title>burp</title>
    <desc>Created with Sketch.</desc>
    <g id="burp" stroke="none" stroke-width="1" fill="none" fill-rule="evenodd" transform="translate(0.000000, 0.000000)">
        <g id="Group-5">
            <rect id="Rectangle" x="0" y="0" width="180" height="180"></rect>
            <path d="M152.527,38 C157.479467,38 161.633508,41.4201716 162.75487,46.0281193 C163.009565,46.009412 163.267183,46 163.527,46 C169.34,46 174.053,50.713 174.053,56.526 C174.053,61.5198906 170.574638,65.7019418 165.908696,66.7813702 C166.003654,67.3478995 166.053,67.9311911 166.053,68.526 C166.053,72.7392924 163.577061,76.374708 160.000908,78.0565214 L160,124.020563 C160,126.627727 157.873458,128.739675 155.251008,128.739675 L94.876,128.739 L91.0520369,132.563933 C90.4706138,133.145356 89.5280826,133.145356 88.9466594,132.563933 L85.123,128.739 L38.9837893,128.739546 C38.3820009,133.981022 33.9295775,138.052 28.527,138.052 C23.5736806,138.052 19.4195142,134.631103 18.298133,130.023558 C18.0436755,130.042613 17.7864332,130.052 17.527,130.052 C11.713,130.052 7,125.339 7,119.526 C7,114.537463 10.4709086,110.359026 15.1299338,109.274112 C14.4073426,107.848844 14,106.234958 14,104.526 C14,100.333016 16.4521279,96.7123521 20.0008315,95.0199345 L20,51.7178979 C20,49.1119481 22.1253206,47 24.7477709,47 L142.109742,47.0003697 C142.848797,41.9095514 147.231148,38 152.527,38 Z M131.1626,78.2728 C128.9114,78.4156 127.8062,78.478 125.6282,78.5836 C121.5254,92.2828 112.4354,95.0812 119.189,108.4708 C121.1294,107.8576 122.1566,107.572 124.3286,107.0116 C123.2054,103.108 123.377,101.3644 123.9002,97.8436 C124.6406,98.7088 126.0014,99.1552 128.003,99.142 C130.817,99.1252 133.0862,98.3872 134.8706,96.8944 C136.6574,95.4028 138.1526,93.5428 138.9614,91.3936 C139.7702,89.2444 140.1386,87.1144 140.1386,85.048 C140.1386,82.852 139.6298,81.3328 138.7106,80.4508 C137.7902,79.5688 136.5902,79.18 135.071,79.3048 C133.2518,79.4548 131.657,80.1616 130.1534,81.4384 C130.5902,80.1844 130.7918,79.5508 131.1626,78.2728 Z M120.655951,80.3842566 L120.47852,80.38552 C119.69132,80.41432 118.93172,80.66752 118.18052,81.13432 C117.42812,81.60352 116.55812,82.26232 115.53572,83.08312 C115.97852,82.07872 116.18492,81.56512 116.54492,80.50912 C114.47012,80.56192 113.44892,80.57992 111.42092,80.60392 C108.67292,88.99792 103.80932,91.27072 102.20852,98.35432 C104.32532,98.44792 105.52412,98.50552 107.82332,98.59312 C108.71732,93.23512 111.56732,90.98512 114.40532,85.37752 C115.11212,84.85792 115.69412,84.44152 116.10932,84.21112 C116.52452,83.98072 116.98532,83.85712 117.49772,83.84632 C117.69212,83.84152 117.80492,83.91832 117.83372,84.07792 C117.86252,84.23632 117.87092,84.49432 117.83972,84.83032 C117.79172,85.35232 117.82892,85.72192 117.94532,85.97512 C118.06052,86.22832 118.39412,86.34952 118.95212,86.33512 C119.81132,86.31472 120.56612,86.02552 121.18052,85.46152 C121.79492,84.89992 122.22692,84.19072 122.41292,83.40112 C122.61212,82.55752 122.52932,81.83272 122.18492,81.23872 C121.84172,80.64472 121.26332,80.35552 120.47852,80.38552 Z M51.27872,71.20048 C49.09472,71.52088 47.96912,71.67568 45.63152,71.98648 C45.43352,79.84888 43.48592,83.56048 41.34512,91.60768 C41.11232,92.33368 40.99952,93.09088 40.99952,93.87568 C40.99952,95.47168 41.57432,96.63688 42.60992,97.40488 C43.64672,98.17408 45.09512,98.47528 46.98032,98.31088 C49.69592,98.07088 51.89672,97.14928 53.85632,95.52688 C55.81352,93.90568 57.29912,92.23888 58.47632,90.31648 C59.65232,88.39408 60.46592,86.64208 60.77072,84.98968 C61.52672,80.89408 58.72952,78.80488 55.14992,78.78928 C54.60392,78.78808 54.06872,78.85528 53.53952,78.98968 C53.01032,79.12648 52.35032,79.40608 51.52952,79.83448 C51.96032,76.47688 52.07912,74.81008 51.27872,71.20048 Z M98.1956,80.31004 C96.4568,88.31404 91.0508,90.24004 88.8692,97.68244 C90.8612,97.78564 91.8608,97.84084 93.884,97.94644 C95.3,92.40124 98.3516,90.47764 101.3888,85.08124 C102.0848,84.60364 102.6008,84.24724 102.9884,84.04804 C103.3772,83.84764 103.8104,83.75524 104.2892,83.77324 C104.4716,83.77924 104.5772,83.85964 104.6024,84.01324 C104.6264,84.16684 104.63,84.41284 104.5904,84.72964 C104.5304,85.22164 104.5136,85.59604 104.5856,85.85284 C104.66,86.11084 104.9432,86.24884 105.4448,86.26684 C106.2176,86.29444 106.9352,86.05204 107.5664,85.52644 C108.1976,85.00204 108.632,84.36844 108.8456,83.62324 C109.0736,82.82644 109.0184,82.11964 108.7016,81.52684 C108.3824,80.93524 107.8208,80.61964 107.0648,80.60044 C106.3076,80.58244 105.5828,80.78644 104.8796,81.19684 C104.1764,81.60844 103.3664,82.19644 102.4208,82.93204 C102.8084,81.98764 102.9788,81.50164 103.25,80.49244 C101.222,80.42644 100.214,80.38924 98.1956,80.31004 Z M64.99388,79.03348 C64.95308,83.70268 63.34388,85.80508 61.00508,90.44668 C60.53228,91.41028 60.22148,92.20348 60.06788,92.81428 C59.69828,94.27948 59.78108,95.45788 60.31868,96.24508 C60.85508,97.03228 61.72268,97.41388 62.89148,97.38028 C63.83948,97.35268 64.81988,97.05388 65.85668,96.50188 C66.89228,95.95108 68.02388,94.92748 69.28508,93.60028 C69.01748,94.74028 69.09068,95.67988 69.51548,96.31108 C69.94148,96.94108 70.66988,97.26028 71.66708,97.26028 C72.93908,97.26148 74.31908,96.77308 75.84188,95.84188 C76.16708,95.64388 76.50068,95.40028 76.84148,95.12908 C76.52348,95.74948 76.21508,96.39628 75.92468,97.10548 C77.92148,97.16908 78.91268,97.20868 80.89148,97.29388 C83.00228,91.47268 86.02748,89.54068 88.72028,84.35188 C89.39228,83.90068 89.85908,83.56348 90.22508,83.37868 C90.59228,83.19268 91.01588,83.11228 91.49468,83.13988 C91.67588,83.14948 91.79108,83.23108 91.83188,83.38108 C91.87388,83.53108 91.90388,83.76988 91.89788,84.08068 C91.88828,84.55948 91.87868,84.92188 91.96028,85.17388 C92.04068,85.42588 92.32388,85.56628 92.81708,85.59868 C93.57428,85.64668 94.26788,85.43428 94.87268,84.94588 C95.47868,84.45988 95.83988,83.84908 95.97428,83.12788 C96.11948,82.35748 95.98508,81.66508 95.59028,81.07348 C95.19548,80.48308 94.59308,80.16268 93.84188,80.13028 C93.09068,80.09788 92.40188,80.28148 91.75868,80.66308 C91.11428,81.04588 90.38468,81.59548 89.52308,82.29028 C89.79668,81.38548 89.90348,80.92348 90.03068,79.96468 C87.98948,79.87468 86.96468,79.82788 84.88988,79.74028 C84.43028,84.72148 82.06268,87.31348 79.59428,90.71548 C79.58348,90.71548 79.57628,90.71428 79.56548,90.71428 C78.87668,91.60348 78.18428,92.32228 77.48708,92.86468 C76.78868,93.40468 76.12868,93.67348 75.49268,93.65068 C74.99108,93.63388 74.66948,93.51988 74.53148,93.30988 C74.39348,93.09988 74.41748,92.75788 74.61308,92.28868 C74.77868,91.89028 74.98628,91.51948 75.23108,91.17748 C78.29708,86.50708 80.40908,84.62548 80.75108,79.56748 C78.63908,79.48468 77.52428,79.43908 75.20948,79.34908 C74.99588,84.04708 73.19708,85.96108 70.46828,90.40948 C69.80468,91.35628 69.13268,92.11468 68.45348,92.67508 C67.77308,93.23548 67.10708,93.52228 66.42548,93.52588 C65.69708,93.53068 65.47508,93.03268 65.79548,92.05228 C65.89748,91.74268 66.04508,91.40908 66.24068,91.05508 C68.95508,86.23228 70.92548,84.15028 71.02268,79.20028 C68.65388,79.12348 67.45028,79.08988 64.99388,79.03348 Z M132.24321,82.453188 L132.381596,82.4547488 C133.554035,82.5078878 134.027686,83.5891429 133.865,85.5592 C133.7498,86.9404 133.4018,88.4416 132.8006,90.0484 C132.1994,91.6552 131.3378,93.0424 130.2254,94.2016 C129.113,95.3608 127.793,95.9476 126.3038,95.9716 C125.3762,95.986 124.829,95.7088 124.6622,95.1508 C126.2918,91.03 127.0958,89.266 128.9258,84.6712 C129.4298,84.0244 129.9554,83.5024 130.5182,83.11 C131.0798,82.7188 131.603,82.5028 132.0986,82.4608 L132.0986,82.4608 L132.24321,82.453188 Z M53.90672,81.4052019 C54.68552,81.39928 55.33472,81.73888 55.83512,82.40968 C56.33552,83.08168 56.47232,83.91088 56.33312,84.88768 C56.14832,86.18248 55.66832,87.52888 54.94832,88.95448 C54.22832,90.38128 53.40152,91.59808 52.48472,92.60848 C51.56912,93.61888 50.69552,94.16848 49.80992,94.23928 C48.29312,94.35928 47.55752,93.84328 47.66312,92.67208 C47.68832,92.39248 47.76032,92.09728 47.88032,91.78528 C49.23992,87.84208 50.47232,85.87888 51.17432,82.10368 C51.37712,81.87808 51.76952,81.70528 52.34432,81.58648 C52.91792,81.46888 53.43752,81.40888 53.90672,81.4052019 Z" id="Combined-Shape" fill="#3B3B3C"></path>
        </g>
    </g>
</svg>