<?xml version="1.0" encoding="UTF-8"?>
<svg width="180px" height="180px" viewBox="0 0 180 180" version="1.1" xmlns="http://www.w3.org/2000/svg" xmlns:xlink="http://www.w3.org/1999/xlink">
    <!-- Generator: Sketch 61.2 (89653) - https://sketch.com -->
    <title>nibble</title>
    <desc>Created with Sketch.</desc>
    <g id="nibble" stroke="none" stroke-width="1" fill="none" fill-rule="evenodd">
        <g id="Group">
            <rect id="Rectangle" x="0" y="0" width="180" height="180"></rect>
            <path d="M155.251008,47 C157.873458,47 160,49.1253087 160,51.7489656 L160,124.50781 C160,127.131466 157.873458,129.256775 155.251008,129.256775 L95.36,129.256 L91.0520369,133.563868 C90.4706138,134.145288 89.5280826,134.145288 88.9466594,133.563868 L84.639,129.256 L24.7477709,129.256775 C22.1253206,129.256775 20,127.131466 20,124.50781 L20,51.7489656 C20,49.1253087 22.1253206,47 24.7477709,47 L155.251008,47 Z M41.2406183,69.955522 L37.7357134,69.955522 L30.9997244,108.290204 L37.0237797,108.290204 L40.4739204,88.8490436 L46.2241549,108.290204 L49.7290597,108.290204 L56.4650487,69.955522 L50.4409935,69.955522 L47.045617,89.3419181 L41.2406183,69.955522 Z M66.6511785,69.955522 L60.6271232,69.955522 L53.8911342,108.290204 L59.9151894,108.290204 L66.6511785,69.955522 Z M79.3016944,69.955522 L71.0323095,69.955522 L64.2963205,108.290204 L73.3871675,108.290204 L73.7934233,108.284287 C76.2127543,108.213291 78.3044106,107.503334 80.0683923,106.154414 C81.1636751,105.351211 82.0399013,104.328953 82.697071,103.08764 C83.3542406,101.919345 83.8288632,100.586758 84.1209386,99.08988 L84.1209386,99.08988 L84.7233441,95.5849948 L84.7735445,95.2077329 C84.8496058,94.5891044 84.8876365,94.0211832 84.8876365,93.5039692 C84.8876365,91.3499252 84.2304668,89.7435195 82.9161275,88.6847521 C84.5955611,87.333911 85.6725891,85.3624131 86.1472117,82.7702584 L86.1472117,82.7702584 L86.8043813,79.2106094 L86.8635266,78.7527838 C86.9336247,78.1452704 86.9686738,77.5494399 86.9686738,76.9652924 C86.9686738,76.3081264 86.9139096,75.7057243 86.8043813,75.1580859 C86.5853248,73.9897909 86.0741928,72.9675327 85.2709855,72.0913114 C83.9201367,70.6674518 81.930373,69.955522 79.3016944,69.955522 L79.3016944,69.955522 Z M97.4283049,69.9552886 L92.8284365,69.955522 L86.0924475,108.290204 L95.1832945,108.290204 L95.5895503,108.284287 C98.0088813,108.213291 100.100538,107.503334 101.864519,106.154414 C102.959802,105.351211 103.836028,104.328953 104.493198,103.08764 C105.150368,101.919345 105.62499,100.586758 105.917066,99.08988 L105.917066,99.08988 L106.519471,95.5849948 L106.569672,95.2077329 C106.645733,94.5891044 106.683764,94.0211832 106.683764,93.5039692 C106.683764,91.3499252 106.026594,89.7435195 104.712255,88.6847521 C106.391688,87.333911 107.468716,85.3624131 107.943339,82.7702584 L107.943339,82.7702584 L108.600508,79.2106094 L108.659654,78.7527838 C108.729752,78.1452704 108.764801,77.5494399 108.764801,76.9652924 C108.764801,76.7206514 108.757211,76.4835997 108.741666,76.2558679 C107.764373,76.2656368 106.710096,75.9794648 105.742983,75.3786142 C104.711694,74.737893 103.957926,73.8496413 103.550077,72.9044408 C102.318122,73.2187562 100.824775,72.9873495 99.4956394,72.1615808 C98.5629059,71.58209 97.8571848,70.8001184 97.4283049,69.9552886 L97.4283049,69.9552886 Z M120.648619,69.955522 L114.624564,69.955522 L107.888575,108.290204 L123.770175,108.290204 L124.810693,102.266182 L114.953148,102.266182 L120.648619,69.955522 Z M149.290263,69.955522 L133.408663,69.955522 L126.672674,108.290204 L142.554274,108.290204 L143.594793,102.266182 L133.737248,102.266182 L135.653993,91.641999 L142.444746,91.641999 L143.485264,85.6179776 L136.694511,85.6179776 L138.3922,75.9795434 L148.249744,75.9795434 L149.290263,69.955522 Z M76.2349027,92.1896373 C77.2206571,92.1896373 77.9325909,92.4086926 78.370704,92.8468033 C78.6627794,93.1753863 78.8088171,93.6865153 78.8088171,94.3801905 C78.8088171,94.6722643 78.7723077,95.0738657 78.6992889,95.5849948 L78.6992889,95.5849948 L78.0968834,99.08988 L78.0468692,99.3500082 C77.8168225,100.451804 77.4136355,101.223062 76.8373082,101.66378 C76.3626856,102.065381 75.5594783,102.266182 74.4276861,102.266182 L74.4276861,102.266182 L71.3608943,102.266182 L73.1681109,92.1896373 Z M98.0310297,92.1896373 C99.0167842,92.1896373 99.728718,92.4086926 100.166831,92.8468033 C100.458906,93.1753863 100.604944,93.6865153 100.604944,94.3801905 C100.604944,94.6722643 100.568435,95.0738657 100.495416,95.5849948 L100.495416,95.5849948 L99.8930104,99.08988 L99.8429962,99.3500082 C99.6129496,100.451804 99.2097626,101.223062 98.6334352,101.66378 C98.1588127,102.065381 97.3556053,102.266182 96.2238131,102.266182 L96.2238131,102.266182 L93.1570214,102.266182 L94.9642379,92.1896373 Z M78.2611758,75.9795434 C79.3564585,75.9795434 80.086647,76.1803441 80.4517413,76.5819455 C80.7073073,76.8740193 80.8350903,77.403403 80.8350903,78.1700966 C80.8350903,78.6447165 80.8168356,78.9915541 80.7803261,79.2106094 L80.7803261,79.2106094 L80.1231565,82.7702584 L80.0609392,83.0586597 C79.7991083,84.1863409 79.3817343,85.0029377 78.8088171,85.50845 C78.2976852,85.9465606 77.5127325,86.1656159 76.4539592,86.1656159 L76.4539592,86.1656159 L74.2086295,86.1656159 L76.0158461,75.9795434 Z M100.057303,75.9795434 C101.152586,75.9795434 101.882774,76.1803441 102.247868,76.5819455 C102.503434,76.8740193 102.631217,77.403403 102.631217,78.1700966 C102.631217,78.6447165 102.612963,78.9915541 102.576453,79.2106094 L102.576453,79.2106094 L101.919283,82.7702584 L101.857066,83.0586597 C101.595235,84.1863409 101.177861,85.0029377 100.604944,85.50845 C100.093812,85.9465606 99.3088596,86.1656159 98.2500862,86.1656159 L98.2500862,86.1656159 L96.0047566,86.1656159 L97.8119731,75.9795434 Z" id="Combined-Shape" fill="#3B3B3C"></path>
        </g>
    </g>
</svg>