<?xml version="1.0" encoding="UTF-8"?>
<svg width="180px" height="181px" viewBox="0 0 180 181" version="1.1" xmlns="http://www.w3.org/2000/svg" xmlns:xlink="http://www.w3.org/1999/xlink">
    <!-- Generator: Sketch 61.2 (89653) - https://sketch.com -->
    <title>sploosh</title>
    <desc>Created with Sketch.</desc>
    <g id="sploosh" stroke="none" stroke-width="1" fill="none" fill-rule="evenodd" transform="translate(0.000000, 0.000000)">
        <g id="Group">
            <rect id="Rectangle" x="0" y="0" width="180" height="180"></rect>
            <path d="M157.358,52.7829741 C158.816,52.9924475 160,54.3679898 160,55.8233315 L160,123.010441 C160,124.465783 158.816,125.450308 157.358,125.239837 C136.287,122.197485 115.214,123.616917 94.142,125.309662 L91.232,128.391914 L91.232,128.391914 C90.546,129.117091 89.452,129.205868 88.766,128.59241 C87.809,127.734566 86.852,126.875725 85.895,126.016884 C85.882,126.004914 85.87,125.992944 85.857,125.979977 C64.785,127.673719 43.712,129.093151 22.64,126.049801 C21.181,125.840328 20,124.464786 20,123.010441 L20,55.8233315 C20,54.3669923 21.182,53.3834646 22.64,53.5929381 C67.546,60.0776373 112.453,46.2992723 157.358,52.7829741 Z M23,56.6372854 L23,123.109193 C44.384,126.145561 65.77,124.611417 87.156,122.882762 C87.445,123.167048 87.734,123.451333 88.023,123.735618 C88.682,124.326134 89.34,124.91665 90,125.507165 C90.662,124.805928 91.324,124.104691 91.986,123.404451 L92.862,122.420923 C114.242,120.693266 135.62,119.16012 157,122.19549 L157,55.7245797 C112.333,49.3815244 67.666,62.9803407 23,56.6372854 Z M141.232713,105.76189 C141.232713,105.76189 147.794316,109.521142 147.794316,113.962292 C147.794316,115.639727 146.440251,117 144.770471,117 C143.099814,117 141.962365,115.36221 141.746626,113.962292 C141.484408,112.26107 141.232713,105.76189 141.232713,105.76189 Z M140.119906,105.76189 C140.119906,105.76189 140.789046,112.380005 138.436095,113.465405 C137.492459,113.900622 136.643537,113.750851 136.214691,112.966755 C135.713933,112.052271 136.154179,110.791552 136.866291,110.032125 C137.612606,109.234815 140.119906,105.76189 140.119906,105.76189 Z M149.760692,106.780509 C150.193923,107.728471 150.044835,108.580404 149.265196,109.012096 C148.354008,109.51427 147.099042,109.072005 146.343081,108.357509 C145.549409,107.606892 142.093211,105.088097 142.093211,105.088097 C142.093211,105.088097 148.681123,104.41677 149.760692,106.780509 Z M34.6568872,71.6425155 C35.4505612,72.393127 38.9076475,74.9119041 38.9076475,74.9119041 C38.9076475,74.9119041 32.3197144,75.5832257 31.2392654,73.2195044 C30.8060334,72.2715491 30.9551213,71.4196227 31.7356405,70.987933 C32.6459539,70.4857634 33.9009236,70.9280251 34.6568872,71.6425155 Z M36.2303788,63 C37.9010408,63 39.038494,64.6377778 39.2542331,66.0376858 C39.5155755,67.7388955 39.767271,74.2380277 39.767271,74.2380277 C39.767271,74.2380277 33.2065246,70.4788035 33.2065246,66.0376858 C33.2065246,64.360263 34.5605939,63 36.2303788,63 Z M44.785308,67.0327745 C45.2860681,67.9472519 44.8458201,69.2088429 44.133706,69.9682644 C43.3873893,70.7646878 40.8800809,74.2375872 40.8800809,74.2375872 C40.8800809,74.2375872 40.2118161,67.6195201 42.5647746,66.5350099 C43.5084136,66.0989152 44.3564609,66.2486851 44.785308,67.0327745 Z M72.8572955,76.7227373 C73.166379,76.7227373 73.4540896,76.8058482 73.7171393,76.9688108 C74.0837649,77.2018472 74.2925606,77.5619945 74.2925606,77.9628823 C74.3385943,86.1110101 74.3616112,89.4908536 74.4076449,94.8343958 C74.4076449,95.7763193 74.4142211,96.6318728 74.4273736,97.5379446 L74.4273736,97.5379446 L74.4668311,100.063864 C74.4783395,100.846084 74.4849157,101.538675 74.4849157,102.144896 L74.4849157,102.77882 C75.9662145,102.729932 77.0266338,102.615858 78.4158652,102.467562 L78.4158652,102.467562 L79.9908755,102.30297 C80.4594328,102.25897 80.8556515,102.492006 81.0397863,102.899413 C81.1236334,103.093338 81.166379,103.295412 81.166379,103.505633 C81.166379,103.712596 81.1236334,103.914669 81.0430744,104.105336 C80.8786683,104.480149 80.5334155,104.714816 80.1191122,104.73763 L80.1191122,104.73763 L78.7331689,104.809334 C76.8540074,104.907111 75.4960132,104.977185 73.2436498,104.988593 C73.1861077,104.996741 73.1203453,105 73.0496506,105 C72.8918208,105 72.7043979,104.980444 72.5251952,104.938074 C71.8774353,104.786519 71.6456227,104.317187 71.6456227,103.929336 C71.6456227,103.03956 71.6374024,101.872749 71.6242499,100.459863 L71.6242499,100.459863 L71.5667078,95.2939502 C71.5206741,89.7532233 71.4960132,86.2837505 71.4516235,77.9759194 C71.4516235,77.5065872 71.6702836,77.1219956 72.0549938,76.9150331 C72.2966708,76.7862927 72.5613646,76.7259965 72.8572955,76.7227373 Z M50.3198473,75.8712627 L50.5848746,75.8761468 C51.4348541,75.9087393 52.2618167,76.1287388 53.0427456,76.527997 C53.8861488,76.9582182 54.6111796,77.73392 55.1981093,78.8339172 C55.7735306,79.9078405 56.0645294,81.1512448 56.0645294,82.529908 C56.0645294,83.2599802 56.0086313,83.8613121 55.8935471,84.366496 L55.8935471,84.366496 L55.8294287,84.6533101 L55.6058364,84.8227911 C55.3427867,85.2187902 55.0287711,85.3638268 54.7969585,85.4159748 C54.5437731,85.4664932 54.1541307,85.4697525 53.729963,85.1487163 C53.404439,84.905902 52.891492,84.3224961 53.1233046,83.1622027 C53.2498972,82.5462042 53.2614057,82.0084278 53.1660501,81.5619104 C53.0591862,81.0828005 52.8849157,80.667246 52.6432388,80.3282838 C52.406494,79.9958402 52.1286478,79.7448779 51.7981915,79.5591006 C51.4710234,79.3733233 51.1372791,79.2673976 50.783806,79.2348051 C50.2757912,79.1924348 49.7546239,79.3146567 49.1726264,79.6210264 C49.0230169,79.7025076 48.9062885,79.8214703 48.8273736,79.9730255 C48.7106453,80.2028027 48.6169338,80.4684316 48.5561036,80.7568754 C48.4903411,81.0648746 48.4574599,81.3826516 48.4574599,81.7297618 C48.4574599,82.0964276 48.4903411,82.4500563 48.5281545,82.7727222 C48.648171,83.7716827 49.0230169,84.8765688 49.6461159,86.0580473 C50.3448418,87.3829329 51.1027538,88.7990775 51.9165639,90.2771479 L51.9165639,90.2771479 L52.6350185,91.5107744 C52.8421702,91.9018846 53.0378134,92.2929947 53.2301685,92.6841048 C53.5540485,93.3408439 53.891081,94.0203978 54.2018085,94.4978781 C54.7525688,95.3452834 55.2129059,96.1209851 55.6140567,96.8706129 L55.6140567,96.8706129 C56.0332922,97.6560924 56.3653925,98.3682388 56.6300863,99.0477926 C56.9260173,99.8055685 57.0690506,100.467197 57.0690506,101.070158 C57.0690506,102.227192 56.5100699,103.123486 55.3625154,103.809559 C54.297164,104.445112 52.6892725,104.813408 50.8347719,104.842741 C50.7986025,104.844371 50.7640773,104.844371 50.7279079,104.844371 C49.91903,104.844371 49.1233046,104.696075 48.4180025,104.415779 C47.6732429,104.117558 47.0386354,103.685707 46.5371969,103.130005 C46.0472667,102.58571 45.6609125,101.937119 45.3929305,101.198898 C45.1315249,100.475345 45,99.7110502 45,98.9239411 C45,97.9869064 45.1824908,97.1215752 45.5458282,96.3540216 C45.9420469,95.5131348 46.5750103,94.9020252 47.4249897,94.5353595 C47.6913276,94.4278042 48.0924784,94.3789154 48.5840526,94.7586182 C48.784628,94.9166919 48.9605425,95.094321 49.1167283,95.294765 C49.27127,95.4935793 49.3912865,95.6842455 49.4817098,95.8749117 C49.6198109,96.1682443 49.6378956,96.4469103 49.5425401,96.7027615 L49.5425401,96.7027615 L49.4225236,97.0221681 L49.0526099,97.2177231 C48.6383066,97.3709079 48.3982737,97.5827593 48.2486642,97.9070548 C48.053021,98.3128315 47.9576654,98.75446 47.9576654,99.220533 C47.9576654,99.5725321 48.0332922,99.9261608 48.1812577,100.268382 C48.3374435,100.635048 48.5478833,100.962603 48.8043568,101.246158 C49.054254,101.519935 49.3567612,101.746453 49.7053021,101.920823 C50.0456227,102.090304 50.4106042,102.201118 50.7870941,102.248377 C51.7324291,102.176674 52.6284423,101.968082 53.2959309,101.620971 C53.9963009,101.255935 53.9963009,100.954455 53.9963009,100.793122 C53.9963009,100.449271 53.8993013,100.030457 53.702014,99.5122359 C53.4882861,98.9483855 53.2104398,98.3372759 52.8553226,97.644685 C52.5018496,96.9618719 52.1006987,96.2432071 51.648582,95.4805423 C51.2457871,94.8026181 50.8347719,94.0529903 50.4138923,93.2349183 L50.4138923,93.2349183 L49.3353884,91.3364045 C48.4673243,89.8518156 47.6354295,88.2515233 46.864365,86.586046 C46.0735717,84.8830873 45.6543362,83.2925727 45.5803535,81.7232433 C45.4882861,79.7905074 45.9140978,78.3629554 46.8824497,77.3574765 C47.8754624,76.3275531 49.162762,75.814221 50.5848746,75.8761468 Z M59.718619,76.7201299 C59.9307028,76.3762789 60.5538019,75.6413178 61.7046445,76.2703532 C61.7441019,76.2915384 61.7983559,76.3127235 61.8624743,76.3355383 L61.8624743,76.3355383 L62.6121661,76.3355383 L62.4526921,76.4773157 C62.6121661,76.5082786 62.7782162,76.5376118 62.9311139,76.5636858 C63.5492807,76.6745004 64.1871763,76.7869445 64.7165639,77.006944 C65.7473901,77.4355355 66.6236745,78.116719 67.3207563,79.0309389 L67.3207563,79.0309389 L67.4837847,79.2564535 C68.068941,80.1064805 68.5150295,81.2102915 68.8119194,82.542782 C69.097986,83.8334455 69.2229346,85.4956635 69.1949856,87.6272138 C69.1719688,89.3220243 69.0470201,90.7560948 68.8184957,92.0092769 C68.55709,93.4091252 68.1477189,94.6183074 67.5624332,95.7085269 C66.9985203,96.7580058 66.2290999,97.462004 65.0683929,97.9900027 C64.287464,98.3468907 63.3782984,98.5538531 62.3606247,98.6092604 L62.3606247,98.6092604 L62.3589807,101.09281 C62.3589807,101.343772 62.3655569,101.588216 62.3770654,101.824512 C62.3918619,102.088511 62.3967941,102.337844 62.3967941,102.57088 L62.3967941,102.57088 L62.3984381,103.841988 C62.3984381,103.973988 62.3556926,104.619319 61.4991369,104.74806 C61.3495273,104.769245 61.1916975,104.780652 61.0305795,104.780652 C60.9993424,104.780652 60.9664612,104.780652 60.9368681,104.779023 C60.7445129,104.774134 60.5587341,104.754578 60.3795314,104.720356 C59.5591451,104.555764 59.5163995,103.933247 59.5163995,103.809396 C59.4868064,99.1568146 59.4720099,94.1261605 59.4407727,78.6251622 C59.3782984,78.3921257 59.3437731,78.1509411 59.340485,77.9048677 L59.340485,77.9048677 L59.0281134,77.8885714 L59.4868064,77.11124 C59.5377723,76.9955366 59.6018907,76.8863517 59.6791615,76.7853149 L59.6791615,76.7853149 Z M86.3502672,75.8046063 C87.2150432,75.7606064 88.0798192,75.9708281 88.9248664,76.4140862 C89.7797781,76.8638629 90.4571311,77.4651947 90.886231,78.1512671 C91.2775175,78.7786729 91.6211262,79.5771894 91.9384299,80.5875573 C92.2129881,81.4545181 92.4201397,82.3312566 92.5681052,83.2634024 L92.5681052,83.2634024 C92.7094945,84.166215 92.8114262,85.0918423 92.8656802,86.0190993 C92.9182902,86.9268007 92.9462392,87.7693171 92.9462392,88.5417596 L92.9462392,88.5417596 L92.9462392,89.4967202 C92.9462392,90.1713852 92.9330867,90.986198 92.9051377,91.9444178 C92.8804768,92.9058969 92.8212906,93.9227832 92.7292232,94.9869287 C92.6371558,96.0510742 92.4842581,97.1396641 92.2721743,98.2217354 C92.0518701,99.3347697 91.7378545,100.341878 91.3399918,101.216987 C90.9174681,102.150763 90.3617756,102.908539 89.6827785,103.46587 C88.9873407,104.039499 88.1061241,104.347498 87.0720099,104.378461 C86.9519934,104.38172 86.8352651,104.38335 86.7185368,104.38335 C85.6186601,104.38335 84.6766132,104.218758 83.9104809,103.891203 C83.0572133,103.524537 82.4127415,103.069871 81.9359638,102.497873 C81.4526099,101.912837 81.1172215,101.275654 80.9067818,100.545581 C80.7325113,99.929583 80.5976983,99.2500292 80.4957665,98.46292 C80.3839704,97.618774 80.319852,96.8463315 80.2951911,96.099963 C80.2705302,95.2590762 80.2573777,94.3986339 80.2573777,93.5202657 C80.2573777,92.7217492 80.263954,91.7716775 80.2771065,90.7042727 C80.2902589,89.6303495 80.3231402,88.5987965 80.374106,87.6373174 C80.5122072,84.9353983 80.9117139,82.6066633 81.5265927,80.9053343 C82.184217,79.0768944 82.8730785,77.8155642 83.6326346,77.0496402 C84.4036991,76.2690495 85.317797,75.8502358 86.3502672,75.8046063 Z M115.554048,75.000549 C116.331689,75.0070675 117.086313,75.0673637 117.793259,75.1814374 C118.630086,75.3166964 119.325524,75.570918 119.91903,75.9587688 C120.861077,76.5747673 121.058364,77.3374321 121.058364,77.86869 C121.058364,78.2712075 120.972873,78.6264659 120.806823,78.926317 L120.806823,78.926317 L120.645705,79.2163903 L120.328401,79.3125382 C119.937115,79.5455747 119.460337,79.587945 118.965475,79.4249824 C118.462392,79.2652791 118.240444,78.9621687 118.145088,78.7356508 C118.018496,78.4390589 118.033292,78.1066153 118.18619,77.8002457 C118.205919,77.7399496 118.095767,77.655209 117.942869,77.5786166 C117.707768,77.4629132 117.406905,77.3700246 117.045212,77.3032099 C116.658857,77.2298768 116.264283,77.1907658 115.835183,77.1826176 C115.223592,77.1630621 114.582409,77.233136 113.964242,77.3732838 C113.699548,77.4368392 113.618989,77.5020242 113.618989,77.5036539 C113.556515,77.5541723 113.512125,77.6046907 113.490752,77.655209 C113.462803,77.7106163 113.451295,77.7660236 113.451295,77.8312086 C113.451295,77.920838 113.469379,78.0349118 113.503905,78.1701707 C113.536786,78.3054296 113.699548,78.7747618 114.444307,79.3989084 C115.147965,79.9904625 115.909166,80.6390534 116.729552,81.3511998 L116.729552,81.3511998 L117.612413,82.0943091 C118.118783,82.5669005 118.695849,83.1030473 119.241677,84.1948964 C119.775997,85.2655604 120.254418,86.4405204 120.66379,87.6904432 C121.066584,88.9240698 121.403617,90.2065851 121.663379,91.5053967 C121.929716,92.8221341 122.062885,94.1062791 122.062885,95.3187205 C122.062885,97.4779743 121.584464,99.3797474 120.640773,100.970262 C119.591862,102.741665 117.863954,103.877514 115.902589,104.086106 C115.784217,104.097513 115.665845,104.104032 115.547472,104.104032 C114.764899,104.104032 113.960954,103.838403 113.244143,103.338108 C112.524044,102.834554 111.91081,102.141963 111.424168,101.278261 C110.970407,100.476485 110.613646,99.5427099 110.36046,98.5062681 C110.115495,97.4942706 109.992191,96.4236066 109.992191,95.325239 C109.992191,94.0443533 110.158241,92.7732454 110.488697,91.5477669 C110.829018,90.2864368 111.350185,89.1945876 112.08508,88.213553 C112.40074,87.7979985 112.916975,87.6757766 113.413481,87.8990353 C113.681463,88.0212572 113.916564,88.2102938 114.112207,88.4628858 C114.274969,88.6747371 114.40485,88.9045143 114.498561,89.1489581 C114.718866,89.7372529 114.513358,90.1430297 114.370325,90.3336959 C113.850801,90.964361 113.505549,91.6667296 113.291821,92.5108756 C113.06494,93.4006512 112.949856,94.2871675 112.949856,95.1476098 C112.949856,95.8141266 113.035347,96.4659769 113.209618,97.0868642 C113.385532,97.7207886 113.620633,98.2895279 113.901767,98.7751563 C114.171393,99.2444885 114.487053,99.6241912 114.840526,99.9044868 C115.106864,100.114708 115.360049,100.245079 115.611591,100.300486 C116.570078,99.9680422 117.370736,99.342266 117.993835,98.4394534 C118.664612,97.4681966 118.990136,96.3616808 118.990136,95.05961 C118.990136,94.1307234 118.879984,93.1089482 118.659679,92.021988 C118.436087,90.9154722 118.145088,89.815475 117.799836,88.7513295 C117.452939,87.687184 117.051788,86.6605199 116.604603,85.6990408 C116.228113,84.8858576 115.851624,84.2649703 115.488286,83.8510454 L115.488286,83.8510454 L115.389642,83.7663049 C115.041102,83.4664538 114.868475,83.3197875 114.519934,83.0329734 C113.633785,82.3289751 112.787094,81.5744585 112.017674,80.8003864 C111.164406,79.9415737 110.664612,78.9931316 110.574188,78.0560969 C110.493629,77.2249879 110.702425,76.1070648 112.157419,75.5122514 C113.030415,75.1553634 114.122072,74.9891416 115.554048,75.000549 Z M125.590675,75.3995658 L125.775175,75.4030665 C125.964242,75.409585 126.146732,75.4340294 126.322647,75.4731404 C126.940814,75.6116586 127.159474,76.0614352 127.159474,76.4069159 L127.159474,76.4069159 L127.170982,78.7975766 C127.179203,80.4157947 127.185779,81.8254208 127.197287,86.3362244 C129.05672,86.9701487 130.279901,87.4932585 131.912454,88.3814045 C131.872996,84.7245247 131.846691,82.7054187 131.812166,80.1436473 L131.812166,80.1436473 L131.771065,76.9316553 C131.771065,76.5161008 132.040691,76.0598056 132.645705,75.9506207 C132.852857,75.9163986 133.079737,75.9082504 133.309905,75.9245467 C133.564735,75.9457318 133.781751,75.9881021 133.982326,76.058176 C134.528155,76.2472126 134.725442,76.6839522 134.72873,77.0326921 C134.830662,86.1341508 134.883272,91.373397 134.980271,100.93441 L134.980271,100.93441 L135,102.818257 C135,103.28596 134.709001,103.668922 134.242088,103.822107 C134.056309,103.885662 133.852446,103.914995 133.638718,103.914995 C133.581176,103.914995 133.523633,103.913366 133.464447,103.908477 C133.178381,103.887292 132.920263,103.818847 132.693383,103.704774 C132.2873,103.5027 132.042335,103.129516 132.042335,102.705813 L132.042335,102.705813 L131.932182,91.5640632 C130.113851,90.6025841 128.958076,90.0974002 127.198931,89.5123646 L127.198931,89.5123646 L127.198931,94.9080548 C127.198931,95.5061274 127.205508,96.1009407 127.217016,96.6908652 C127.230169,97.2938267 127.236745,97.8902696 127.236745,98.4785644 L127.236745,98.4785644 L127.236745,102.027889 C127.236745,102.476036 126.995068,102.863887 126.588985,103.064331 C126.327579,103.191442 126.056309,103.24033 125.773531,103.235441 C125.492396,103.220775 125.224414,103.136034 124.979449,102.986109 C124.607891,102.76122 124.395808,102.386407 124.395808,101.957815 C124.36457,87.3840736 124.34813,82.2898641 124.318537,76.349879 C124.318537,75.9783243 124.555282,75.5155107 125.22277,75.4258813 C125.405261,75.4030665 125.59104,75.3932888 125.775175,75.4030665 Z M101.220633,75.1512894 C101.991697,75.1235857 102.785779,75.1855115 103.57164,75.3452148 C104.413399,75.5163255 105.0776,75.7151398 105.577394,76.1274351 C106.036087,76.5055082 106.432306,77.0269884 106.756186,77.6788386 C107.048829,78.2589853 107.269133,78.8977985 107.426963,79.6295004 L107.426963,79.6295004 C107.574928,80.3269801 107.678504,81.0798672 107.732758,81.8653467 C107.787012,82.6329003 107.813317,83.3890466 107.813317,84.1093411 L107.813317,84.1093411 L107.813317,85.0317091 C107.813317,85.7422259 107.800164,86.6189644 107.773859,87.6977766 C107.749199,88.7814775 107.688368,89.9629561 107.597945,91.2422121 C107.504233,92.5263571 107.35298,93.8691685 107.144184,95.2364244 C106.930456,96.6379024 106.626305,97.9432324 106.241595,99.1165628 C105.825647,100.386041 105.297904,101.425742 104.671517,102.211222 C103.93991,103.127071 103.015947,103.594774 101.921003,103.604552 L101.921003,103.604552 L101.863461,103.604552 C100.548212,103.604552 99.4434032,103.242775 98.5769831,102.527369 C97.7763255,101.864112 97.1433621,101.039521 96.6912454,100.076412 C96.2588574,99.1491554 95.951418,98.1827874 95.7541307,97.1202715 C95.5897246,96.2239775 95.4614879,95.2657576 95.3595561,94.1902048 C95.2674887,93.2368738 95.1885738,92.239543 95.1622688,91.2308048 C95.1376079,90.2318443 95.1244554,89.2736245 95.1244554,88.3545157 C95.1244554,87.5168881 95.1310316,86.6434088 95.1441841,85.7063741 C95.1573366,84.7563024 95.1918619,83.9040082 95.2411837,83.1446027 C95.382573,81.0097933 95.7787916,79.396464 96.4512125,78.2117262 C97.1088368,77.0514328 97.8387998,76.262694 98.6871352,75.7966211 C99.4023017,75.4022517 100.230908,75.19203 101.220633,75.1512894 Z M86.6330456,78.961191 C86.5837238,78.961191 86.534402,78.9628206 86.4900123,78.9677095 C86.0625565,79.0100797 85.7090834,79.2268199 85.3786272,79.6505226 C84.9610358,80.1834101 84.6009864,80.8792602 84.3083436,81.7185174 C84.0058364,82.5773301 83.7723798,83.5404388 83.6096178,84.5817695 C83.4616523,85.5334708 83.3794492,86.5047277 83.3695849,87.4629475 L83.3695849,87.4629475 L83.3103987,90.2707923 C83.2972462,91.2110863 83.292314,92.1073804 83.292314,92.9026376 L83.292314,94.4654485 C83.292314,94.990188 83.3054665,95.4692979 83.3284834,95.9109264 L83.3284834,95.9109264 L83.3301274,96.6426283 C83.3613646,96.8854425 83.3695849,96.9929978 83.3695849,97.0712198 C83.3695849,97.2178861 83.3745171,97.3449969 83.3843814,97.4509226 C83.3958898,97.5698852 83.4139745,97.7035145 83.4369914,97.8534401 C83.5126182,98.4710682 83.6178381,99.0153631 83.7641595,99.5417322 C83.88582,99.9784718 84.0732429,100.345138 84.3362926,100.661285 C84.5829018,100.952988 84.9166461,101.184395 85.3556104,101.366913 C85.7945746,101.55106 86.3568434,101.617875 87.0407727,101.567357 C87.4517879,101.536394 87.7674476,101.373431 88.0354295,101.054025 C88.3905467,100.627063 88.7012741,100.045286 88.9528155,99.3233623 C89.2158652,98.5672161 89.4164406,97.7116626 89.5512536,96.7795168 C89.6893547,95.8327044 89.7912865,94.8793734 89.8537608,93.945598 C89.9178792,93.0118225 89.9556926,92.1578987 89.968845,91.3805674 C89.9819975,90.6016063 89.9885738,89.993756 89.9885738,89.5635349 L89.9885738,88.923092 C90.0148788,88.2516863 90.0017878,87.4971696 89.9507604,86.6790976 C89.8981504,85.8365812 89.8126593,85.0054722 89.6877106,84.2020668 C89.5660501,83.4051799 89.3934238,82.6245892 89.1731196,81.8847392 C88.9199342,81.0308154 88.6716811,80.4229651 88.4168516,80.0237068 C88.1718866,79.6391152 87.7329223,79.2773383 87.211755,79.0280056 C87.0424168,78.9921539 86.8254007,78.961191 86.6330456,78.961191 Z M101.722072,77.4963206 C101.593835,77.4963206 101.465598,77.5012094 101.347226,77.5109872 C100.834279,77.5582463 100.419975,77.7016534 100.087875,77.9477268 C99.6965886,78.2394298 99.3792848,78.6126141 99.1178792,79.0868351 C98.8367448,79.6001671 98.6164406,80.2031286 98.4668311,80.8826825 C98.3254418,81.5263846 98.2465269,82.2189754 98.2366626,82.9408995 L98.2366626,82.9408995 L98.2103576,83.965934 C98.1972051,84.3831182 98.1840526,84.8165986 98.1774764,85.2614863 C98.1643239,86.0844472 98.1593917,86.8845934 98.1593917,87.7124432 L98.1593917,87.7124432 L98.1593917,89.4023649 C98.1593917,89.9955486 98.1725442,90.5626583 98.195561,91.1004347 L98.195561,91.1004347 L98.1972051,91.9804325 C98.1972051,92.0505064 98.1988492,92.1140618 98.2070695,92.1727283 C98.2284423,92.3291724 98.2366626,92.4416166 98.2366626,92.5247275 C98.2366626,92.7300603 98.2415947,92.9093191 98.2531032,93.0608743 C98.2646116,93.2238368 98.2843403,93.4128734 98.3090012,93.6263543 C98.382984,94.47213 98.4980682,95.303239 98.6476778,96.1180518 C98.7874229,96.8823462 99.0077271,97.5749371 99.3085902,98.1811578 C99.5913687,98.7498971 99.9629264,99.2175996 100.413399,99.5695987 C100.817838,99.8873757 101.314344,100.027524 101.935799,100.004709 C102.052528,99.9981903 102.415865,99.981894 102.81866,99.2762661 C103.198438,98.6146382 103.52725,97.7313811 103.79852,96.6509394 C104.068146,95.568868 104.276942,94.4020561 104.415043,93.1830962 C104.554788,91.9592474 104.65672,90.7956947 104.722483,89.6989567 C104.784957,88.6038484 104.82277,87.6423693 104.835923,86.8014825 C104.849075,85.9557068 104.855651,85.3266714 104.855651,84.906228 L104.855651,84.3179331 C104.881956,83.6546755 104.868804,82.9783809 104.819482,82.2727531 C104.77016,81.5736437 104.684669,80.9136453 104.561365,80.3155728 C104.444636,79.7305372 104.283518,79.2286125 104.087875,78.8228358 C103.89552,78.4252071 103.673572,78.1155783 103.464776,77.9477268 C103.343115,77.8515789 103.022524,77.6658016 102.277764,77.5207649 C102.096917,77.5060983 101.906206,77.4963206 101.722072,77.4963206 Z M62.3244554,80.0461957 L62.3507604,84.6564064 C62.3770654,89.4393574 62.3967941,93.1581629 62.4263872,96.0002299 C62.9738594,95.943193 63.3487053,95.8405266 63.6528566,95.5830457 C64.2512947,95.0827507 64.7428689,94.4488264 65.1144266,93.6959393 C65.5007809,92.9088302 65.7786272,91.9962399 65.9413892,90.9842424 C66.1156597,89.9005414 66.2159474,88.7320999 66.2373202,87.51314 C66.2652692,86.0269215 66.2027949,84.7688505 66.0548294,83.7764086 C65.9200164,82.8670775 65.6734073,82.1484126 65.3248664,81.6383398 C64.9878339,81.1461929 64.5324291,80.7827864 63.935635,80.5301945 C63.4835183,80.3378986 62.9426223,80.1765657 62.3244554,80.0461957 L62.3244554,80.0461957 Z" id="Combined-Shape" fill="#3B3B3C"></path>
        </g>
    </g>
</svg>